<svg xmlns="http://www.w3.org/2000/svg" height="48" width="48" viewBox="0 0 47.999998 48.000001"><path d="M23.921.145c-2.13 5.223-3.415 8.64-5.787 13.707 1.454 1.542 3.24 3.336 6.138 5.364-3.116-1.283-5.242-2.57-6.83-3.906C14.405 21.644 9.65 30.666 0 48.006c7.585-4.377 13.465-7.079 18.944-8.107a13.914 13.914 0 0 1-.36-3.248l.01-.245c.12-4.859 2.648-8.595 5.642-8.342 2.995.254 5.322 4.402 5.2 9.26-.02.916-.123 1.795-.304 2.61 5.42 1.06 11.237 3.752 18.72 8.072a2292.336 2292.336 0 0 1-4.05-7.496c-1.981-1.535-4.046-3.534-8.263-5.697 2.898.755 4.971 1.622 6.59 2.592C29.342 13.597 28.307 10.434 23.92.147V.145zm21.766 40.442v-1.31h-.49V39.1h1.179v.175h-.493v1.31zm.893 0V39.1h.297l.351 1.054c.035.098.058.17.072.219.017-.055.043-.133.08-.24l.355-1.033H48v1.486h-.19v-1.244l-.432 1.244h-.176l-.432-1.265v1.265z" fill="#1793d1"/></svg>