<svg xmlns="http://www.w3.org/2000/svg" height="64" width="64" viewBox="0 0 63.999997 64.000001"><path d="M31.994-.006c-2.85 6.985-4.568 11.554-7.74 18.332 1.945 2.062 4.332 4.462 8.209 7.174-4.168-1.715-7.01-3.438-9.136-5.224-4.06 8.47-10.42 20.538-23.327 43.73 10.145-5.854 18.009-9.468 25.338-10.843a18.61 18.61 0 0 1-.482-4.345l.012-.327c.161-6.498 3.542-11.496 7.547-11.157 4.005.34 7.118 5.888 6.956 12.386a17.932 17.932 0 0 1-.408 3.49c7.249 1.417 15.03 5.019 25.037 10.796a3065.94 3065.94 0 0 1-5.416-10.026c-2.65-2.053-5.412-4.726-11.05-7.62 3.874 1.01 6.648 2.17 8.812 3.468C39.244 17.985 37.86 13.754 31.993-.004v-.002zm29.112 54.089V52.33h-.655v-.235h1.575v.235h-.658v1.753zm1.194 0v-1.988h.397l.47 1.41c.046.13.076.227.096.293.023-.074.058-.178.108-.32l.473-1.383h.355v1.988h-.254v-1.664l-.578 1.664h-.235l-.578-1.691v1.69z" fill="#1793d1"/></svg>