<?xml version="1.0" encoding="UTF-8" standalone="no"?>
<svg
   xmlns:dc="http://purl.org/dc/elements/1.1/"
   xmlns:cc="http://creativecommons.org/ns#"
   xmlns:rdf="http://www.w3.org/1999/02/22-rdf-syntax-ns#"
   xmlns:svg="http://www.w3.org/2000/svg"
   xmlns="http://www.w3.org/2000/svg"
   xmlns:sodipodi="http://sodipodi.sourceforge.net/DTD/sodipodi-0.dtd"
   xmlns:inkscape="http://www.inkscape.org/namespaces/inkscape"
   height="121.546"
   width="128.00037"
   version="1.1"
   viewBox="0 0 128.00036 121.546"
   id="svg2"
   inkscape:version="0.91 r13725"
   sodipodi:docname="Arch.svg">
  <metadata
     id="metadata12">
    <rdf:RDF>
      <cc:Work
         rdf:about="">
        <dc:format>image/svg+xml</dc:format>
        <dc:type
           rdf:resource="http://purl.org/dc/dcmitype/StillImage" />
        <dc:title></dc:title>
      </cc:Work>
    </rdf:RDF>
  </metadata>
  <defs
     id="defs10" />
  <sodipodi:namedview
     pagecolor="#ffffff"
     bordercolor="#666666"
     borderopacity="1"
     objecttolerance="10"
     gridtolerance="10"
     guidetolerance="10"
     inkscape:pageopacity="0"
     inkscape:pageshadow="2"
     inkscape:window-width="1600"
     inkscape:window-height="844"
     id="namedview8"
     showgrid="false"
     fit-margin-top="0"
     fit-margin-left="0"
     fit-margin-right="0"
     fit-margin-bottom="0"
     inkscape:zoom="0.67137809"
     inkscape:cx="-233.13"
     inkscape:cy="60.990399"
     inkscape:window-x="0"
     inkscape:window-y="30"
     inkscape:window-maximized="1"
     inkscape:current-layer="svg2" />
  <g
     id="g3340"
     transform="scale(0.73138888,0.73138888)">
    <path
       sodipodi:nodetypes="ccccccccscccccccccccccccccccccccccccccccccc"
       style="fill:#1793d1"
       inkscape:connector-curvature="0"
       id="path6"
       d="m 83.06,1.9e-4 c -7.397,18.134 -11.858,29.997 -20.093,47.593 5.049,5.352 11.246,11.584 21.311,18.624 -10.82,-4.453 -18.2,-8.924 -23.717,-13.562 -10.539,21.992 -27.052,53.32 -60.561,113.53 26.338,-15.2 46.753,-24.58 65.78,-28.15 -0.817,-3.52 -1.281,-7.32 -1.25,-11.28 l 0.031,-0.85 c 0.418,-16.87 9.195,-29.845 19.593,-28.964 10.398,0.881 18.478,15.284 18.058,32.154 -0.07,3.18 -0.43,6.23 -1.06,9.06 18.82,3.68 39.02,13.03 65,28.03 -5.12,-9.43 -9.7,-17.93 -14.06,-26.03 -6.88,-5.33 -14.05,-12.27 -28.69,-19.78 10.06,2.62 17.26,5.63 22.88,9 -44.4,-82.668 -47.993,-93.651 -63.223,-129.37 L 83.06,0 Z m 83.92,151.36 0,-4.55 -1.7,0 0,-0.61 4.09,0 0,0.61 -1.71,0 0,4.55 z m 3.1,0 0,-5.16 1.03,0 1.22,3.66 c 0.12,0.34 0.2,0.59 0.25,0.76 0.06,-0.19 0.15,-0.46 0.28,-0.83 l 1.23,-3.59 0.92,0 0,5.16 -0.66,0 0,-4.32 -1.5,4.32 -0.61,0 -1.5,-4.39 0,4.39 z" />
  </g>
</svg>
