<svg xmlns="http://www.w3.org/2000/svg" height="64" viewBox="0 0 63.998823 64.001328" width="64"><path d="M31.212 0c-1.623.099-3.877.945-3.181.175-2.649 1.182-7.353 2.84-9.993 5.316l-.083-.554c-1.21 1.451-5.275 4.335-5.599 6.218l-.323.075c-.628 1.066-1.036 2.273-1.535 3.369-.823 1.403-1.207.54-1.09.76-1.619 3.282-2.424 6.04-3.118 8.304.495.74.012 4.454.198 7.427-.812 14.685 10.306 28.942 22.46 32.233 1.78.638 4.43.615 6.682.678-2.657-.76-3-.403-5.59-1.305-1.868-.881-2.277-1.885-3.601-3.034l.523.926c-2.595-.918-1.508-1.136-3.62-1.805l.56-.73c-.842-.064-2.228-1.417-2.607-2.168l-.92.037c-1.106-1.362-1.696-2.347-1.652-3.11l-.297.53c-.337-.577-4.069-5.116-2.133-4.06-.36-.327-.837-.533-1.355-1.476l.393-.45c-.93-1.198-1.714-2.735-1.654-3.247.497.67.842.796 1.183.911-2.352-5.835-2.485-.32-4.265-5.94l.376-.03c-.288-.436-.465-.907-.697-1.37l.165-1.634c-1.692-1.956-.473-8.324-.228-11.816.168-1.42 1.413-2.932 2.358-5.303l-.575-.098c1.102-1.922 6.291-7.72 8.696-7.423 1.164-1.462-.231-.005-.46-.373 2.559-2.647 3.363-1.87 5.09-2.346 1.86-1.105-1.598.432-.716-.421 3.219-.822 2.28-1.869 6.478-2.285.444.251-1.027.389-1.396.715 2.68-1.312 8.484-1.013 12.255.728 4.372 2.045 9.288 8.088 9.483 13.773l.221.058c-.111 2.26.346 4.875-.448 7.275l.536-1.137c.065 1.727-.503 2.566-1.017 4.05l-.924.46c-.756 1.468.074.931-.467 2.099-1.18 1.048-3.578 3.28-4.346 3.485-.561-.012.38-.662.503-.916-1.579 1.084-1.267 1.627-3.683 2.287l-.07-.158c-5.954 2.802-14.226-2.75-14.117-10.324-.063.48-.181.36-.313.553-.307-3.896 1.8-7.81 5.354-9.41 3.476-1.72 7.552-1.016 10.04 1.307-1.367-1.792-4.09-3.69-7.315-3.515-3.16.051-6.117 2.06-7.103 4.24-1.619 1.019-1.807 3.929-2.512 4.462-.513 3.765.055 6.372 1.407 8.535l-.024.12c.491.667.881 1.39 1.508 1.91-.054-.104-.102-.185-.153-.276 1.013 1.118 2.253 2.157 3.674 3.247.374.252.416.395.383.525.003-.003.003-.008.006-.01 5.458 2.037 11.096 1.542 15.818-2.243 1.202-.936 2.514-2.528 2.893-2.55-.57.86.098.413-.34 1.171 1.195-1.93-.522-.785 1.236-3.333l.65.893c-.244-1.604 1.99-3.55 1.763-6.084.512-.775.57.834.027 2.617.754-1.978.2-2.295.393-3.928.208.549.485 1.131.626 1.711-.492-1.912.502-3.219.749-4.33-.245-.107-.758.844-.877-1.413.018-.981.274-.514.372-.755-.192-.111-.697-.863-1.004-2.305.22-.34.595.878.898.928-.195-1.146-.53-2.02-.544-2.9-.887-1.851-.314.248-1.032-.795-.943-2.94.782-.683.899-2.018 1.428 2.07 2.243 5.279 2.618 6.607-.286-1.62-.748-3.19-1.312-4.709.436.184-.7-3.333.566-1.005-1.35-4.964-5.774-9.603-9.845-11.78.497.456 1.125 1.028.9 1.118-2.026-1.204-1.67-1.299-1.96-1.808-1.647-.67-1.757.055-2.847.001-3.11-1.65-3.709-1.474-6.57-2.507l.13.61c-2.06-.686-2.4.258-4.625 0-.135-.104.714-.382 1.413-.483-1.991.263-1.9-.393-3.848.073.48-.337.99-.561 1.501-.847zm1.346 40.074a.068.068 0 0 0-.017.044c.006-.014.013-.03.017-.044zm-.017.044c-.038.106-.106.21-.064.37-1.537-.72-2.944-1.806-4.102-3.137.615.899 1.277 1.773 2.134 2.46-1.45-.49-3.386-3.512-3.95-3.635 2.498 4.473 10.134 7.844 14.135 6.17-1.851.07-4.203.039-6.281-.73-.808-.415-1.877-1.236-1.872-1.498zM34.5 9.298c-.699.058-1.394.092-2.08.18l.302.042c.505-.185 1.241-.101 1.778-.223zm-1.926.58c.399.071.861.126.795.222l-.28.058.262-.024.019-.034c.437-.097.534-.184-.796-.222zm-17.588 9.073c.117 1.077-.81 1.495.205.784.545-1.227-.212-.338-.205-.784zm-.828 3.42c-.646.828-.297 1.004-.365 1.567.234-.719.276-1.15.365-1.566zm26.627 4.997c-.093.002-.212.237-.272.493.14.073.25.948.384.406.046-.673-.02-.902-.112-.9zm8.17 2.266l-.11.276a13.285 13.285 0 0 1-1.302 4.154 13.092 13.092 0 0 0 1.412-4.43zm-8.654.504c-.1.495-.368.922-.622 1.374-1.396.88-.132-.522 0-1.055-1.502 1.891-.208 1.134-.263 1.663.446-.615.77-1.287.885-1.982zm-3.046 2.886c-.606.149-1.224.151-1.847.095-.747.01.14.385 1.116.535.27-.211.513-.423.731-.63z" fill="#d70751"/></svg>