<?xml version="1.0" encoding="UTF-8" standalone="no"?>
<svg
   xmlns:dc="http://purl.org/dc/elements/1.1/"
   xmlns:cc="http://creativecommons.org/ns#"
   xmlns:rdf="http://www.w3.org/1999/02/22-rdf-syntax-ns#"
   xmlns:svg="http://www.w3.org/2000/svg"
   xmlns="http://www.w3.org/2000/svg"
   xmlns:sodipodi="http://sodipodi.sourceforge.net/DTD/sodipodi-0.dtd"
   xmlns:inkscape="http://www.inkscape.org/namespaces/inkscape"
   height="127.99992"
   viewBox="0 0 102.83442 128.00258"
   width="102.83631"
   id="svg2"
   version="1.1"
   inkscape:version="0.91 r13725"
   sodipodi:docname="Debian.svg">
  <metadata
     id="metadata46">
    <rdf:RDF>
      <cc:Work
         rdf:about="">
        <dc:format>image/svg+xml</dc:format>
        <dc:type
           rdf:resource="http://purl.org/dc/dcmitype/StillImage" />
        <dc:title></dc:title>
      </cc:Work>
    </rdf:RDF>
  </metadata>
  <defs
     id="defs44" />
  <sodipodi:namedview
     pagecolor="#ffffff"
     bordercolor="#666666"
     borderopacity="1"
     objecttolerance="10"
     gridtolerance="10"
     guidetolerance="10"
     inkscape:pageopacity="0"
     inkscape:pageshadow="2"
     inkscape:window-width="1600"
     inkscape:window-height="844"
     id="namedview42"
     showgrid="false"
     fit-margin-top="0"
     fit-margin-left="0"
     fit-margin-right="0"
     fit-margin-bottom="0"
     inkscape:zoom="1.6374106"
     inkscape:cx="183.78644"
     inkscape:cy="16.747602"
     inkscape:window-x="0"
     inkscape:window-y="30"
     inkscape:window-maximized="1"
     inkscape:current-layer="svg2" />
  <path
     d="m 58.232094,66.238247 c -1.494,0.02 0.281,0.768 2.232,1.069 0.541,-0.422 1.027,-0.846 1.463,-1.26 -1.213,0.297 -2.449,0.304 -3.695,0.191"
     id="path4"
     inkscape:connector-curvature="0"
     style="fill:#d70751" />
  <path
     d="m 66.249094,64.239247 c 0.893,-1.229 1.541,-2.573 1.77,-3.963 -0.201,0.99 -0.736,1.845 -1.244,2.749 -2.793,1.759 -0.264,-1.044 -0.002,-2.111 -3.002,3.783 -0.414,2.268 -0.524,3.325"
     id="path6"
     inkscape:connector-curvature="0"
     style="fill:#d70751" />
  <path
     d="m 69.212094,56.535247 c 0.182,-2.691 -0.529,-1.839 -0.768,-0.814 0.278,0.146 0.499,1.898 0.768,0.814"
     id="path8"
     inkscape:connector-curvature="0"
     style="fill:#d70751" />
  <path
     d="m 52.564094,19.756247 c 0.798,0.142 1.724,0.252 1.591,0.443 0.876,-0.193 1.073,-0.367 -1.591,-0.443"
     id="path10"
     inkscape:connector-curvature="0"
     style="fill:#d70751" />
  <path
     d="m 54.156094,20.199247 -0.561,0.117 0.523,-0.048 0.038,-0.069"
     id="path12"
     inkscape:connector-curvature="0"
     style="fill:#d70751" />
  <path
     d="m 90.886104,54.785902 c 0.128666,3.453967 -1.007883,5.132344 -2.035782,8.10024 l -1.848501,0.919247 c -1.511111,2.936444 0.15011,1.864227 -0.932114,4.1988 -2.361736,2.097256 -7.156689,6.560537 -8.692103,6.969409 -1.122254,-0.0243 0.759129,-1.323831 1.005024,-1.831347 -3.158035,2.167308 -2.53472,3.253821 -7.365413,4.573362 L 70.877112,77.399666 C 58.968359,83.003786 42.42477,71.89991 42.642073,56.751633 c -0.125807,0.960706 -0.361695,0.720529 -0.624745,1.106527 -0.614738,-7.79287 3.599789,-15.620052 10.70787,-18.820976 6.952253,-3.439671 15.102529,-2.030064 20.079044,2.614779 -2.733437,-3.582633 -8.178868,-7.38114 -14.627894,-7.029453 -6.32036,0.102933 -12.234707,4.118742 -14.207586,8.480519 -3.236664,2.037212 -3.614085,7.857204 -5.023692,8.923702 -1.899968,13.953113 3.569766,19.978971 12.823711,27.071327 1.452496,0.98072 0.408872,1.130831 0.603301,1.877094 -3.073688,-1.4382 -5.887185,-3.611226 -8.203173,-6.271753 1.229475,1.797035 2.554735,3.544033 4.268852,4.916471 -2.900703,-0.979291 -6.77355,-7.023734 -7.901522,-7.269629 4.99653,8.946576 20.269184,15.690104 28.27078,12.343358 -3.702722,0.137244 -8.404749,0.07577 -12.562091,-1.461074 -1.751287,-0.899232 -4.12303,-2.759171 -3.698432,-3.106569 10.916595,4.075853 22.190596,3.085125 31.63468,-4.484725 2.404625,-1.872805 5.029411,-5.056574 5.78854,-5.099462 -1.142268,1.718406 0.195859,0.826321 -0.681929,2.34315 2.390328,-3.861409 -1.042195,-1.572584 2.473246,-6.667758 l 1.298097,1.787028 c -0.486072,-3.208072 3.981498,-7.099504 3.526878,-12.168944 1.025036,-1.549711 1.142266,1.669799 0.05576,5.235276 1.508256,-3.955764 0.398865,-4.591946 0.784866,-7.857203 0.41602,1.09795 0.96929,2.263092 1.25092,3.422515 -0.98358,-3.824239 1.00503,-6.437589 1.499676,-8.660651 -0.488936,-0.214443 -1.516826,1.689813 -1.754146,-2.824934 0.0357,-1.961441 0.54754,-1.027898 0.7434,-1.51111 -0.38314,-0.221592 -1.39388,-1.725554 -2.007192,-4.609102 0.441762,-0.679071 1.189452,1.757005 1.795612,1.855649 -0.39029,-2.291684 -1.06078,-4.040112 -1.08937,-5.799977 -1.772741,-3.702722 -0.627613,0.494649 -2.062954,-1.58974 -1.887101,-5.881466 1.564014,-1.365289 1.798474,-4.035823 2.856376,4.138756 4.484716,10.55776 5.235266,13.215427 -0.57185,-3.240953 -1.49395,-6.381833 -2.62192,-9.41978 0.87064,0.367412 -1.399606,-6.666329 1.13083,-2.00862 C 98.644674,21.318446 89.796737,12.040198 81.655039,7.688428 82.648626,8.5990971 83.905264,9.7427949 83.456363,9.9229273 79.404813,7.514014 80.116765,7.323874 79.536338,6.305983 76.241059,4.963568 76.020897,6.416064 73.840724,6.308883 67.621867,3.009315 66.423843,3.359573 60.701066,1.295198 l 0.260191,1.218038 C 56.842515,1.140799 56.162015,3.03076 51.711601,2.516136 51.441403,2.305981 53.138364,1.749858 54.536535,1.548281 50.553607,2.074382 50.739458,0.761989 46.842308,1.692673 47.801584,1.019321 48.819475,0.571849 49.843085,0 46.596413,0.197288 42.088814,1.889961 43.479836,0.348828 38.183086,2.713423 28.774742,6.031577 23.495147,10.982358 L 23.329306,9.8728905 C 20.910385,12.776453 12.780124,18.544979 12.132505,22.309174 l -0.647619,0.150111 c -1.256638,2.131566 -2.0729522,4.546198 -3.0708282,6.737809 -1.6454956,2.806348 -2.4132027,1.080794 -2.1787446,1.521118 -3.2380944,6.564825 -4.8492786,12.080308 -6.23744185,16.606492 0.9892986,1.479659 0.024304,8.909405 0.397435,14.855204 C -1.2287444,91.550067 21.0076,120.06389 45.314037,126.64587 c 3.562618,1.27665 8.859369,1.2309 13.365538,1.35671 -5.315336,-1.52112 -6.001554,-0.80488 -11.182505,-2.61049 -3.735603,-1.7613 -4.553347,-3.76992 -7.201007,-6.06732 l 1.047913,1.85136 c -5.189529,-1.83706 -3.017933,-2.2731 -7.241037,-3.6098 l 1.119394,-1.45964 c -1.682665,-0.12867 -4.456132,-2.83351 -5.213832,-4.33605 l -1.841353,0.0729 c -2.210196,-2.72486 -3.389634,-4.69345 -3.302427,-6.21885 l -0.594723,1.06078 c -0.673352,-1.15657 -8.13598,-10.233239 -4.264563,-8.120258 -0.7191,-0.654767 -1.675518,-1.067927 -2.711994,-2.953599 l 0.787722,-0.899232 c -1.859938,-2.397476 -3.428234,-5.469734 -3.308146,-6.493344 0.993588,1.340986 1.682666,1.5926 2.366025,1.822769 C 12.434155,78.37038 12.169675,89.399915 8.6084858,78.161655 l 0.751982,-0.06004 c -0.576138,-0.873499 -0.929255,-1.81562 -1.392453,-2.743445 l 0.328814,-3.266687 C 4.911483,68.180037 7.3504188,55.443532 7.8407788,48.459828 8.1767398,45.620598 10.667142,42.596947 12.558532,37.85489 l -1.152275,-0.197292 c 2.204477,-3.842824 12.583535,-15.43849 17.392784,-14.843767 2.328854,-2.925007 -0.463198,-0.01144 -0.919247,-0.746263 5.116618,-5.293891 6.724943,-3.739892 10.17748,-4.69345 3.721307,-2.208766 -3.195205,0.863492 -1.431051,-0.842047 6.437588,-1.642636 4.560494,-3.737033 12.956666,-4.570502 0.886365,0.503227 -2.054367,0.777714 -2.792053,1.431051 5.361084,-2.624786 16.968187,-2.025774 24.510873,1.455356 8.745,4.090149 18.576512,16.174746 18.965369,27.544531 l 0.441753,0.118659 c -0.223021,4.520465 0.691937,9.748594 -0.896373,14.549265 l 1.073646,-2.274529"
     id="path14"
     inkscape:connector-curvature="0"
     style="fill:#d70751" />
  <path
     d="m 41.921094,68.288247 -0.211,1.047 c 0.983,1.335 1.763,2.781 3.016,3.821 -0.902,-1.759 -1.571,-2.486 -2.805,-4.868"
     id="path16"
     inkscape:connector-curvature="0"
     style="fill:#d70751" />
  <path
     d="m 44.242094,68.198247 c -0.52,-0.576 -0.826,-1.268 -1.172,-1.956 0.33,1.211 1.006,2.252 1.633,3.312 l -0.461,-1.356"
     id="path18"
     inkscape:connector-curvature="0"
     style="fill:#d70751" />
  <path
     d="m 85.326094,59.268247 -0.219,0.552 c -0.402,2.858 -1.273,5.686 -2.605,8.309 1.472,-2.767 2.421,-5.794 2.824,-8.861"
     id="path20"
     inkscape:connector-curvature="0"
     style="fill:#d70751" />
  <path
     d="m 52.861094,19.039247 c 1.009,-0.369 2.482,-0.203 3.556,-0.446 -1.398,0.117 -2.789,0.187 -4.162,0.362 l 0.606,0.084"
     id="path22"
     inkscape:connector-curvature="0"
     style="fill:#d70751" />
  <path
     d="m 17.390094,37.901247 c 0.233,2.154 -1.62,2.991 0.41,1.569 1.09,-2.454 -0.424,-0.677 -0.41,-1.569"
     id="path24"
     inkscape:connector-curvature="0"
     style="fill:#d70751" />
  <path
     d="m 15.002094,47.875247 c 0.469,-1.437 0.553,-2.299 0.732,-3.132 -1.293,1.654 -0.596,2.007 -0.732,3.132"
     id="path26"
     inkscape:connector-curvature="0"
     style="fill:#d70751" />
</svg>
