<svg xmlns="http://www.w3.org/2000/svg" height="48" viewBox="0 0 47.999117 48.000996" width="48"><path d="M23.41 0c-1.218.074-2.909.709-2.387.131-1.986.887-5.515 2.131-7.494 3.987l-.063-.416c-.907 1.09-3.956 3.252-4.199 4.664l-.242.056c-.471.8-.777 1.705-1.152 2.527-.617 1.053-.905.405-.817.57-1.214 2.462-1.818 4.53-2.339 6.228.371.555.01 3.34.15 5.57-.61 11.014 7.729 21.707 16.844 24.175 1.336.479 3.322.462 5.012.509-1.993-.57-2.25-.302-4.193-.98-1.401-.66-1.708-1.413-2.7-2.274l.392.694c-1.946-.689-1.132-.852-2.715-1.353l.42-.548c-.632-.049-1.672-1.063-1.956-1.626l-.69.028c-.83-1.022-1.272-1.76-1.239-2.333l-.223.398c-.252-.434-3.051-3.838-1.6-3.045-.269-.246-.627-.4-1.016-1.108l.295-.337c-.697-.899-1.285-2.051-1.24-2.435.372.503.631.597.887.683-1.764-4.376-1.864-.24-3.199-4.454l.282-.023c-.216-.328-.349-.68-.522-1.028l.124-1.226c-1.27-1.467-.356-6.243-.172-8.862.126-1.064 1.06-2.198 1.769-3.977l-.431-.074c.826-1.44 4.718-5.79 6.521-5.566.874-1.097-.173-.004-.344-.28 1.919-1.985 2.522-1.402 3.817-1.76 1.395-.828-1.199.324-.537-.316 2.414-.616 1.71-1.401 4.859-1.714.332.19-.771.292-1.048.537 2.01-.984 6.363-.76 9.192.546 3.28 1.534 6.966 6.066 7.112 10.33l.166.043c-.084 1.696.26 3.656-.336 5.456l.402-.852c.048 1.295-.378 1.924-.763 3.037l-.693.345c-.567 1.101.056.699-.35 1.574-.886.787-2.684 2.461-3.26 2.614-.42-.009.285-.496.378-.687-1.185.813-.95 1.22-2.762 1.716l-.053-.119c-4.466 2.102-10.67-2.063-10.588-7.743-.047.36-.136.27-.235.415-.23-2.922 1.35-5.857 4.016-7.058 2.607-1.29 5.664-.762 7.53.98-1.025-1.343-3.068-2.768-5.486-2.636-2.37.039-4.588 1.545-5.328 3.18-1.214.764-1.355 2.947-1.884 3.347-.384 2.824.042 4.778 1.056 6.4l-.019.09c.369.501.661 1.043 1.131 1.433-.04-.078-.076-.138-.114-.207.76.84 1.69 1.619 2.755 2.436.281.189.312.296.288.394.002-.003.001-.006.004-.009 4.094 1.529 8.322 1.157 11.863-1.681.902-.703 1.886-1.897 2.17-1.913-.428.645.074.31-.255.879.896-1.448-.391-.59.927-2.5l.487.67c-.182-1.204 1.493-2.663 1.323-4.564.384-.581.428.626.02 1.963.566-1.483.15-1.721.295-2.946.156.412.364.849.47 1.283-.37-1.434.376-2.414.561-3.247-.183-.08-.569.633-.658-1.06.014-.736.206-.385.28-.566-.144-.083-.524-.647-.753-1.729.165-.254.446.66.673.696-.146-.86-.398-1.515-.408-2.175-.665-1.388-.236.186-.774-.596-.707-2.205.586-.512.674-1.514 1.071 1.552 1.682 3.96 1.964 4.956a20.285 20.285 0 0 0-.984-3.532c.327.138-.525-2.5.424-.754-1.013-3.723-4.33-7.202-7.384-8.834.373.341.844.77.676.838-1.52-.904-1.253-.974-1.47-1.356-1.236-.503-1.318.041-2.136 0-2.332-1.237-2.781-1.105-4.927-1.88l.097.458c-1.544-.515-1.8.193-3.469 0-.1-.078.536-.287 1.06-.362-1.493.197-1.424-.295-2.886.054.36-.252.742-.42 1.126-.635zm1.009 30.056a.05.05 0 0 0-.013.033l.013-.033zm-.013.033c-.03.08-.08.157-.048.276-1.153-.539-2.208-1.354-3.077-2.351.462.673.958 1.33 1.6 1.844-1.087-.367-2.539-2.634-2.962-2.726 1.874 3.355 7.6 5.883 10.601 4.628-1.388.051-3.152.028-4.71-.548-.606-.311-1.408-.927-1.404-1.123zm1.469-23.116c-.525.044-1.046.07-1.561.135l.227.032c.378-.139.93-.076 1.334-.167zm-1.445.436c.299.053.646.094.596.166l-.21.044.197-.019.013-.025c.328-.072.402-.138-.597-.166zm-13.191 6.804c.087.808-.607 1.121.154.588.409-.92-.16-.254-.154-.588zm-.621 2.566c-.485.62-.223.753-.274 1.174.176-.538.207-.862.274-1.174zm19.97 3.747c-.07.002-.159.178-.204.37.104.054.187.71.288.304.034-.504-.015-.676-.084-.674zm6.127 1.7l-.082.206a9.964 9.964 0 0 1-.977 3.116 9.819 9.819 0 0 0 1.06-3.322zm-6.49.378c-.075.371-.276.691-.466 1.03-1.048.66-.1-.391-.001-.791-1.126 1.418-.156.85-.197 1.247.335-.461.578-.965.664-1.486zm-2.284 2.164c-.455.111-.919.114-1.386.071-.56.008.106.289.837.402.203-.159.385-.318.549-.473z" fill="#d70751"/></svg>