<svg xmlns="http://www.w3.org/2000/svg" width="64" height="64"><path d="M32 0C14.327 0 0 14.327 0 32c0 17.673 14.327 32 32 32 17.673 0 32-14.327 32-32C64 14.327 49.673 0 32 0zm0 2.667c13.437 0 24.763 9.034 28.237 21.36a50.895 50.895 0 0 1-12.434 16.216c-2.49 2.157-5.21 4.08-8.213 5.434-3.004 1.353-6.307 2.122-9.597 1.933a16.604 16.604 0 0 1-7.076-2.03c5.735-3.108 10.91-7.252 15.146-12.213 2.78-3.257 5.214-6.958 6.15-11.137.469-2.09.548-4.277.11-6.373-.437-2.096-1.406-4.094-2.873-5.654-1.433-1.524-3.314-2.603-5.33-3.16-2.016-.556-4.162-.599-6.22-.223-4.115.752-7.79 3.144-10.737 6.113-5.194 5.234-8.405 12.62-7.816 19.97.294 3.676 1.526 7.287 3.636 10.31.471.675.99 1.318 1.544 1.927a47.983 47.983 0 0 1-9.487 2.273A29.192 29.192 0 0 1 2.667 32C2.667 15.8 15.8 2.667 32 2.667zm.187 5.926c2.062.003 4.138.627 5.783 1.87 1.482 1.12 2.58 2.713 3.203 4.464.623 1.75.783 3.65.57 5.496-.425 3.692-2.287 7.077-4.536 10.034-3.984 5.235-9.278 9.426-15.167 12.36-.603.3-1.215.585-1.83.86a15.145 15.145 0 0 1-3.217-3.934c-1.749-3.097-2.326-6.776-1.986-10.316.339-3.541 1.554-6.953 3.186-10.114 1.893-3.664 4.472-7.135 8.084-9.126 1.805-.996 3.848-1.596 5.91-1.594zm28.883 19.48c.172 1.285.263 2.595.263 3.927C61.333 48.2 48.2 61.333 32 61.333c-9.098 0-17.23-4.142-22.61-10.643a52.802 52.802 0 0 0 9.68-3.217 18.05 18.05 0 0 0 4.463 2.5c4.603 1.765 9.829 1.51 14.487-.103 4.658-1.613 8.789-4.507 12.39-7.873a53.333 53.333 0 0 0 10.66-13.924z"/></svg>