<svg xmlns="http://www.w3.org/2000/svg" width="48" height="48"><path d="M24 0C10.745 0 0 10.745 0 24s10.745 24 24 24 24-10.745 24-24S37.255 0 24 0zm0 2c10.077 0 18.572 6.776 21.177 16.02a38.171 38.171 0 0 1-9.325 12.162c-1.867 1.618-3.907 3.06-6.16 4.075-2.252 1.016-4.73 1.592-7.197 1.45a12.453 12.453 0 0 1-5.308-1.522c4.302-2.33 8.183-5.439 11.36-9.16 2.086-2.443 3.91-5.219 4.613-8.352.351-1.567.41-3.209.082-4.78-.328-1.572-1.055-3.07-2.155-4.24-1.074-1.144-2.485-1.953-3.997-2.37-1.512-.418-3.122-.45-4.665-.168-3.087.564-5.842 2.358-8.053 4.585-3.895 3.926-6.304 9.465-5.862 14.978.22 2.756 1.145 5.465 2.727 7.732.354.506.742.988 1.158 1.445A35.987 35.987 0 0 1 5.28 35.56 21.894 21.894 0 0 1 2 24C2 11.85 11.85 2 24 2zm.14 4.445c1.547.002 3.104.47 4.338 1.403 1.111.84 1.935 2.034 2.402 3.347.467 1.313.587 2.738.427 4.122-.318 2.769-1.715 5.308-3.402 7.525-2.988 3.927-6.959 7.07-11.375 9.27-.452.226-.911.44-1.373.645a11.358 11.358 0 0 1-2.412-2.95c-1.312-2.322-1.745-5.082-1.49-7.737.255-2.655 1.166-5.215 2.39-7.585 1.42-2.748 3.354-5.351 6.062-6.845 1.355-.747 2.886-1.197 4.433-1.195zm21.663 14.61c.128.963.197 1.946.197 2.945 0 12.15-9.85 22-22 22-6.824 0-12.922-3.106-16.957-7.982a39.602 39.602 0 0 0 7.26-2.413 13.538 13.538 0 0 0 3.347 1.875c3.452 1.323 7.371 1.132 10.865-.077 3.494-1.21 6.592-3.38 9.293-5.906a40 40 0 0 0 7.995-10.442z"/></svg>