<svg xmlns="http://www.w3.org/2000/svg" version="1" width="48" height="48" viewBox="-1.7718431 -1.7718431 9.276612 9.274833"><path d="M7.505 2.86a4.638 4.638 0 0 0-9.277-.002v3.589A1.054 1.054 0 0 0-.717 7.499h3.585A4.638 4.638 0 0 0 7.505 2.86" fill="#072b61"/><path d="M4.232-.676A2.176 2.176 0 0 0 2.055 1.5v1.155H.901a2.169 2.169 0 0 0-2.176 2.167 2.176 2.176 0 1 0 4.353 0V3.668h1.154A2.169 2.169 0 0 0 6.408 1.5 2.176 2.176 0 0 0 4.232-.676zm0 1.022c.634 0 1.154.52 1.154 1.154 0 .635-.52 1.155-1.154 1.155h-.987a.171.171 0 0 1-.167-.168V1.5A1.16 1.16 0 0 1 4.232.346zM.9 3.668h.987c.09 0 .167.069.167.159v.995A1.16 1.16 0 0 1 .901 5.977c-.635 0-1.154-.52-1.154-1.155 0-.634.52-1.154 1.154-1.154zm5.305 2.723v.053h.088v.255h.053v-.255h.088V6.39zm.273 0v.308h.053v-.194l.008.027.08.176.07-.176.018-.035v.202h.044v-.308h-.053l-.062.158-.017.044-.018-.044-.07-.158z" fill="#0a57a4"/><path d="M2.051 2.653V1.499c0-1.202.975-2.177 2.177-2.177.183 0 .312.02.481.065.246.064.447.266.448.5 0 .285-.206.49-.514.49-.147 0-.2-.027-.415-.027-.634 0-1.148.513-1.149 1.147v.993c0 .09.073.163.163.163h.755a.506.506 0 1 1 0 1.013h-.918v1.159A2.177 2.177 0 0 1 .903 7.002a1.73 1.73 0 0 1-.481-.065c-.247-.064-.448-.266-.448-.501 0-.284.206-.49.514-.49.147 0 .2.028.415.028a1.15 1.15 0 0 0 1.149-1.147v-.999a.162.162 0 0 0-.163-.162h-.755a.506.506 0 1 1 .006-1.013h.911" fill="#fff"/></svg>