<svg xmlns="http://www.w3.org/2000/svg" width="64" height="64" viewBox="0 0 64 64"><path d="M56.514 50.49l-.001-.002c-.453-.51-.669-1.458-.9-2.468-.232-1.008-.49-2.096-1.319-2.801l-.005-.005a3.277 3.277 0 0 0-1.017-.613c1.151-3.413.7-6.813-.463-9.885-1.425-3.77-3.915-7.056-5.817-9.303-2.128-2.685-4.21-5.234-4.169-8.998.063-5.746.632-16.4-9.479-16.415-.411 0-.84.016-1.287.052-11.299.91-8.302 12.847-8.47 16.844-.206 2.923-.799 5.227-2.81 8.085-2.36 2.808-5.687 7.354-7.262 12.086-.743 2.233-1.096 4.51-.77 6.664-.103.092-.2.188-.293.287-.693.74-1.206 1.637-1.776 2.24-.534.534-1.293.736-2.129 1.035-.836.3-1.752.742-2.31 1.81l-.003.006c-.262.489-.347 1.016-.347 1.551 0 .495.073.996.147 1.479.154 1.004.31 1.954.103 2.597-.66 1.808-.746 3.057-.28 3.965.467.908 1.425 1.309 2.51 1.536 2.168.452 5.103.34 7.417 1.567l.2-.376-.198.376c2.477 1.296 4.989 1.755 6.992 1.298 1.453-.331 2.632-1.197 3.238-2.528 1.567-.007 3.286-.671 6.041-.823 1.869-.15 4.203.664 6.889.515.07.29.171.571.31.838l.005.007c1.04 2.082 2.974 3.034 5.036 2.871 2.063-.163 4.257-1.38 6.032-3.49l-.326-.273.328.27c1.69-2.05 4.497-2.9 6.358-4.022.93-.561 1.685-1.264 1.744-2.285.058-1.02-.541-2.163-1.919-3.691z" fill="#202020"/><path d="M57.584 54.134c-.036.63-.492 1.097-1.334 1.605-1.684 1.015-4.667 1.898-6.572 4.206-1.655 1.97-3.672 3.05-5.449 3.19-1.776.14-3.308-.596-4.213-2.41l-.001-.004-.002-.004c-.562-1.067-.328-2.75.144-4.525.472-1.775 1.151-3.599 1.242-5.08v-.004c.096-1.898.203-3.556.521-4.836.32-1.28.822-2.145 1.711-2.632.042-.022.083-.044.124-.064.1 1.644.915 3.32 2.353 3.683 1.574.415 3.843-.935 4.801-2.037.192-.008.378-.017.56-.022.84-.02 1.545.028 2.265.658l.003.002.002.002c.553.47.817 1.356 1.045 2.348.229.993.41 2.074 1.095 2.845h.001l.001.002c1.316 1.46 1.74 2.446 1.703 3.077zM25.595 58.788v.01c-.153 1.995-1.278 3.081-3.006 3.476-1.726.394-4.068.001-6.406-1.222h-.003c-2.587-1.371-5.665-1.234-7.64-1.647-.987-.206-1.631-.516-1.927-1.092-.295-.577-.302-1.582.326-3.296l.003-.007.002-.008c.312-.958.081-2.007-.07-2.992-.15-.984-.224-1.88.112-2.504l.003-.006c.43-.83 1.062-1.127 1.845-1.407.784-.282 1.713-.502 2.447-1.238l.004-.004.004-.004c.678-.715 1.188-1.613 1.784-2.249.503-.537 1.006-.893 1.765-.898h.026c.133 0 .274.012.423.035 1.007.152 1.886.856 2.732 2.004l2.442 4.452.001.002.002.001c.65 1.358 2.022 2.85 3.185 4.373 1.164 1.522 2.063 3.051 1.946 4.22zM37.777 17.286c-.196-.384-.597-.75-1.279-1.03h-.001l-.002-.001c-1.419-.607-2.034-.65-2.826-1.165-1.288-.829-2.353-1.119-3.238-1.115a3.822 3.822 0 0 0-1.248.212c-1.078.37-1.794 1.144-2.242 1.569l-.001.002c-.088.084-.202.16-.476.361-.277.202-.692.507-1.289.954-.53.398-.703.916-.52 1.522.184.607.769 1.307 1.838 1.912l.002.001.002.001c.664.39 1.118.916 1.639 1.335.26.209.534.395.864.536.33.141.714.237 1.196.265 1.131.066 1.964-.274 2.699-.694.736-.42 1.36-.934 2.075-1.166l.002-.001.002-.001c1.466-.458 2.512-1.381 2.84-2.258.164-.438.159-.855-.037-1.239z" fill="#f8bf11"/><path d="M34.056 19.451c-1.167.609-2.53 1.346-3.98 1.346-1.45 0-2.595-.67-3.42-1.323-.411-.326-.745-.65-.997-.886-.438-.345-.386-.83-.206-.815.302.037.347.434.537.611.256.24.578.552.968.86.778.618 1.817 1.218 3.117 1.218 1.299 0 2.814-.762 3.739-1.28.524-.295 1.191-.822 1.735-1.221.417-.306.401-.674.745-.634.344.04.09.408-.392.828-.481.42-1.234.977-1.846 1.296z" fill="#202020"/><path d="M51.925 44.353a7.89 7.89 0 0 0-.477-.002h-.043c.4-1.264-.486-2.198-2.848-3.266-2.45-1.077-4.401-.97-4.731 1.215-.021.114-.038.231-.05.35a3.715 3.715 0 0 0-.553.245c-1.15.63-1.778 1.771-2.127 3.172-.349 1.4-.45 3.091-.545 4.993v.002c-.059.955-.453 2.249-.851 3.619-4.013 2.863-9.581 4.103-14.31.875a21.01 21.01 0 0 0-1.066-1.504c-.242-.316-.49-.63-.737-.94.485 0 .898-.08 1.231-.23.415-.19.706-.49.851-.879.288-.775-.001-1.869-.924-3.119-.923-1.248-2.486-2.658-4.783-4.066v-.001c-1.687-1.05-2.63-2.336-3.072-3.733-.443-1.397-.38-2.908-.04-4.4.654-2.862 2.333-5.647 3.404-7.394.288-.212.103.394-1.085 2.6-1.064 2.015-3.054 6.668-.33 10.3.073-2.585.69-5.22 1.727-7.686 1.51-3.421 4.666-9.355 4.916-14.084a13.064 13.064 0 0 0 .773.508c.58.34 1.014.84 1.578 1.292.564.454 1.27.845 2.335.907.102.006.202.01.3.01 1.098 0 1.955-.359 2.668-.767.775-.443 1.394-.934 1.982-1.125h.002c1.24-.389 2.226-1.075 2.787-1.875.964 3.8 3.205 9.287 4.646 11.964.766 1.42 2.29 4.44 2.948 8.077.417-.013.876.047 1.368.173 1.721-4.462-1.46-9.267-2.914-10.606-.587-.57-.616-.825-.324-.813 1.577 1.396 3.65 4.202 4.403 7.37.344 1.444.417 2.963.048 4.462.18.075.364.156.55.244 2.762 1.345 3.783 2.515 3.293 4.112zM37.907 12.91a4.818 4.818 0 0 1-.41 2.048c-.162.373-.35.686-.574.958a18.86 18.86 0 0 0-.998-.412c-.226-.085-.401-.143-.583-.206.132-.159.39-.346.487-.581.146-.355.218-.7.231-1.113 0-.017.005-.031.005-.05a3.083 3.083 0 0 0-.16-1.08c-.12-.363-.274-.625-.496-.842-.223-.217-.446-.315-.713-.324h-.037c-.25 0-.469.086-.694.274-.237.198-.412.451-.558.803a3.092 3.092 0 0 0-.231 1.116c-.003.017-.003.03-.003.047-.005.229.01.438.045.64-.513-.255-1.17-.442-1.623-.55a5.492 5.492 0 0 1-.046-.61v-.058c-.008-.75.115-1.394.404-2.048.288-.654.646-1.124 1.149-1.507.503-.382.998-.557 1.583-.563h.028c.573 0 1.063.168 1.567.533.51.372.88.836 1.176 1.485.291.632.432 1.251.446 1.984 0 .02 0 .036.005.056zM29.247 13.66a4.774 4.774 0 0 0-.221.069c-.41.142-.736.298-1.051.506.03-.218.035-.439.01-.686l-.001-.038a2.978 2.978 0 0 0-.218-.88c-.123-.288-.261-.492-.443-.648-.164-.142-.319-.208-.49-.206-.018 0-.036 0-.054.002-.192.016-.352.11-.503.295-.15.183-.25.412-.322.714-.071.303-.09.6-.06.94 0 .014.003.025.003.039.033.33.099.605.217.882.12.286.261.49.442.646.03.026.06.05.09.071-.187.146-.314.249-.469.362l-.354.26c-.3-.28-.533-.632-.737-1.097a4.915 4.915 0 0 1-.41-1.748v-.005a4.909 4.909 0 0 1 .206-1.785c.179-.577.418-.995.765-1.338.346-.344.695-.517 1.116-.539l.097-.002c.381 0 .721.127 1.073.409.382.305.671.695.913 1.245.242.55.371 1.1.407 1.749v.005a5.17 5.17 0 0 1-.006.777z" fill="#fff"/><path d="M31.16 15.212c.049.155.299.13.443.203.126.066.228.209.37.213.136.004.348-.047.365-.182.024-.178-.236-.291-.403-.356-.216-.084-.491-.127-.693-.015-.047.026-.097.086-.081.137zM29.686 15.212c-.048.155-.298.13-.442.203-.127.066-.228.209-.37.213-.137.004-.348-.047-.366-.182-.023-.178.237-.291.404-.356.215-.084.491-.127.693-.015.046.026.097.086.081.137z" fill="#202020"/></svg>