<svg xmlns="http://www.w3.org/2000/svg" width="48" height="48" viewBox="0 0 48 48"><path d="M41.777 37.868l-.001-.002c-.34-.383-.502-1.094-.676-1.85-.173-.757-.367-1.573-.989-2.102l-.003-.003a2.458 2.458 0 0 0-.763-.46c.863-2.56.525-5.11-.347-7.414-1.07-2.828-2.937-5.292-4.363-6.977-1.596-2.014-3.158-3.925-3.127-6.749.048-4.31.474-12.3-7.11-12.311-.307 0-.63.012-.964.04-8.474.681-6.227 9.634-6.353 12.632-.155 2.192-.599 3.92-2.107 6.063-1.77 2.107-4.265 5.516-5.447 9.065-.557 1.675-.822 3.382-.578 4.998a3.79 3.79 0 0 0-.22.215c-.519.556-.903 1.228-1.331 1.681-.4.4-.97.551-1.597.776-.627.225-1.314.556-1.732 1.357 0 .002-.001.004-.003.005-.196.366-.26.762-.26 1.163 0 .371.055.747.11 1.11.116.752.233 1.465.078 1.947-.496 1.356-.56 2.293-.21 2.973.35.682 1.069.983 1.882 1.153 1.626.339 3.828.255 5.563 1.175l.15-.282-.148.282c1.857.972 3.74 1.316 5.243.973 1.09-.248 1.974-.897 2.429-1.895 1.175-.006 2.465-.504 4.53-.618 1.402-.113 3.153.498 5.167.386.053.219.129.43.233.629l.003.005c.78 1.562 2.231 2.276 3.777 2.154 1.548-.122 3.194-1.035 4.524-2.618l-.244-.205.246.203c1.268-1.538 3.373-2.175 4.769-3.017.698-.42 1.263-.948 1.307-1.713.044-.765-.405-1.622-1.438-2.769z" fill="#202020"/><path d="M42.579 40.6c-.027.473-.37.824-1 1.204-1.263.762-3.501 1.424-4.93 3.155-1.24 1.477-2.754 2.287-4.086 2.393-1.332.105-2.482-.448-3.16-1.808l-.001-.003-.002-.004c-.42-.8-.245-2.062.109-3.393.354-1.332.863-2.7.931-3.81v-.003c.072-1.424.152-2.667.39-3.627.24-.96.617-1.609 1.284-1.974l.093-.048c.076 1.233.686 2.49 1.765 2.763 1.18.31 2.882-.702 3.6-1.529.144-.005.284-.013.42-.016.63-.015 1.16.021 1.7.494l.001.001.002.001c.415.352.613 1.017.784 1.761.171.745.308 1.556.821 2.134h.001v.002c.988 1.095 1.305 1.835 1.278 2.307zM18.587 44.091v.007c-.115 1.497-.958 2.311-2.254 2.607-1.295.296-3.052.001-4.805-.916h-.002c-1.94-1.028-4.249-.926-5.73-1.235-.74-.155-1.224-.388-1.445-.82-.222-.432-.227-1.186.244-2.471l.003-.006.001-.005c.234-.72.06-1.506-.052-2.245-.113-.738-.169-1.41.084-1.878l.002-.004c.323-.622.796-.845 1.384-1.055.588-.211 1.284-.377 1.834-.929l.004-.003.003-.002c.508-.537.89-1.21 1.337-1.687.378-.403.755-.67 1.324-.674h.02c.1 0 .205.009.317.026.756.114 1.414.642 2.049 1.503l1.832 3.339v.002h.002c.487 1.019 1.516 2.138 2.389 3.28.872 1.142 1.547 2.289 1.46 3.166zM27.724 12.965c-.147-.289-.448-.563-.96-.773h-.002c-1.064-.456-1.525-.489-2.12-.875-.966-.62-1.764-.839-2.428-.836a2.866 2.866 0 0 0-.936.16c-.808.277-1.345.858-1.681 1.176l-.001.002c-.066.062-.152.12-.357.27-.208.152-.52.38-.967.716-.398.298-.527.687-.39 1.142.138.455.576.98 1.379 1.433l.001.001h.002c.498.294.838.688 1.229 1.002.195.157.4.297.647.402.248.106.537.178.898.199.848.05 1.473-.205 2.024-.521.552-.315 1.02-.7 1.557-.875h.002c1.1-.344 1.885-1.036 2.13-1.694.123-.329.12-.641-.027-.93z" fill="#f8bf11"/><path d="M24.933 14.588c-.876.457-1.898 1.01-2.986 1.01-1.087 0-1.946-.503-2.564-.992-.308-.245-.56-.488-.748-.665-.328-.259-.29-.622-.154-.612.226.029.26.326.402.46.193.18.434.413.726.644.584.463 1.363.914 2.338.914.974 0 2.11-.572 2.804-.961.393-.22.894-.616 1.302-.915.312-.23.3-.506.558-.476.258.03.068.306-.294.621-.36.315-.926.733-1.384.972z" fill="#202020"/><path d="M38.334 33.264a5.918 5.918 0 0 0-.39 0c.3-.95-.364-1.65-2.136-2.45-1.837-.808-3.3-.728-3.548.911a3.596 3.596 0 0 0-.038.262 2.786 2.786 0 0 0-.414.184c-.862.472-1.333 1.329-1.595 2.38-.262 1.05-.337 2.318-.409 3.744v.001c-.044.717-.34 1.687-.638 2.715-3.01 2.147-7.186 3.077-10.733.656-.24-.38-.516-.757-.8-1.128a49.53 49.53 0 0 0-.552-.706c.364 0 .674-.059.924-.172a1.17 1.17 0 0 0 .638-.659c.216-.581-.002-1.401-.694-2.339-.692-.936-1.864-1.993-3.587-3.05-1.265-.788-1.973-1.752-2.304-2.8-.332-1.048-.285-2.181-.03-3.3.49-2.147 1.75-4.235 2.553-5.546.216-.158.077.296-.813 1.95-.798 1.512-2.29 5.001-.248 7.725.055-1.938.518-3.915 1.295-5.764 1.132-2.566 3.5-7.016 3.688-10.563a9.798 9.798 0 0 0 .58.38c.434.257.76.63 1.182.97.424.34.953.634 1.752.68.076.005.151.007.225.007.823 0 1.466-.268 2-.574.582-.333 1.047-.701 1.487-.844h.002c.93-.292 1.67-.807 2.09-1.406.723 2.849 2.404 6.964 3.485 8.973.574 1.065 1.717 3.33 2.21 6.057.313-.01.658.036 1.027.13 1.29-3.346-1.095-6.95-2.186-7.954-.44-.428-.462-.62-.243-.61 1.183 1.047 2.737 3.151 3.302 5.527.258 1.083.313 2.223.036 3.347.135.056.273.117.412.183 2.072 1.009 2.838 1.886 2.47 3.083zM27.821 9.682a3.613 3.613 0 0 1-.307 1.536c-.122.28-.262.515-.43.719a14.145 14.145 0 0 0-.749-.309c-.17-.064-.301-.108-.438-.155.099-.119.293-.26.365-.436.11-.265.164-.525.174-.834 0-.013.004-.023.004-.038a2.313 2.313 0 0 0-.12-.81 1.495 1.495 0 0 0-.373-.63.766.766 0 0 0-.534-.244h-.028a.784.784 0 0 0-.52.206 1.49 1.49 0 0 0-.419.602c-.11.264-.163.526-.174.837l-.001.035c-.004.171.007.328.033.48-.385-.192-.877-.332-1.217-.413a4.12 4.12 0 0 1-.034-.457v-.044a3.556 3.556 0 0 1 .302-1.536c.217-.49.485-.843.862-1.13.378-.286.749-.418 1.188-.422h.02c.43 0 .798.126 1.176.4.383.278.66.627.882 1.113.218.475.324.939.334 1.489 0 .014 0 .027.004.041zM21.326 10.245a3.37 3.37 0 0 0-.954.432c.023-.164.026-.33.008-.515l-.001-.028a2.234 2.234 0 0 0-.164-.66 1.27 1.27 0 0 0-.332-.487.542.542 0 0 0-.408-.153c-.144.013-.264.083-.377.221a1.279 1.279 0 0 0-.241.536c-.054.227-.068.45-.046.705l.002.029c.025.248.075.454.163.662.09.214.196.367.332.484.023.02.045.038.068.054-.141.109-.236.186-.352.271l-.266.195c-.225-.21-.4-.474-.553-.823a3.686 3.686 0 0 1-.307-1.31v-.005c-.027-.486.02-.905.154-1.338.135-.433.314-.747.574-1.004.26-.258.521-.388.837-.404l.073-.002c.286 0 .54.096.805.307.286.229.503.522.684.934.182.412.279.825.306 1.312v.003c.013.205.01.397-.005.584z" fill="#fff"/><path d="M22.761 11.409c.037.116.224.097.332.153.095.049.171.156.278.159.102.003.26-.036.274-.137.017-.133-.178-.218-.303-.267-.162-.063-.368-.095-.52-.01-.035.019-.072.064-.06.102zM21.655 11.409c-.036.116-.223.097-.331.153-.095.049-.171.156-.278.159-.102.003-.26-.036-.274-.137-.017-.133.178-.218.303-.267.161-.063.368-.095.52-.01.034.019.072.064.06.102z" fill="#202020"/></svg>