<svg xmlns="http://www.w3.org/2000/svg" width="48" height="48" viewBox="0 0 48.000001 48.000001"><path d="M24 0A24 24 0 0 0 0 24a24 24 0 0 0 24 24 24 24 0 0 0 24-24A24 24 0 0 0 24 0zm-7.523 13.09c.802 0 1.4.406 1.658 1.12h.022c.335-.703 1.034-1.12 1.863-1.12 1.17 0 1.928.758 1.928 1.934v4.042h-.957v-3.823c0-.818-.455-1.3-1.246-1.3-.791 0-1.357.587-1.357 1.4v3.723h-.956V15.13c0-.714-.49-1.187-1.23-1.187-.792 0-1.373.621-1.373 1.45v3.674h-.957v-5.92h.9v.96h.023c.28-.631.913-1.016 1.682-1.016zm8.997 0c1.4 0 2.302.747 2.302 1.912v4.064h-.906V18.04h-.022c-.335.659-1.077 1.082-1.906 1.082-1.203 0-2-.692-2-1.742 0-1.016.78-1.614 2.22-1.702l1.658-.1v-.493c0-.736-.483-1.143-1.357-1.143-.686 0-1.197.35-1.312.911h-.919c.028-1 1-1.763 2.242-1.763zm5.994 0c1.466 0 2.362.945 2.483 1.983h-.94c-.122-.632-.649-1.13-1.539-1.13-1.033 0-1.736.856-1.736 2.163 0 1.346.715 2.165 1.748 2.165.824 0 1.373-.385 1.538-1.099h.939c-.16 1.154-1.132 1.95-2.483 1.95-1.626 0-2.713-1.154-2.713-3.016 0-1.818 1.082-3.016 2.703-3.016zm-4.648 3.247l-1.549.098c-.89.055-1.352.38-1.352.951 0 .55.478.907 1.225.907.967 0 1.676-.627 1.676-1.478v-.478zm-9.03 5.44c4.12 0 6.696 2.9 6.696 7.513 0 4.612-2.577 7.503-6.695 7.503-4.12 0-6.698-2.891-6.698-7.503 0-4.613 2.579-7.512 6.698-7.512zm13.827 0c2.89 0 4.985 1.712 5.066 4.15H34.87c-.162-1.562-1.42-2.519-3.314-2.519-1.883 0-3.193.978-3.193 2.398 0 1.098.806 1.753 2.78 2.266l1.52.403c3.012.755 4.231 1.913 4.231 3.998 0 2.658-2.095 4.32-5.439 4.32-3.082 0-5.216-1.672-5.388-4.24h1.823c.17 1.571 1.662 2.61 3.736 2.61 1.964 0 3.394-1.039 3.394-2.47 0-1.228-.855-1.983-2.81-2.486l-1.862-.484c-2.68-.685-3.868-1.862-3.868-3.836 0-2.417 2.115-4.11 5.136-4.11zM17.791 23.45c-2.971 0-4.834 2.255-4.834 5.84 0 3.576 1.863 5.832 4.834 5.832 2.97 0 4.834-2.256 4.834-5.831 0-3.586-1.864-5.84-4.834-5.84z"/></svg>