<svg xmlns="http://www.w3.org/2000/svg" width="48" height="48" viewBox="72.8 75.424 48 47.999998"><path d="M96.396 87.295c-3.776-.064-8.732.304-15.391 4.396l-.226.141c-3.577 2.233-6.05 4.987-7.341 8.187-.407 1.007-.951 3.279-.412 5.417.234.935.669 1.87 1.255 2.711 1.32 1.899 3.539 3.16 5.927 3.374 3.373.301 5.927-1.213 6.835-4.049.625-1.958 0-4.828-2.395-6.294-1.946-1.193-4.042-.92-5.256-.119-1.054.7-1.653 1.785-1.64 2.978.024 2.114 1.847 3.24 3.155 3.242.383 0 .765-.066 1.195-.207.154-.047.3-.103.457-.203l.05-.031.02-.013a1.069 1.069 0 0 0-.794-1.94l-.073.013-.1.036-.146.046c-.301.076-.53.082-.577.082-.154-.01-.91-.235-.91-1.062v-.01c.002-.303.126-.516.194-.631.231-.37.874-.73 1.741-.652 1.14.096 1.96.68 2.504 1.781.506 1.025.373 2.284-.34 3.208-.707.917-1.969 1.305-3.646 1.122a4.99 4.99 0 0 1-3.92-2.673c-.785-1.48-.828-3.237-.113-4.586 1.712-3.231 4.946-3.196 6.72-2.89 2.624.453 5.005 2.553 6.065 5.348.169.445.257.799.333 1.119l.113.485 2.965 1.448.04.03.072-.01.012-.083c-.018-.068-.061-.129-.129-.96-.057-.733-.172-2.749.842-3.75.392-.389.995-.735 1.468-.847 1.944-.474 4.467-.146 6.621 2.345 1.112 1.288 1.658 1.875 1.931 2.137l.092.09.116.081c.088.05 3.702 1.714 3.702 1.714l.074-.019.001-.08c-.022-.027-2.29-2.954-1.888-5.365.318-1.923 1.847-1.75 3.963-1.508.69.077 1.478.167 2.292.186 2.272.014 4.718-.402 6.227-1.062.976-.427 1.599-.71 1.988-1.064.141-.115.216-.306.29-.507l.053-.135c.063-.164.156-.51.194-.701.019-.082.027-.175-.03-.22l-.21.04v-.001c-.662.397-2.316 1.154-3.866 1.185-1.92.039-5.792-1.933-6.196-2.142l-.036-.045c-.099-.232-.678-1.605-.802-1.894 2.787 1.835 5.097 2.85 6.866 3.005 1.968.177 3.504-.898 4.16-1.357.13-.087.226-.158.267-.172l.04-.07c-.108-.691-1.137-4.04-1.914-4.843-.215-.221-.388-.435-.737-.64-2.815-1.64-9.496-2.632-9.808-2.675l-.053.015-.02.047-.03 1.54c-.684-.228-5.643-1.831-10.293-1.993-.493-.017-1.009-.036-1.548-.045zm19.412 3.267a2.866 2.866 0 0 1 2.76 2.958 2.848 2.848 0 0 1-.907 1.989 2.828 2.828 0 0 1-2.05.766 2.867 2.867 0 0 1-2.758-2.958c.027-.762.348-1.47.907-1.99a2.834 2.834 0 0 1 2.048-.765zm.048.795a1.998 1.998 0 0 0-1.454.542 2.008 2.008 0 0 0-.645 1.415 2.04 2.04 0 0 0 1.96 2.107 2.041 2.041 0 0 0 1.46-.546 2.01 2.01 0 0 0 .642-1.414 2.038 2.038 0 0 0-1.963-2.104zm.333 1.018c.498 0 .902.27.902.604 0 .33-.404.6-.902.6s-.9-.27-.9-.6c0-.334.402-.604.9-.604z" fill="#4bb679"/></svg>