<?xml version="1.0" encoding="UTF-8" standalone="no"?>
<!-- Generator: Adobe Illustrator 15.0.0, SVG Export Plug-In . SVG Version: 6.00 Build 0)  -->

<svg
   xmlns:dc="http://purl.org/dc/elements/1.1/"
   xmlns:cc="http://creativecommons.org/ns#"
   xmlns:rdf="http://www.w3.org/1999/02/22-rdf-syntax-ns#"
   xmlns:svg="http://www.w3.org/2000/svg"
   xmlns="http://www.w3.org/2000/svg"
   xmlns:sodipodi="http://sodipodi.sourceforge.net/DTD/sodipodi-0.dtd"
   xmlns:inkscape="http://www.inkscape.org/namespaces/inkscape"
   version="1.1"
   id="svg4578"
   sodipodi:version="0.32"
   inkscape:version="0.91 r13725"
   sodipodi:docname="OpenSUSE.svg"
   inkscape:output_extension="org.inkscape.output.svg.inkscape"
   x="0px"
   y="0px"
   width="128"
   height="64.716576"
   viewBox="72.8 75.424 128 64.716573"
   enable-background="new 72.8 75.424 248.4 157.156"
   xml:space="preserve"><metadata
     id="metadata40"><rdf:RDF><cc:Work
         rdf:about=""><dc:format>image/svg+xml</dc:format><dc:type
           rdf:resource="http://purl.org/dc/dcmitype/StillImage" /><dc:title></dc:title></cc:Work></rdf:RDF></metadata><defs
     id="defs38" /><sodipodi:namedview
     inkscape:window-y="30"
     inkscape:window-x="0"
     inkscape:window-height="844"
     inkscape:window-width="1600"
     inkscape:showpageshadow="false"
     inkscape:current-layer="g6"
     inkscape:document-units="px"
     inkscape:pageshadow="2"
     inkscape:pageopacity="0.0"
     width="400px"
     height="300px"
     id="base"
     objecttolerance="10"
     guidetolerance="10"
     gridtolerance="10000"
     borderopacity="1"
     inkscape:cy="25.816365"
     bordercolor="#d6d6d6"
     inkscape:cx="-71.765338"
     pagecolor="#ffffff"
     inkscape:zoom="1"
     borderlayer="true"
     showgrid="false"
     fit-margin-top="0"
     fit-margin-left="0"
     fit-margin-right="0"
     fit-margin-bottom="0"
     inkscape:window-maximized="1" /><g
     id="layer1"
     inkscape:groupmode="layer"
     inkscape:label="Layer 1"
     transform="translate(-61.051048,-26.827224)"><g
       id="XMLID_1_"><g
         id="g6"><g
           id="g3368"
           transform="matrix(0.54672374,0,0,0.54672374,89.681185,61.015298)"><path
             id="path12"
             d="m 290.56,91.38 c 7.69,0.27 13.721,6.75 13.46,14.43 -0.14,3.72 -1.699,7.16 -4.42,9.7 -2.72,2.55 -6.26,3.87 -10,3.74 -7.68,-0.28 -13.699,-6.75 -13.449,-14.43 0.13,-3.72 1.689,-7.17 4.42,-9.71 2.719,-2.54 6.269,-3.86 9.989,-3.73 z m 9.81,14.14 c 0.18,-5.47 -4.101,-10.07 -9.57,-10.26 -2.649,-0.1 -5.17,0.84 -7.1,2.65 -1.931,1.8 -3.061,4.25 -3.141,6.9 -0.18,5.47 4.101,10.07 9.561,10.27 2.66,0.08 5.18,-0.86 7.12,-2.66 1.93,-1.81 3.05,-4.26 3.13,-6.9 z"
             inkscape:connector-curvature="0"
             style="fill:#ffffff" /><path
             id="path14"
             d="m 290.8,95.26 c 5.47,0.19 9.75,4.79 9.57,10.26 -0.08,2.64 -1.2,5.09 -3.13,6.9 -1.94,1.8 -4.46,2.74 -7.12,2.66 -5.46,-0.2 -9.74,-4.8 -9.561,-10.27 0.08,-2.65 1.21,-5.1 3.141,-6.9 1.93,-1.81 4.45,-2.75 7.1,-2.65 z m 6.02,7.91 c 0,-1.63 -1.971,-2.94 -4.4,-2.94 -2.429,0 -4.39,1.31 -4.39,2.94 0,1.61 1.96,2.93 4.39,2.93 2.43,0 4.4,-1.32 4.4,-2.93 z"
             inkscape:connector-curvature="0"
             style="fill:#73ba25" /><path
             id="path16"
             d="m 292.42,100.23 c 2.43,0 4.4,1.31 4.4,2.94 0,1.61 -1.971,2.93 -4.4,2.93 -2.429,0 -4.39,-1.32 -4.39,-2.93 0,-1.63 1.96,-2.94 4.39,-2.94 z"
             inkscape:connector-curvature="0"
             style="fill:#ffffff" /><path
             id="path24"
             d="m 312.8,124.64 1.021,-0.19 c 0.279,0.22 0.239,0.67 0.149,1.07 -0.189,0.93 -0.64,2.62 -0.95,3.42 l -0.26,0.66 c -0.359,0.98 -0.72,1.91 -1.41,2.47 -1.899,1.73 -4.939,3.11 -9.699,5.19 -7.36,3.22 -19.29,5.25 -30.37,5.18 -3.971,-0.09 -7.811,-0.53 -11.181,-0.91 -10.319,-1.18 -17.779,-2.02 -19.33,7.36 -1.96,11.76 9.101,26.04 9.211,26.169 l -0.011,0.391 -0.359,0.09 c 0,0 -17.63,-8.12 -18.061,-8.36 l -0.56,-0.399 -0.45,-0.431 c -1.33,-1.279 -4,-4.149 -9.42,-10.43 -10.51,-12.15 -22.81,-13.75 -32.29,-11.44 -2.31,0.55 -5.25,2.24 -7.16,4.14 -4.95,4.88 -4.39,14.71 -4.11,18.29 0.33,4.05 0.54,4.35 0.63,4.68 l -0.06,0.41 -0.35,0.04 -0.2,-0.14 -14.46,-7.07 -0.55,-2.36 c -0.37,-1.56 -0.8,-3.29 -1.62,-5.46 -5.17,-13.63 -16.79,-23.88 -29.59,-26.09 -8.65,-1.49 -24.42,-1.66 -32.77,14.1 -3.49,6.58 -3.28,15.15 0.55,22.37 3.9,7.391 10.87,12.13 19.12,13.04 8.18,0.891 14.33,-1 17.78,-5.47 3.48,-4.51 4.13,-10.65 1.66,-15.65 -2.65,-5.369 -6.65,-8.22 -12.21,-8.689 -4.23,-0.38 -7.37,1.38 -8.5,3.18 -0.33,0.561 -0.93,1.601 -0.94,3.08 l 0,0.05 c 0,4.03 3.69,5.13 4.44,5.181 0.23,0 1.34,-0.03 2.81,-0.4 l 0.71,-0.229 0.49,-0.171 0.36,-0.069 c 2.68,-0.49 5.26,1.09 6.01,3.7 0.13,0.479 0.2,0.96 0.2,1.439 0,1.73 -0.88,3.34 -2.34,4.32 l 0.06,-0.021 -0.16,0.09 -0.24,0.15 c -0.77,0.49 -1.48,0.76 -2.23,0.99 -2.1,0.689 -3.96,1.01 -5.83,1.01 -6.38,-0.01 -15.27,-5.5 -15.39,-15.81 -0.06,-5.82 2.86,-11.12 8,-14.53 5.92,-3.91 16.15,-5.24 25.64,0.58 11.68,7.15 14.73,21.149 11.68,30.7 -4.43,13.83 -16.89,21.22 -33.34,19.75 -11.65,-1.04 -22.47,-7.19 -28.91,-16.45 -2.86,-4.101 -4.98,-8.67 -6.12,-13.23 -2.63,-10.43 0.03,-21.51 2.01,-26.42 6.3,-15.61 18.36,-29.04 35.81,-39.93 l 1.1,-0.69 C 157.93,74.08 184.2,75 203.43,75.67 c 22.681,0.79 46.87,8.61 50.21,9.72 0.011,-0.75 0.141,-7.51 0.141,-7.51 l 0.1,-0.23 0.26,-0.07 c 1.521,0.21 34.11,5.05 47.841,13.05 1.699,1 2.539,2.04 3.59,3.12 3.79,3.92 8.81,20.25 9.34,23.62 l -0.2,0.34 c -0.2,0.07 -0.67,0.42 -1.3,0.84 -3.2,2.24 -10.69,7.48 -20.29,6.62 -8.63,-0.76 -19.9,-5.71 -33.49,-14.66 0.601,1.41 3.43,8.11 3.91,9.24 l 0.18,0.22 c 1.971,1.02 20.851,10.64 30.221,10.45 7.557,-0.15 15.627,-3.84 18.857,-5.78 z m -8.78,-18.83 c 0.261,-7.68 -5.77,-14.16 -13.46,-14.43 -3.72,-0.13 -7.27,1.19 -9.989,3.73 -2.73,2.54 -4.29,5.99 -4.42,9.71 -0.25,7.68 5.77,14.15 13.449,14.43 3.74,0.13 7.28,-1.19 10,-3.74 2.72,-2.54 4.28,-5.98 4.42,-9.7 z"
             inkscape:connector-curvature="0"
             style="fill:#73ba25" /></g></g><g
         id="g36" /></g></g></svg>