<svg xmlns="http://www.w3.org/2000/svg" width="48" height="48" viewBox="0 0 48.000001 48.000001"><g transform="translate(-384.704 -194.963) scale(.56444)"><circle cx="724.087" cy="387.93" r="42.52" fill="#dd4814"/><path d="M702.019 387.93a5.467 5.467 0 1 1-10.934-.002 5.467 5.467 0 0 1 10.934.002zm31.103 26.581a5.467 5.467 0 1 0 9.468-5.469 5.467 5.467 0 0 0-9.468 5.469zm9.467-47.696a5.464 5.464 0 0 0-1.999-7.467 5.467 5.467 0 0 0-5.467 9.468 5.463 5.463 0 0 0 7.466-2.001zm-18.502 5.525c8.147 0 14.831 6.245 15.529 14.208l7.911-.123a23.412 23.412 0 0 0-6.896-15.167 7.675 7.675 0 0 1-6.621-.512 7.68 7.68 0 0 1-3.755-5.483 23.532 23.532 0 0 0-6.168-.819 23.39 23.39 0 0 0-10.417 2.432l3.849 6.913a15.519 15.519 0 0 1 6.568-1.449zm-15.589 15.59c0-5.275 2.619-9.937 6.628-12.758l-4.062-6.789a23.523 23.523 0 0 0-9.689 13.554 7.677 7.677 0 0 1 2.87 5.993 7.677 7.677 0 0 1-2.87 5.993 23.53 23.53 0 0 0 9.689 13.555l4.062-6.789c-4.009-2.821-6.628-7.484-6.628-12.759zm15.589 15.591c-2.345 0-4.571-.52-6.568-1.448l-3.849 6.913a23.39 23.39 0 0 0 10.417 2.431 23.49 23.49 0 0 0 6.168-.819 7.678 7.678 0 0 1 3.755-5.483 7.678 7.678 0 0 1 6.621-.512 23.423 23.423 0 0 0 6.896-15.167l-7.911-.125c-.698 7.964-7.382 14.21-15.529 14.21z" fill="#fff"/></g></svg>