<?xml version="1.0" encoding="UTF-8" standalone="no"?>
<svg
   xmlns:dc="http://purl.org/dc/elements/1.1/"
   xmlns:cc="http://creativecommons.org/ns#"
   xmlns:rdf="http://www.w3.org/1999/02/22-rdf-syntax-ns#"
   xmlns:svg="http://www.w3.org/2000/svg"
   xmlns="http://www.w3.org/2000/svg"
   xmlns:sodipodi="http://sodipodi.sourceforge.net/DTD/sodipodi-0.dtd"
   xmlns:inkscape="http://www.inkscape.org/namespaces/inkscape"
   id="svg2"
   height="127.99951"
   width="126.19701"
   version="1.1"
   inkscape:version="0.91 r13725"
   sodipodi:docname="Windows.svg"
   style="fill:#0078d6">
  <defs
     id="defs18" />
  <sodipodi:namedview
     pagecolor="#ffffff"
     bordercolor="#666666"
     borderopacity="1"
     objecttolerance="10"
     gridtolerance="10"
     guidetolerance="10"
     inkscape:pageopacity="0"
     inkscape:pageshadow="2"
     inkscape:window-width="1600"
     inkscape:window-height="844"
     id="namedview16"
     showgrid="false"
     fit-margin-top="0"
     fit-margin-left="0"
     fit-margin-right="0"
     fit-margin-bottom="0"
     inkscape:zoom="0.78024743"
     inkscape:cx="249.7163"
     inkscape:cy="63.999817"
     inkscape:window-x="0"
     inkscape:window-y="30"
     inkscape:window-maximized="1"
     inkscape:current-layer="g4186" />
  <metadata
     id="metadata28">
    <rdf:RDF>
      <cc:Work
         rdf:about="">
        <dc:format>image/svg+xml</dc:format>
        <dc:type
           rdf:resource="http://purl.org/dc/dcmitype/StillImage" />
        <dc:title></dc:title>
      </cc:Work>
    </rdf:RDF>
  </metadata>
  <g
     id="g4186"
     transform="translate(119.8915,-51.88854)"
     style="fill:#0078d6">
    <g
       id="g3346"
       transform="matrix(1.1929076,0,0,1.1929076,10.95579,-22.355715)">
      <polygon
         points="41.727,20.219 41.727,0 18.502,3.389 18.502,20.219 "
         transform="matrix(2.535275,0,0,2.535275,-109.6877,62.23806)"
         id="svg_23" />
      <polygon
         points="16.865,3.627 0,6.087 0,20.219 16.865,20.219 "
         transform="matrix(2.535275,0,0,2.535275,-109.6877,62.23806)"
         id="svg_24" />
      <polygon
         points="0,21.855 0,36.167 16.865,38.655 16.865,21.855 "
         transform="matrix(2.535275,0,0,2.535275,-109.6877,62.23806)"
         id="svg_25" />
      <polygon
         points="18.502,38.897 41.727,42.323 41.727,21.855 18.502,21.855 "
         transform="matrix(2.535275,0,0,2.535275,-109.6877,62.23806)"
         id="svg_26" />
    </g>
  </g>
</svg>
