<?xml version="1.0" encoding="UTF-8" standalone="no"?>
<svg
   version="1.1"
   width="128"
   height="128"
   id="svg6649"
   xml:space="preserve"
   xmlns:xlink="http://www.w3.org/1999/xlink"
   xmlns="http://www.w3.org/2000/svg"
   xmlns:svg="http://www.w3.org/2000/svg"
   xmlns:rdf="http://www.w3.org/1999/02/22-rdf-syntax-ns#"
   xmlns:cc="http://creativecommons.org/ns#"
   xmlns:dc="http://purl.org/dc/elements/1.1/"><defs
     id="defs6651"><linearGradient
       id="linearGradient854"><stop
         style="stop-color:#ffa154;stop-opacity:1"
         offset="0"
         id="stop850" /><stop
         style="stop-color:#f37329;stop-opacity:1"
         offset="1"
         id="stop852" /></linearGradient><linearGradient
       id="linearGradient3820-7-2"><stop
         offset="0"
         style="stop-color:#000000;stop-opacity:1"
         id="stop3822-2-6" /><stop
         offset="1"
         style="stop-color:#000000;stop-opacity:0"
         id="stop3824-1-2" /></linearGradient><linearGradient
       xlink:href="#linearGradient854"
       id="linearGradient1096"
       gradientUnits="userSpaceOnUse"
       gradientTransform="matrix(0.79668752,0,0,0.59560044,-1595.0815,-1867.7482)"
       x1="2070.2151"
       y1="3067.7688"
       x2="2165.7354"
       y2="3195.5386" /><linearGradient
       y2="40.422989"
       x2="76.26046"
       y1="14.415852"
       x1="76.26046"
       gradientTransform="matrix(4.1006713,0,0,4.1030683,-208.71907,-47.858285)"
       gradientUnits="userSpaceOnUse"
       id="linearGradient4403"
       xlink:href="#linearGradient4320" /><linearGradient
       id="linearGradient4320"><stop
         id="stop4322"
         style="stop-color:#ffffff;stop-opacity:1"
         offset="0" /><stop
         id="stop4324"
         style="stop-color:#ffffff;stop-opacity:0.23529412"
         offset="0.44727278" /><stop
         id="stop4326"
         style="stop-color:#ffffff;stop-opacity:0.15686275"
         offset="0.79602259" /><stop
         id="stop4328"
         style="stop-color:#ffffff;stop-opacity:0.39215687"
         offset="1" /></linearGradient><radialGradient
       r="62.769119"
       fy="215.49225"
       fx="100.03826"
       cy="186.17059"
       cx="99.157013"
       gradientTransform="matrix(0.36997048,0,0,0.06788373,27.314835,103.80069)"
       gradientUnits="userSpaceOnUse"
       id="radialGradient3163"
       xlink:href="#linearGradient3820-7-2-8-6" /><linearGradient
       id="linearGradient3820-7-2-8-6"><stop
         offset="0"
         style="stop-color:#3d3d3d;stop-opacity:1"
         id="stop3822-2-6-5-0" /><stop
         offset="0.5"
         style="stop-color:#686868;stop-opacity:0.49803922"
         id="stop3864-8-7-4-1" /><stop
         offset="1"
         style="stop-color:#686868;stop-opacity:0"
         id="stop3824-1-2-6-7" /></linearGradient><radialGradient
       xlink:href="#linearGradient3820-7-2"
       id="radialGradient3976"
       gradientUnits="userSpaceOnUse"
       gradientTransform="matrix(1.6187107,0,0,0.16978827,70.521422,100.1321)"
       cx="-4.0287771"
       cy="93.467628"
       fx="-4.0287771"
       fy="93.467628"
       r="35.338131" /></defs><metadata
     id="metadata6654"><rdf:RDF><cc:Work
         rdf:about=""><dc:format>image/svg+xml</dc:format><dc:type
           rdf:resource="http://purl.org/dc/dcmitype/StillImage" /></cc:Work></rdf:RDF></metadata><path
     style="color:#000000;display:inline;overflow:visible;visibility:visible;opacity:0.1;fill:url(#radialGradient3976);fill-opacity:1;fill-rule:nonzero;stroke:none;stroke-width:1;marker:none;enable-background:accumulate"
     id="path3041"
     d="m 121.20221,116.00181 a 57.202211,6 0 0 1 -114.4044172,0 57.202211,6 0 1 1 114.4044172,0 z" /><path
     d="m 87.222724,116.43864 c 0.0027,2.35365 -10.395214,4.26192 -23.222724,4.26192 -12.827507,0 -23.225483,-1.90827 -23.22272,-4.26192 -0.0027,-2.35363 10.6645,-4.2619 23.492008,-4.2619 12.82751,0 22.956198,1.90827 22.953436,4.2619 z"
     id="path3818-0-5-0"
     style="opacity:0.3;fill:url(#radialGradient3163);fill-opacity:1;stroke:none;stroke-width:0.999989" /><rect
     style="font-variation-settings:normal;opacity:1;vector-effect:none;fill:url(#linearGradient1096);fill-opacity:1;stroke:#a62100;stroke-width:0.999996;stroke-linecap:butt;stroke-linejoin:round;stroke-miterlimit:4;stroke-dasharray:none;stroke-dashoffset:0;stroke-opacity:0.5;-inkscape-stroke:none;marker:none;paint-order:normal;stop-color:#000000"
     id="rect444"
     width="83.108322"
     height="83.108322"
     x="48.955505"
     y="-41.554161"
     transform="rotate(45)"
     rx="10"
     ry="10" /><path
     id="rect444-3"
     style="font-variation-settings:normal;vector-effect:none;fill:none;fill-opacity:1;stroke:url(#linearGradient4403);stroke-width:1;stroke-linecap:round;stroke-linejoin:round;stroke-miterlimit:4;stroke-dasharray:none;stroke-dashoffset:0;stroke-opacity:1;-inkscape-stroke:none;marker:none;paint-order:normal;stop-color:#000000;opacity:0.5;stop-opacity:1"
     d="m 70.045004,12.708587 c -2.856137,-2.687039 -7.514228,-3.1107686 -10.803751,-0.973878 -1.810921,1.193688 -3.155266,2.943585 -4.73575,4.406937 -13.931771,13.944669 -27.889892,27.864102 -41.805202,41.824537 -2.7063366,2.879834 -3.1025603,7.587422 -0.912275,10.877302 1.221721,1.78971 2.957621,3.143244 4.42433,4.721861 13.9211,13.908201 27.81696,27.842754 41.753828,41.734494 2.855681,2.68043 7.50703,3.09981 10.792703,0.96559 1.810921,-1.19369 3.155266,-2.94359 4.735745,-4.40694 13.931772,-13.944669 27.889898,-27.8641 41.805208,-41.824536 2.70695,-2.880674 3.10157,-7.58849 0.91141,-10.879007 -1.22145,-1.789282 -2.95754,-3.141708 -4.42347,-4.720154 C 97.870797,40.528862 83.975614,26.60052 70.045004,12.708587 Z" /><path
     id="rect2521-3-7"
     style="font-variation-settings:normal;opacity:0.15;vector-effect:none;fill:#a62100;fill-opacity:1;stroke:none;stroke-width:1;stroke-linecap:butt;stroke-linejoin:miter;stroke-miterlimit:4;stroke-dasharray:none;stroke-dashoffset:0;stroke-opacity:1;-inkscape-stroke:none;marker:none;paint-order:normal;stop-color:#000000;stop-opacity:1"
     d="M 55.226562,35.001953 C 53.011895,34.945348 50.845597,36.845021 51,39.135547 c -0.0013,3.227509 0.0026,6.611687 -0.002,9.741406 0.0034,-2.292415 -2.273579,-4.029676 -4.471484,-3.876953 -2.177157,-0.167405 -4.464144,1.501893 -4.5187,3.775831 -0.0053,10.470647 -0.0287,20.943001 0.01167,31.413622 0.222917,5.372165 3.560873,10.399717 8.308078,12.868825 2.808087,1.539401 6.055871,2.077183 9.230594,1.941722 4.170449,-0.03123 8.344368,0.06288 12.512682,-0.04766 5.806115,-0.352641 11.325587,-4.04853 13.640135,-9.421099 1.072421,-2.337908 1.387454,-4.9389 1.272336,-7.488661 -0.0161,-4.190086 0.05488,-8.384322 -0.01461,-12.571877 C 86.720082,63.268591 84.444467,61.803012 82.326563,62 80.163659,61.90996 77.981822,63.660907 78,65.90625 77.98561,57.778852 78.028737,49.64981 77.978516,41.523438 77.756794,39.340332 75.534969,37.831955 73.426563,38 71.231953,37.865011 68.981283,39.62118 69,41.90625 68.891704,40.38146 69.288574,38.752532 68.625,37.316406 67.795575,35.565466 65.735236,34.785821 63.890625,35.017578 61.877413,35.124337 59.984559,36.827042 60,38.90625 60.018765,36.602397 57.735749,34.845325 55.526562,35 c -0.0999,0.0022 -0.20024,-0.0037 -0.3,0.002 z" /><path
     id="rect2521-3"
     style="font-variation-settings:normal;vector-effect:none;fill:#a62100;fill-opacity:1;stroke:none;stroke-width:1;stroke-linecap:butt;stroke-linejoin:miter;stroke-miterlimit:4;stroke-dasharray:none;stroke-dashoffset:0;stroke-opacity:1;-inkscape-stroke:none;marker:none;paint-order:normal;stop-color:#000000;opacity:0.3;stop-opacity:1"
     d="M 55.273438,36 C 53.459878,36 52,37.308964 52,38.935547 V 66 a 1,1 0 0 1 -1,1 1,1 0 0 1 -1,-1 V 48.935547 C 50,47.308964 48.540122,46 46.726562,46 H 46.273438 C 44.459878,46 43,47.308964 43,48.935547 V 79.410156 C 43,87.49267 49.760294,94 58.158203,94 h 12.683594 c 8.14363,0 14.746233,-6.118484 15.138672,-13.859375 L 86,65.935547 C 86,64.308962 84.540123,63 82.726562,63 H 82.273438 C 80.459877,63 79,64.308962 79,65.935547 V 76 c 0,0.552283 -0.447717,1 -1,1 -0.552283,0 -1,-0.447717 -1,-1 V 41.935547 C 77,40.308965 75.540122,39 73.726562,39 H 73.273438 C 71.459878,39 70,40.308965 70,41.935547 V 63 c 0,0.552284 -0.447716,1 -1,1 -0.552284,0 -1,-0.447716 -1,-1 V 38.935547 C 68,37.308964 66.540122,36 64.726562,36 H 64.273438 C 62.459878,36 61,37.308964 61,38.935547 V 63 c 0,0.552284 -0.447716,1 -1,1 -0.552284,0 -1,-0.447716 -1,-1 V 38.935547 C 59,37.308964 57.540122,36 55.726562,36 Z" /><path
     id="rect2521"
     style="font-variation-settings:normal;opacity:1;vector-effect:none;fill:#ffffff;fill-opacity:1;stroke:none;stroke-width:1;stroke-linecap:butt;stroke-linejoin:miter;stroke-miterlimit:4;stroke-dasharray:none;stroke-dashoffset:0;stroke-opacity:1;-inkscape-stroke:none;marker:none;paint-order:normal;stop-color:#000000;stop-opacity:1"
     d="M 55.273438,35 C 53.459878,35 52,36.308964 52,37.935547 V 65 a 1,1 0 0 1 -1,1 1,1 0 0 1 -1,-1 V 47.935547 C 50,46.308964 48.540122,45 46.726562,45 H 46.273438 C 44.459878,45 43,46.308964 43,47.935547 V 78.410156 C 43,86.49267 49.760294,93 58.158203,93 h 12.683594 c 8.14363,0 14.746233,-6.118484 15.138672,-13.859375 L 86,64.935547 C 86,63.308962 84.540123,62 82.726562,62 H 82.273438 C 80.459877,62 79,63.308962 79,64.935547 V 75 c 0,0.552283 -0.447717,1 -1,1 -0.552283,0 -1,-0.447717 -1,-1 V 40.935547 C 77,39.308965 75.540122,38 73.726562,38 H 73.273438 C 71.459878,38 70,39.308965 70,40.935547 V 62 c 0,0.552284 -0.447716,1 -1,1 -0.552284,0 -1,-0.447716 -1,-1 V 37.935547 C 68,36.308964 66.540122,35 64.726562,35 H 64.273438 C 62.459878,35 61,36.308964 61,37.935547 V 62 c 0,0.552284 -0.447716,1 -1,1 -0.552284,0 -1,-0.447716 -1,-1 V 37.935547 C 59,36.308964 57.540122,35 55.726562,35 Z" /><path
     id="rect2521-2"
     style="font-variation-settings:normal;vector-effect:none;fill:#a62100;fill-opacity:1;stroke:none;stroke-width:1;stroke-linecap:butt;stroke-linejoin:miter;stroke-miterlimit:4;stroke-dasharray:none;stroke-dashoffset:0;stroke-opacity:1;-inkscape-stroke:none;marker:none;paint-order:normal;stop-color:#000000;opacity:0.07;stop-opacity:1"
     d="M 43.40625 81.771484 C 44.976003 88.222221 50.963739 93 58.158203 93 L 70.841797 93 C 78.026956 93 84.005039 88.234796 85.583984 81.796875 C 83.203119 87.023012 77.778668 90.606422 72.070312 90.953125 C 67.902003 91.063665 63.729039 90.96877 59.558594 91 C 56.383874 91.135461 53.136209 90.597993 50.328125 89.058594 C 47.296487 87.481783 44.844152 84.858531 43.40625 81.771484 z " /><path
     id="rect2521-5"
     style="font-variation-settings:normal;vector-effect:none;fill:#a62100;fill-opacity:1;stroke:none;stroke-width:1;stroke-linecap:butt;stroke-linejoin:miter;stroke-miterlimit:4;stroke-dasharray:none;stroke-dashoffset:0;stroke-opacity:1;-inkscape-stroke:none;marker:none;paint-order:normal;stop-color:#000000;opacity:0.07;stop-opacity:1"
     d="M 85.998047 64.923828 L 85.980469 78.140625 C 85.58803 85.881508 78.985419 92 70.841797 92 L 58.158203 92 C 49.760303 92 43 85.492662 43 77.410156 L 43 78.410156 C 43 86.492662 49.760303 93 58.158203 93 L 70.841797 93 C 78.985419 93 85.58803 86.881508 85.980469 79.140625 L 86 64.935547 C 86 64.93151 85.998065 64.927861 85.998047 64.923828 z " /></svg>
