<?xml version="1.0" encoding="UTF-8" standalone="no"?>
<svg
   version="1.1"
   width="64"
   height="64"
   id="svg3489"
   xmlns:xlink="http://www.w3.org/1999/xlink"
   xmlns="http://www.w3.org/2000/svg"
   xmlns:svg="http://www.w3.org/2000/svg"
   xmlns:rdf="http://www.w3.org/1999/02/22-rdf-syntax-ns#"
   xmlns:cc="http://creativecommons.org/ns#"
   xmlns:dc="http://purl.org/dc/elements/1.1/">
  <defs
     id="defs3491">
    <linearGradient
       id="linearGradient4806">
      <stop
         id="stop4808"
         style="stop-color:#ffffff;stop-opacity:1"
         offset="0" />
      <stop
         id="stop4810"
         style="stop-color:#ffffff;stop-opacity:0.23529412"
         offset="0.42447853" />
      <stop
         id="stop4812"
         style="stop-color:#ffffff;stop-opacity:0.15686275"
         offset="0.82089913" />
      <stop
         id="stop4814"
         style="stop-color:#ffffff;stop-opacity:0.39215687"
         offset="1" />
    </linearGradient>
    <linearGradient
       id="linearGradient3820-7-2">
      <stop
         id="stop3822-2-6"
         style="stop-color:#000000;stop-opacity:1"
         offset="0" />
      <stop
         id="stop3824-1-2"
         style="stop-color:#000000;stop-opacity:0"
         offset="1" />
    </linearGradient>
    <linearGradient
       xlink:href="#linearGradient4806"
       id="linearGradient3293"
       gradientUnits="userSpaceOnUse"
       gradientTransform="matrix(2.3268746,0,0,2.3268746,-135.94475,-32.842783)"
       x1="71.204407"
       y1="15.369057"
       x2="71.204407"
       y2="40.495617" />
    <radialGradient
       xlink:href="#linearGradient3820-7-2"
       id="radialGradient3300"
       gradientUnits="userSpaceOnUse"
       gradientTransform="matrix(0.3823536,7.5555777e-8,-1.8372241e-8,0.1115198,-5.9254271,36.335849)"
       cx="99.189415"
       cy="185.29727"
       fx="99.189415"
       fy="185.29727"
       r="62.769119" />
    <radialGradient
       xlink:href="#linearGradient3820-7-2"
       id="radialGradient4192"
       gradientUnits="userSpaceOnUse"
       gradientTransform="matrix(0.2549024,5.3967361e-8,-1.2248161e-8,0.07965545,6.7163816,44.240666)"
       cx="99.189415"
       cy="185.29727"
       fx="99.189415"
       fy="185.29727"
       r="62.769119" />
    <linearGradient
       gradientTransform="matrix(2.261075,0,0,1.6903709,-4577.9225,-5418.7019)"
       gradientUnits="userSpaceOnUse"
       xlink:href="#linearGradient27416-1-5"
       id="linearGradient11527-6-5"
       y2="3241.9966"
       x2="2035.1652"
       y1="3208.0737"
       x1="2035.1652" />
    <linearGradient
       id="linearGradient27416-1-5">
      <stop
         id="stop27420-2-2"
         style="stop-color:#9bdb4d;stop-opacity:1"
         offset="0" />
      <stop
         id="stop27422-3-2"
         style="stop-color:#68b723;stop-opacity:1"
         offset="1" />
    </linearGradient>
  </defs>
  <metadata
     id="metadata3494">
    <rdf:RDF>
      <cc:Work
         rdf:about="">
        <dc:format>image/svg+xml</dc:format>
        <dc:type
           rdf:resource="http://purl.org/dc/dcmitype/StillImage" />
      </cc:Work>
    </rdf:RDF>
  </metadata>
  <g
     id="g4198">
    <path
       d="m 55.999998,57.0017 a 24,6.9985714 0 1 1 -47.9999991,0 24,6.9985714 0 1 1 47.9999991,0 z"
       id="path3818-0"
       style="opacity:0.2;fill:url(#radialGradient3300);fill-opacity:1;stroke:none" />
    <path
       style="opacity:0.4;fill:url(#radialGradient4192);fill-opacity:1;stroke:none"
       id="path4190"
       d="m 47.999998,59.0017 a 16,4.9988822 0 1 1 -31.999999,0 16,4.9988822 0 1 1 31.999999,0 z" />
  </g>
  <path
     style="color:#000000;display:inline;overflow:visible;visibility:visible;opacity:0.98999999;fill:url(#linearGradient11527-6-5);fill-opacity:1.0;fill-rule:nonzero;stroke:none;stroke-width:0.99999988;marker:none;enable-background:accumulate"
     id="path2555-7-8-5-0-9"
     d="M 32.000001,2.499998 C 15.722912,2.499998 2.5,15.722908 2.5,31.999997 2.5,48.277086 15.722912,61.499998 32.000001,61.499998 48.277088,61.499998 61.500027,48.277086 61.5,31.999997 61.5,15.722908 48.277088,2.499998 32.000001,2.499998 Z" />
  <path
     style="opacity:0.5;color:#000000;fill:none;stroke:#206b00;stroke-width:0.99999988;stroke-linecap:round;stroke-linejoin:round;stroke-miterlimit:4;stroke-opacity:1;stroke-dasharray:none;stroke-dashoffset:0;marker:none;visibility:visible;display:inline;overflow:visible;enable-background:accumulate;fill-opacity:1;fill-rule:nonzero;clip-rule:nonzero;isolation:auto;mix-blend-mode:normal;color-interpolation:sRGB;color-interpolation-filters:linearRGB;solid-color:#000000;solid-opacity:1;filter-blend-mode:normal;filter-gaussianBlur-deviation:0;color-rendering:auto;image-rendering:auto;shape-rendering:auto;text-rendering:auto;font-variant-east_asian:normal;vector-effect:none"
     id="path2555-7-1"
     d="m 32,2.499999 c -16.277082,0 -29.5,13.222915 -29.5,29.499998 0,16.277083 13.222918,29.500005 29.5,29.5 16.27708,0 29.50001,-13.222917 29.5,-29.5 C 61.5,15.722914 48.27708,2.499999 32,2.499999 z" />
  <path
     style="opacity:0.5;color:#000000;fill:none;stroke:url(#linearGradient3293);stroke-width:1;stroke-linecap:round;stroke-linejoin:round;stroke-miterlimit:4;stroke-opacity:1;stroke-dasharray:none;stroke-dashoffset:0;marker:none;visibility:visible;display:inline;overflow:visible;enable-background:accumulate"
     id="path3019"
     d="m 60.50001,31.999999 c 0,15.740115 -12.7599,28.499999 -28.50002,28.499999 -15.740099,0 -28.499991,-12.759884 -28.499991,-28.499999 0,-15.740116 12.759892,-28.5000013 28.499991,-28.5000013 15.74012,0 28.50002,12.7598853 28.50002,28.5000013 z" />
  <path
     id="path873-5-3-3-7-4-5-2"
     style="font-variation-settings:normal;opacity:0.07;vector-effect:none;fill:#206b00;fill-opacity:1;stroke:none;stroke-width:1.38095;stroke-linecap:butt;stroke-linejoin:miter;stroke-miterlimit:4;stroke-dasharray:none;stroke-dashoffset:0;stroke-opacity:1;-inkscape-stroke:none;marker:none;stop-color:#000000;stop-opacity:1"
     d="M 29.453125,17.001953 C 27.920285,16.964381 26.837171,18.52494 27,19.966016 27,23.977344 27,27.988672 27,32 c -2.178826,0.03956 -4.368496,-0.07734 -6.541016,0.05469 -2.011339,0.382004 -2.622738,3.288367 -1.099609,4.572265 3.660371,3.915038 7.269047,7.887176 10.961576,11.766692 1.176697,1.040273 3.105677,0.657487 3.962246,-0.60878 3.570034,-3.860551 7.171492,-7.697101 10.722662,-11.571974 1.015836,-1.36846 0.439419,-3.740089 -1.33532,-4.128356 C 42.456563,31.887202 41.185831,32.056278 39.95,32 38.966667,32 37.983333,32 37,32 36.974932,27.723172 37.049936,23.442274 36.962891,19.167969 36.79871,17.846813 35.525908,16.83564 34.2,17 c -1.582263,0.0013 -3.164748,-0.0026 -4.746875,0.002 z" />
  <path
     id="path873-5-3-3-7-4-5"
     style="font-variation-settings:normal;vector-effect:none;fill:#206b00;fill-opacity:1;stroke:none;stroke-width:1.38095;stroke-linecap:butt;stroke-linejoin:miter;stroke-miterlimit:4;stroke-dasharray:none;stroke-dashoffset:0;stroke-opacity:1;-inkscape-stroke:none;stop-color:#000000;opacity:0.2;marker:none;stop-opacity:1"
     d="m 44.500196,34.666892 c 0,-0.923348 -0.354417,-1.442755 -1.250196,-1.666693 H 36 V 19.666693 C 36,18.743345 35.42339,18 34.50004,18 H 29.49996 C 28.57661,18 28.01154,18.743417 28,19.666693 v 13.333506 h -7 c -0.92335,0 -1.5002,0.743345 -1.5002,1.666693 0,0.497647 0.21625,0.941884 0.55991,1.246764 l 10.79769,11.63061 c 0.2985,0.281808 0.69969,0.455735 1.1426,0.455735 0.4429,0 0.8441,-0.173928 1.14259,-0.455735 l 10.7977,-11.63061 c 0.343656,-0.30488 0.559906,-0.749117 0.559906,-1.246764 z" />
  <path
     id="path873-5-3-3-7-4"
     style="font-variation-settings:normal;vector-effect:none;fill:#ffffff;fill-opacity:1;stroke:none;stroke-width:5.33333;stroke-linecap:round;stroke-linejoin:round;stroke-miterlimit:4;stroke-dasharray:none;stroke-dashoffset:0;stroke-opacity:1;-inkscape-stroke:none;stop-color:#000000;opacity:1;stop-opacity:1"
     d="m 44.500196,33.666841 c 0,-0.923348 -0.354417,-1.442755 -1.250196,-1.666693 H 36 V 18.666642 c 0,-0.923348 -0.57661,-1.666693 -1.49996,-1.666693 h -5.00008 c -0.92335,0 -1.48842,0.743417 -1.49996,1.666693 v 13.333506 h -7 c -0.92335,0 -1.5002,0.743345 -1.5002,1.666693 0,0.497647 0.21625,0.941884 0.55991,1.246764 l 10.79769,11.63061 c 0.2985,0.281808 0.69969,0.455735 1.1426,0.455735 0.4429,0 0.8441,-0.173928 1.14259,-0.455735 l 10.7977,-11.63061 c 0.343656,-0.30488 0.559906,-0.749117 0.559906,-1.246764 z" />
  <path
     id="path873-5-3-3-7-4-9"
     style="font-variation-settings:normal;vector-effect:none;fill:#206b00;fill-opacity:1;stroke:none;stroke-width:1.38095;stroke-linecap:butt;stroke-linejoin:miter;stroke-miterlimit:4;stroke-dasharray:none;stroke-dashoffset:0;stroke-opacity:1;-inkscape-stroke:none;stop-color:#000000;opacity:0.07;marker:none;stop-opacity:1"
     d="M 44.439453 33.09375 C 44.354479 33.415254 44.180615 33.700112 43.939453 33.914062 L 33.142578 45.544922 C 32.844088 45.826729 32.4429 46 32 46 C 31.55709 46 31.155922 45.82673 30.857422 45.544922 L 20.060547 33.914062 C 19.830385 33.709873 19.663393 33.440105 19.574219 33.136719 C 19.528902 33.304129 19.5 33.479204 19.5 33.666016 C 19.5 34.163662 19.716887 34.609183 20.060547 34.914062 L 30.857422 46.544922 C 31.155922 46.82673 31.55709 47 32 47 C 32.4429 47 32.844088 46.826729 33.142578 46.544922 L 43.939453 34.914062 C 44.283109 34.609183 44.5 34.163662 44.5 33.666016 C 44.5 33.452993 44.479477 33.265104 44.439453 33.09375 z " />
</svg>
