<?xml version="1.0" encoding="UTF-8" standalone="no"?>
<svg
   id="svg6"
   version="1.1"
   width="24"
   height="24"
   xml:space="preserve"
   sodipodi:docname="io.elementary.settings.svg"
   inkscape:version="1.3.2 (091e20ef0f, 2023-11-25)"
   xmlns:inkscape="http://www.inkscape.org/namespaces/inkscape"
   xmlns:sodipodi="http://sodipodi.sourceforge.net/DTD/sodipodi-0.dtd"
   xmlns="http://www.w3.org/2000/svg"
   xmlns:svg="http://www.w3.org/2000/svg"
   xmlns:rdf="http://www.w3.org/1999/02/22-rdf-syntax-ns#"
   xmlns:cc="http://creativecommons.org/ns#"
   xmlns:dc="http://purl.org/dc/elements/1.1/"><sodipodi:namedview
     id="namedview1"
     pagecolor="#ffffff"
     bordercolor="#000000"
     borderopacity="0.25"
     inkscape:showpageshadow="2"
     inkscape:pageopacity="0.0"
     inkscape:pagecheckerboard="0"
     inkscape:deskcolor="#d1d1d1"
     showgrid="true"
     inkscape:zoom="41.7193"
     inkscape:cx="7.9699324"
     inkscape:cy="10.606602"
     inkscape:window-width="2560"
     inkscape:window-height="1378"
     inkscape:window-x="0"
     inkscape:window-y="30"
     inkscape:window-maximized="1"
     inkscape:current-layer="svg6"><inkscape:grid
       id="grid1"
       units="px"
       originx="0"
       originy="0"
       spacingx="1"
       spacingy="1"
       empcolor="#0099e5"
       empopacity="0.30196078"
       color="#0099e5"
       opacity="0.14901961"
       empspacing="5"
       dotted="false"
       gridanglex="30"
       gridanglez="30"
       visible="true" /></sodipodi:namedview><metadata
     id="metadata12"><rdf:RDF><cc:Work
         rdf:about=""><dc:format>image/svg+xml</dc:format><dc:type
           rdf:resource="http://purl.org/dc/dcmitype/StillImage" /></cc:Work></rdf:RDF></metadata><defs
     id="defs10" /><path
     id="rect1"
     style="font-variation-settings:normal;opacity:1;vector-effect:none;fill:#555761;fill-opacity:1;stroke:none;stroke-width:1.02221;stroke-linecap:round;stroke-linejoin:miter;stroke-miterlimit:4;stroke-dasharray:none;stroke-dashoffset:0;stroke-opacity:1;-inkscape-stroke:none;stop-color:#000000;stop-opacity:1"
     d="m 11.148704,0.99997804 c -0.290794,0 -0.523682,1.27800376 -0.523682,2.86548526 v 0.010739 A 8.2500193,8.2500193 0 0 0 9.1345399,4.2870951 L 9.1238011,4.2682961 C 8.3300564,2.8934957 7.4876906,1.9019462 7.2358538,2.0473438 L 5.7641707,2.8986642 C 5.5123339,3.0440618 5.9479708,4.2684989 6.7417119,5.6432994 l 0.00537,0.00806 A 8.2500193,8.2500193 0 0 0 5.6513825,6.7470626 l -0.00806,-0.00537 C 4.2685216,5.9479503 3.044083,5.5123128 2.8986855,5.7641494 L 2.0473651,7.2358325 C 1.9019677,7.4876691 2.8935184,8.3300359 4.2683175,9.1237764 l 0.018799,0.010739 A 8.2500193,8.2500193 0 0 0 3.8762268,10.625001 h -0.010739 c -1.587485,0 -2.86548875,0.232888 -2.86548875,0.523682 v 1.702642 c 0,0.290795 1.27800375,0.523682 2.86548525,0.523682 h 0.010739 a 8.2500193,8.2500193 0 0 0 0.4108896,1.490482 l -0.018799,0.01072 C 2.8935183,15.669964 1.9019676,16.512334 2.047365,16.764171 l 0.8513204,1.471682 c 0.1453975,0.251838 1.3698361,-0.183804 2.7446352,-0.97754 l 0.00806,-0.0054 a 8.2500193,8.2500193 0 0 0 1.0957056,1.095707 l -0.00537,0.0081 c -0.7937452,1.374853 -1.2293827,2.599292 -0.977546,2.744691 l 1.471683,0.851318 c 0.2518366,0.145399 1.0942035,-0.846153 1.8879439,-2.220951 l 0.010739,-0.01879 a 8.2500193,8.2500193 0 0 0 1.4904899,0.41082 v 0.01072 c 0,1.587493 0.232888,2.865503 0.523682,2.865503 h 1.702642 c 0.290795,0 0.523682,-1.27801 0.523682,-2.865485 v -0.01072 a 8.2500193,8.2500193 0 0 0 1.490482,-0.410889 l 0.01072,0.01879 c 0.793739,1.3748 1.636107,2.36635 1.887944,2.220951 l 1.471683,-0.851318 c 0.251837,-0.145399 -0.183803,-1.369837 -0.977541,-2.744636 l -0.0054,-0.0081 a 8.2500193,8.2500193 0 0 0 1.095707,-1.095707 l 0.0081,0.0054 c 1.374798,0.793736 2.599237,1.229378 2.744636,0.977541 l 0.851318,-1.471683 C 22.09808,16.512338 21.106528,15.669968 19.73173,14.876231 l -0.01879,-0.01072 a 8.2500193,8.2500193 0 0 0 0.410838,-1.490449 h 0.01072 c 1.587493,0 2.865503,-0.232887 2.865503,-0.523682 v -1.702642 c 0,-0.290794 -1.27801,-0.523682 -2.865485,-0.523682 h -0.0028 a 8.2500193,8.2500193 0 0 0 -0.40267,-1.5012796 h 0.0028 C 21.106577,8.3300359 22.098129,7.4876691 21.95273,7.2358325 L 21.101365,5.7641494 C 20.955967,5.5123128 19.731528,5.9479503 18.35673,6.7416906 A 8.2500193,8.2500193 0 0 0 17.258339,5.6432994 c 0.793736,-1.3747991 1.229378,-2.5992377 0.97754,-2.7446352 L 16.764197,2.0473438 C 16.51236,1.9019464 15.66999,2.8934971 14.876252,4.2682962 v 0.00269 A 8.2500193,8.2500193 0 0 0 13.375028,3.8681489 v -0.00269 c 0,-1.5874858 -0.232887,-2.86548955 -0.523682,-2.86548955 z m 0.851321,4.15186516 a 6.8750161,6.8750161 0 0 1 6.875016,6.8750158 6.8750161,6.8750161 0 0 1 -0.206788,1.573735 l -3.26026,-1.187015 a 3.437508,3.437508 0 0 0 0.02954,-0.413575 3.437508,3.437508 0 0 0 -3.24952,-3.4321372 L 11.589136,5.1867555 a 6.8750161,6.8750161 0 0 1 0.410889,-0.034912 z m -1.955082,0.3088387 0.598878,3.3864825 A 3.437508,3.437508 0 0 0 8.5625171,12.000004 3.437508,3.437508 0 0 0 8.9384946,13.549568 L 6.2744258,15.789319 A 6.8750161,6.8750161 0 0 1 5.125009,12.026859 6.8750161,6.8750161 0 0 1 10.044943,5.4606819 Z m 1.955082,4.4768171 a 2.0625048,2.0625048 0 0 1 2.062505,2.062505 2.0625048,2.0625048 0 0 1 -2.062505,2.062505 2.0625048,2.0625048 0 0 1 -2.0625047,-2.062505 2.0625048,2.0625048 0 0 1 2.0625047,-2.062505 z m 2.870857,3.95045 3.262948,1.192384 a 6.8750161,6.8750161 0 0 1 -6.133805,3.821542 6.8750161,6.8750161 0 0 1 -4.7158313,-1.904056 l 2.6721256,-2.245123 a 3.437508,3.437508 0 0 0 2.0437057,0.684817 3.437508,3.437508 0 0 0 2.870857,-1.549564 z" /></svg>
