<?xml version="1.0" encoding="UTF-8" standalone="no"?>
<svg
   id="svg4379"
   height="128"
   width="128"
   version="1.1"
   xmlns:xlink="http://www.w3.org/1999/xlink"
   xmlns="http://www.w3.org/2000/svg"
   xmlns:svg="http://www.w3.org/2000/svg"
   xmlns:rdf="http://www.w3.org/1999/02/22-rdf-syntax-ns#"
   xmlns:cc="http://creativecommons.org/ns#"
   xmlns:dc="http://purl.org/dc/elements/1.1/">
  <defs
     id="defs4381">
    <linearGradient
       gradientTransform="matrix(2.7297298,0,0,2.7297298,-1.5135124,1.486514)"
       gradientUnits="userSpaceOnUse"
       xlink:href="#linearGradient3924-776"
       id="linearGradient3159"
       y2="43"
       x2="23.99999"
       y1="4.999989"
       x1="23.99999" />
    <linearGradient
       id="linearGradient3924-776">
      <stop
         offset="0"
         style="stop-color:#ffffff;stop-opacity:1"
         id="stop3124" />
      <stop
         offset="0.06316455"
         style="stop-color:#ffffff;stop-opacity:0.23529412"
         id="stop3126" />
      <stop
         offset="0.95056331"
         style="stop-color:#ffffff;stop-opacity:0.15686275"
         id="stop3128" />
      <stop
         offset="1"
         style="stop-color:#ffffff;stop-opacity:0.39215687"
         id="stop3130" />
    </linearGradient>
    <radialGradient
       gradientTransform="matrix(2.003784,0,0,1.4,27.98813,-17.4)"
       gradientUnits="userSpaceOnUse"
       xlink:href="#linearGradient3688-166-749-5"
       id="radialGradient2455-1"
       fy="43.5"
       fx="4.9929786"
       r="2.5"
       cy="43.5"
       cx="4.9929786" />
    <linearGradient
       id="linearGradient3688-166-749-5">
      <stop
         offset="0"
         style="stop-color:#181818;stop-opacity:1"
         id="stop2883-0" />
      <stop
         offset="1"
         style="stop-color:#181818;stop-opacity:0"
         id="stop2885-5" />
    </linearGradient>
    <radialGradient
       gradientTransform="matrix(2.003784,0,0,1.4,-20.01187,-104.4)"
       gradientUnits="userSpaceOnUse"
       xlink:href="#linearGradient3688-464-309-8"
       id="radialGradient2457-5"
       fy="43.5"
       fx="4.9929786"
       r="2.5"
       cy="43.5"
       cx="4.9929786" />
    <linearGradient
       id="linearGradient3688-464-309-8">
      <stop
         offset="0"
         style="stop-color:#181818;stop-opacity:1"
         id="stop2889-9" />
      <stop
         offset="1"
         style="stop-color:#181818;stop-opacity:0"
         id="stop2891-4" />
    </linearGradient>
    <linearGradient
       gradientUnits="userSpaceOnUse"
       xlink:href="#linearGradient3702-501-757-0"
       id="linearGradient2459-7"
       y2="39.999443"
       x2="25.058096"
       y1="47.027729"
       x1="25.058096" />
    <linearGradient
       id="linearGradient3702-501-757-0">
      <stop
         offset="0"
         style="stop-color:#181818;stop-opacity:0"
         id="stop2895-0" />
      <stop
         offset="0.5"
         style="stop-color:#181818;stop-opacity:1"
         id="stop2897-2" />
      <stop
         offset="1"
         style="stop-color:#181818;stop-opacity:0"
         id="stop2899-6" />
    </linearGradient>
    <linearGradient
       id="linearGradient3811">
      <stop
         offset="0"
         style="stop-color:#000000;stop-opacity:1"
         id="stop3813" />
      <stop
         offset="1"
         style="stop-color:#000000;stop-opacity:0"
         id="stop3815" />
    </linearGradient>
    <radialGradient
       gradientTransform="matrix(1.5563924,0,0,0.16978827,70.270358,102.13029)"
       gradientUnits="userSpaceOnUse"
       xlink:href="#linearGradient3811"
       id="radialGradient4377"
       fy="93.467628"
       fx="-4.0287771"
       r="35.338131"
       cy="93.467628"
       cx="-4.0287771" />
    <linearGradient
       xlink:href="#linearGradient854"
       id="linearGradient2491"
       gradientUnits="userSpaceOnUse"
       gradientTransform="matrix(1.4102564,0,0,1.4102564,-145.02103,-3.256405)"
       x1="144.70828"
       y1="13.344363"
       x2="144.70828"
       y2="86.548424" />
    <linearGradient
       id="linearGradient854">
      <stop
         style="stop-color:#64baff;stop-opacity:1"
         offset="0"
         id="stop850" />
      <stop
         style="stop-color:#3689e6;stop-opacity:1"
         offset="1"
         id="stop852" />
    </linearGradient>
    <radialGradient
       gradientTransform="matrix(2.4557192,0,0,0.70156709,-59.717787,116.18172)"
       gradientUnits="userSpaceOnUse"
       xlink:href="#linearGradient3811"
       id="radialGradient3384"
       fy="4.625"
       fx="62.625"
       r="10.625"
       cy="4.625"
       cx="62.625" />
    <linearGradient
       gradientTransform="matrix(1.3783784,0,0,1.3783785,-4.8759486,62.048128)"
       gradientUnits="userSpaceOnUse"
       xlink:href="#linearGradient4011-7-0"
       id="linearGradient3306"
       y2="42.883553"
       x2="71.204407"
       y1="7.8309216"
       x1="71.204407" />
    <linearGradient
       id="linearGradient4011-7-0">
      <stop
         offset="0"
         style="stop-color:#ffffff;stop-opacity:1"
         id="stop4013-4" />
      <stop
         offset="0.507761"
         style="stop-color:#ffffff;stop-opacity:0.23529412"
         id="stop4015-61" />
      <stop
         offset="0.83456558"
         style="stop-color:#ffffff;stop-opacity:0.15686275"
         id="stop4017-2" />
      <stop
         offset="1"
         style="stop-color:#ffffff;stop-opacity:0.39215687"
         id="stop4019-2" />
    </linearGradient>
    <linearGradient
       id="linearGradient27416-1-5">
      <stop
         id="stop27420-2-2"
         style="stop-color:#9bdb4d;stop-opacity:1"
         offset="0" />
      <stop
         id="stop27422-3-2"
         style="stop-color:#68b723;stop-opacity:1"
         offset="1" />
    </linearGradient>
    <linearGradient
       xlink:href="#linearGradient27416-1-5"
       id="linearGradient1473"
       gradientUnits="userSpaceOnUse"
       gradientTransform="matrix(0.57484957,0,0,0.4297553,-1003.9262,-1279.1601)"
       x1="1909.7959"
       y1="3141.8025"
       x2="1909.7959"
       y2="3263.3521" />
  </defs>
  <metadata
     id="metadata4384">
    <rdf:RDF>
      <cc:Work
         rdf:about="">
        <dc:format>image/svg+xml</dc:format>
        <dc:type
           rdf:resource="http://purl.org/dc/dcmitype/StillImage" />
      </cc:Work>
    </rdf:RDF>
  </metadata>
  <path
     d="M 119,118 A 55,6 0 0 1 9.0000016,118 55,6 0 1 1 119,118 Z"
     id="path3041"
     style="color:#000000;display:inline;overflow:visible;visibility:visible;opacity:0.2;fill:url(#radialGradient4377);fill-opacity:1;fill-rule:nonzero;stroke:none;stroke-width:1;marker:none;enable-background:accumulate" />
  <g
     transform="matrix(2.6999989,0,0,0.55555607,-0.8000019,94.888882)"
     id="g2036"
     style="display:inline">
    <g
       transform="matrix(1.052632,0,0,1.285713,-1.263158,-13.42854)"
       id="g3712"
       style="opacity:0.4">
      <rect
         width="5"
         height="7"
         x="38"
         y="40"
         id="rect2801"
         style="fill:url(#radialGradient2455-1);fill-opacity:1;stroke:none" />
      <rect
         width="5"
         height="7"
         x="-10"
         y="-47"
         transform="scale(-1,-1)"
         id="rect3696"
         style="fill:url(#radialGradient2457-5);fill-opacity:1;stroke:none" />
      <rect
         width="28"
         height="7.0000005"
         x="10"
         y="40"
         id="rect3700"
         style="fill:url(#linearGradient2459-7);fill-opacity:1;stroke:none" />
    </g>
  </g>
  <rect
     width="103"
     height="103"
     rx="10"
     ry="10"
     x="12.5"
     y="15.5"
     id="rect5505-21-3"
     style="color:#000000;display:inline;overflow:visible;visibility:visible;fill:url(#linearGradient2491);fill-opacity:1;fill-rule:nonzero;stroke:#002e99;stroke-width:0.99999853;marker:none;enable-background:accumulate;font-variation-settings:normal;opacity:1;vector-effect:none;stroke-linecap:butt;stroke-linejoin:miter;stroke-miterlimit:4;stroke-dasharray:none;stroke-dashoffset:0;stroke-opacity:0.5;-inkscape-stroke:none;stop-color:#000000;stop-opacity:1" />
  <rect
     width="101"
     height="101"
     rx="9"
     ry="9"
     x="13.5"
     y="16.5"
     id="rect6741-7"
     style="opacity:0.3;fill:none;stroke:url(#linearGradient3159);stroke-width:1;stroke-linecap:round;stroke-linejoin:round;stroke-miterlimit:4;stroke-dasharray:none;stroke-dashoffset:0;stroke-opacity:1" />
  <path
     style="color:#000000;display:inline;overflow:visible;visibility:visible;fill:#002e99;fill-opacity:1;fill-rule:nonzero;stroke:none;stroke-width:0.999996;marker:none;enable-background:accumulate;opacity:0.15"
     id="path2993-7"
     d="m 64.000009,28 c -22.091393,0 -40.000008,17.906933 -40.000008,39.996246 0,22.089361 17.908615,39.996274 40.000008,39.996274 C 86.091388,107.99252 104,90.085607 104,67.996246 104,45.906933 86.091388,28 64.000009,28 Z m 0,3.333019 c 16.795657,0 30.953842,11.292073 35.295827,26.697495 -3.739749,7.712915 -9.061149,14.657274 -15.541666,20.268945 -3.113164,2.695747 -6.512115,5.098941 -10.266677,6.791032 -3.754544,1.692091 -7.884268,2.652165 -11.995832,2.416442 -3.089073,-0.177122 -6.140604,-1.037573 -8.845826,-2.537261 7.169339,-3.884473 13.638111,-9.063627 18.933328,-15.265253 3.475669,-4.070627 6.516619,-8.69676 7.687505,-13.919528 0.585434,-2.611379 0.684649,-5.346248 0.1375,-7.96592 -0.547148,-2.619668 -1.758488,-5.116101 -3.591656,-7.066002 -1.790917,-1.904932 -4.141954,-3.254304 -6.662514,-3.949627 -2.520559,-0.69532 -5.202876,-0.74916 -7.774989,-0.279147 -5.144264,0.940028 -9.737134,3.929493 -13.420834,7.640945 -6.493065,6.541971 -10.507156,15.772814 -9.770842,24.960161 0.368157,4.593668 1.907699,9.107576 4.54584,12.886308 0.588861,0.843421 1.236244,1.646843 1.929158,2.408106 -3.843178,1.344875 -7.822485,2.302204 -11.85833,2.8414 -3.465033,-5.598474 -5.466668,-12.197189 -5.466668,-19.264877 0,-20.24854 16.416234,-36.663225 36.666676,-36.663225 z m 0.233324,7.407639 c 2.577524,0.0035 5.172561,0.783733 7.229176,2.337279 1.852904,1.399676 3.225852,3.390941 4.004157,5.578643 0.778306,2.187702 0.978051,4.563425 0.712502,6.87019 -0.5311,4.613543 -2.858715,8.844521 -5.670823,12.540487 -4.979207,6.544181 -11.59758,11.781998 -18.958345,15.448568 -0.753436,0.3753 -1.518808,0.732018 -2.287495,1.074901 -1.601641,-1.401453 -2.974421,-3.063711 -4.020834,-4.916225 -2.186501,-3.870937 -2.907545,-8.469219 -2.483331,-12.894621 0.424212,-4.425392 1.943039,-8.690534 3.983328,-12.64048 2.365622,-4.579779 5.590176,-8.917818 10.10416,-11.407267 2.256992,-1.244712 4.809981,-1.994966 7.387505,-1.991475 z m 36.104177,24.347713 c 0.21482,1.605514 0.32916,3.243572 0.32916,4.907875 0,20.248534 -16.416219,36.663254 -36.666661,36.663254 -11.372853,0 -21.537036,-5.176862 -28.2625,-13.302929 4.151145,-0.942746 8.208394,-2.296868 12.099994,-4.020454 1.701839,1.295961 3.581297,2.358857 5.579169,3.124702 5.753473,2.205546 12.285583,1.88641 18.108325,-0.129167 5.82276,-2.01556 10.98624,-5.633308 15.487505,-9.840742 5.362186,-5.012217 9.883211,-10.919938 13.325008,-17.402552 z" />
  <path
     id="path2993-7-5"
     style="color:#000000;display:inline;overflow:visible;visibility:visible;opacity:0.07;fill:#002e99;fill-opacity:1;fill-rule:nonzero;stroke:none;stroke-width:0.999996;marker:none;enable-background:accumulate"
     d="m 62.953125,27.013672 c -10.206,0.212718 -20.249368,4.443349 -27.534528,11.59361 -7.490033,7.221375 -12.039611,17.389794 -12.38486,27.792748 -0.440989,10.161311 3.09795,20.424388 9.724703,28.142171 6.850086,8.122269 16.967324,13.395449 27.561866,14.283279 10.231686,0.95987 20.776783,-2.11506 28.856762,-8.4734 C 97.610467,93.83504 103.32591,83.915816 104.65316,73.333173 105.99665,63.284998 103.45618,52.769407 97.592157,44.490616 91.366983,35.533153 81.434024,29.247023 70.652241,27.540412 68.110145,27.121997 65.528338,26.952817 62.953125,27.013672 Z m 1.048828,5.320312 c 7.078231,-0.03257 14.323379,2.179867 20.226779,6.292646 6.685387,4.587266 11.728809,11.518877 13.995877,19.306964 C 93.755561,66.979399 87.104097,74.989254 78.87157,80.844933 73.704909,84.49932 67.403407,87.004321 60.986328,86.466797 58.856727,86.283147 56.752969,85.766014 54.792969,84.910156 62.747712,80.29078 69.847528,74.104218 75.243907,66.63582 78.63907,61.899213 81.093518,56.169733 80.723747,50.243098 80.497677,45.189281 77.866378,40.160093 73.437169,37.570465 68.548834,34.574711 62.267711,34.615951 57.057418,36.744522 c -6.200481,2.534533 -11.233815,7.398819 -14.795699,12.995712 -4.320245,6.838345 -6.30864,15.34776 -4.492225,23.317957 0.854161,3.953735 2.667135,7.756523 5.144568,10.892981 -3.131371,1.001341 -6.342547,1.757946 -9.597656,2.222656 -5.55316,-9.216034 -6.519041,-20.996449 -2.601135,-31.010017 3.702391,-9.738646 11.908741,-17.623239 21.787202,-20.93583 3.694082,-1.260691 7.597111,-1.894591 11.49948,-1.893997 z m 0.226563,7.40625 c 3.579281,-0.03657 7.192996,1.726304 9.092718,4.810949 2.551863,3.945302 2.409845,9.082237 0.748565,13.341265 -1.207809,3.199602 -3.12604,6.064743 -5.226741,8.677914 -5.176549,6.384823 -11.935143,11.419868 -19.393839,14.835888 -3.774251,-3.443448 -5.718461,-8.557351 -5.795647,-13.610475 -0.09902,-3.334888 0.575373,-6.715787 1.638005,-9.784158 1.670483,-4.640752 4.01417,-9.135147 7.40249,-12.758803 2.975599,-3.174971 7.096404,-5.507274 11.534449,-5.51258 z m 35.416015,27.03125 c 0.367529,9.320675 -3.136295,18.708524 -9.52478,25.505407 -6.414484,6.965123 -15.701424,11.172769 -25.171393,11.369959 -9.136976,0.28347 -18.312469,-3.13588 -25.026493,-9.340978 -0.817061,-0.751919 -1.604429,-1.537359 -2.347646,-2.362513 3.461337,-0.887154 6.855174,-2.039483 10.132812,-3.46289 4.502341,3.332374 10.217568,4.797247 15.776588,4.459159 7.506094,-0.384643 14.544954,-3.801207 20.361542,-8.412743 6.31702,-5.005772 11.659463,-11.219111 15.779839,-18.140166 0.0065,0.128255 0.01302,0.25651 0.01953,0.384765 z" />
  <path
     style="color:#000000;display:inline;overflow:visible;visibility:visible;fill:#ffffff;fill-opacity:1;fill-rule:nonzero;stroke:none;stroke-width:0.999996;marker:none;enable-background:accumulate"
     id="path2993"
     d="m 64.000009,27.003741 c -22.091393,0 -40.000008,17.906933 -40.000008,39.996246 0,22.089361 17.908615,39.996273 40.000008,39.996273 C 86.091388,106.99626 104,89.089348 104,66.999987 104,44.910674 86.091388,27.003741 64.000009,27.003741 Z m 0,3.333019 c 16.795657,0 30.953842,11.292073 35.295827,26.697495 -3.739749,7.712915 -9.061149,14.657274 -15.541666,20.268945 -3.113164,2.695747 -6.512115,5.098941 -10.266677,6.791032 -3.754544,1.692091 -7.884268,2.652165 -11.995832,2.416442 -3.089073,-0.177122 -6.140604,-1.037573 -8.845826,-2.537261 7.169339,-3.884473 13.638111,-9.063627 18.933328,-15.265253 3.475669,-4.070627 6.516619,-8.69676 7.687505,-13.919528 0.585434,-2.611379 0.684649,-5.346248 0.1375,-7.96592 -0.547148,-2.619668 -1.758488,-5.116101 -3.591656,-7.066002 -1.790917,-1.904932 -4.141954,-3.254304 -6.662514,-3.949627 -2.520559,-0.69532 -5.202876,-0.74916 -7.774989,-0.279147 -5.144264,0.940028 -9.737134,3.929493 -13.420834,7.640945 -6.493065,6.541971 -10.507156,15.772814 -9.770842,24.960161 0.368157,4.593668 1.907699,9.107576 4.54584,12.886308 0.588861,0.843421 1.236244,1.646843 1.929158,2.408106 -3.843178,1.344875 -7.822485,2.302204 -11.85833,2.8414 -3.465033,-5.598474 -5.466668,-12.197189 -5.466668,-19.264877 0,-20.24854 16.416234,-36.663225 36.666676,-36.663225 z m 0.233324,7.407639 c 2.577524,0.0035 5.172561,0.783733 7.229176,2.337279 1.852904,1.399676 3.225852,3.390941 4.004157,5.578643 0.778306,2.187702 0.978051,4.563425 0.712502,6.87019 -0.5311,4.613543 -2.858715,8.844521 -5.670823,12.540487 -4.979207,6.544181 -11.59758,11.781998 -18.958345,15.448568 -0.753436,0.3753 -1.518808,0.732018 -2.287495,1.074901 -1.601641,-1.401453 -2.974421,-3.063711 -4.020834,-4.916225 -2.186501,-3.870937 -2.907545,-8.469219 -2.483331,-12.894621 0.424212,-4.425392 1.943039,-8.690534 3.983328,-12.64048 2.365622,-4.579779 5.590176,-8.917818 10.10416,-11.407267 2.256992,-1.244712 4.809981,-1.994966 7.387505,-1.991475 z m 36.104177,24.347713 c 0.21482,1.605514 0.32916,3.243572 0.32916,4.907875 0,20.248534 -16.416219,36.663253 -36.666661,36.663253 -11.372853,0 -21.537036,-5.176861 -28.2625,-13.302928 4.151145,-0.942746 8.208394,-2.296868 12.099994,-4.020454 1.701839,1.295961 3.581297,2.358857 5.579169,3.124702 5.753473,2.205546 12.285583,1.88641 18.108325,-0.129167 5.82276,-2.01556 10.98624,-5.633308 15.487505,-9.840742 5.362186,-5.012217 9.883211,-10.919938 13.325008,-17.402552 z" />
  <path
     id="path2993-9"
     style="color:#000000;display:inline;overflow:visible;visibility:visible;fill:#002e99;fill-opacity:1;fill-rule:nonzero;stroke:none;stroke-width:0.999996;marker:none;enable-background:accumulate;font-variation-settings:normal;opacity:0.05;vector-effect:none;stroke-linecap:butt;stroke-linejoin:miter;stroke-miterlimit:4;stroke-dasharray:none;stroke-dashoffset:0;stroke-opacity:1;-inkscape-stroke:none;stop-color:#000000;stop-opacity:1"
     d="M 64.001953 28.333984 C 60.099588 28.33339 56.196031 28.967826 52.501953 30.228516 C 42.623502 33.541103 34.417231 41.425426 30.714844 51.164062 C 30.41233 51.937242 30.148714 52.723372 29.904297 53.515625 C 35.278351 39.942021 48.51314 30.335938 64 30.335938 C 79.455248 30.335938 92.671272 39.901892 98.066406 53.431641 C 95.73134 45.849104 90.769182 39.114917 84.228516 34.626953 C 78.325122 30.514178 71.080177 28.301414 64.001953 28.333984 z M 64.228516 35.740234 C 59.790475 35.74554 55.668955 38.076985 52.693359 41.251953 C 49.305043 44.875606 46.961497 49.370971 45.291016 54.011719 C 45.188477 54.3078 45.108634 54.618342 45.013672 54.919922 C 45.530311 53.634395 46.107286 52.371731 46.742188 51.142578 C 49.107807 46.562804 52.331724 42.225775 56.845703 39.736328 C 59.102693 38.491617 61.6549 37.74065 64.232422 37.744141 C 66.809943 37.747641 69.406278 38.528487 71.462891 40.082031 C 72.915065 41.178998 74.06569 42.641902 74.873047 44.275391 C 74.558239 42.968477 74.067157 41.705438 73.320312 40.550781 C 71.420592 37.466139 67.807793 35.703664 64.228516 35.740234 z M 78.925781 56.044922 C 77.964162 58.380086 76.700963 60.6043 75.244141 62.636719 C 69.847767 70.105109 62.747704 76.290785 54.792969 80.910156 C 55.401126 81.175715 56.025888 81.397163 56.658203 81.597656 C 62.230359 78.062291 67.294548 73.72809 71.580078 68.708984 C 74.773002 64.969503 77.579368 60.753893 78.925781 56.044922 z M 99.625 62.386719 C 95.504628 69.307767 90.162717 75.521577 83.845703 80.527344 C 78.029121 85.138875 70.990461 88.554811 63.484375 88.939453 C 57.925361 89.277541 52.209368 87.812839 47.707031 84.480469 C 44.429397 85.903874 41.035552 87.056206 37.574219 87.943359 C 38.057678 88.480118 38.565187 88.995146 39.082031 89.5 C 42.069542 88.652132 44.998843 87.597255 47.837891 86.339844 C 49.539728 87.635803 51.418146 88.699 53.416016 89.464844 C 59.169483 91.670388 65.702654 91.351512 71.525391 89.335938 C 77.348145 87.32038 82.510458 83.70157 87.011719 79.494141 C 92.03142 74.802055 96.30223 69.31891 99.652344 63.320312 C 99.648106 63.13738 99.651743 62.954385 99.644531 62.771484 C 99.63802 62.64323 99.6315 62.514974 99.625 62.386719 z M 39.214844 73.634766 C 39.896157 75.939613 40.889943 78.145877 42.181641 80.169922 C 42.42522 80.095293 42.671425 80.028762 42.914062 79.951172 C 41.414205 78.052335 40.162312 75.907688 39.214844 73.634766 z M 25.777344 78.820312 C 30.818874 95.139482 46.023733 106.99609 64 106.99609 C 81.916613 106.99609 97.079925 95.217854 102.17188 78.982422 C 99.485708 85.78673 94.974064 91.872359 89.177734 96.351562 C 81.097763 102.7099 70.551988 105.78604 60.320312 104.82617 C 49.725781 103.93834 39.607892 98.66523 32.757812 90.542969 C 29.77701 87.071407 27.427424 83.080951 25.777344 78.820312 z " />
  <path
     id="path2993-35"
     style="color:#000000;display:inline;overflow:visible;visibility:visible;fill:#002e99;fill-opacity:1;fill-rule:nonzero;stroke:none;stroke-width:0.999996;marker:none;enable-background:accumulate;font-variation-settings:normal;opacity:0.07;vector-effect:none;stroke-linecap:butt;stroke-linejoin:miter;stroke-miterlimit:4;stroke-dasharray:none;stroke-dashoffset:0;stroke-opacity:1;-inkscape-stroke:none;stop-color:#000000;stop-opacity:1"
     d="M 64 29.333984 C 43.749578 29.333984 27.333984 45.747574 27.333984 65.996094 C 27.333984 66.136648 27.346077 66.273883 27.347656 66.414062 C 27.662016 46.43691 43.946101 30.335938 64 30.335938 C 80.564043 30.335938 94.555773 41.322585 99.103516 56.402344 C 99.165118 56.277421 99.234153 56.156581 99.294922 56.03125 C 94.952941 40.625843 80.79564 29.333984 64 29.333984 z M 64.232422 36.740234 C 61.6549 36.736743 59.102693 37.487711 56.845703 38.732422 C 52.331724 41.221868 49.107807 45.558897 46.742188 50.138672 C 44.701901 54.088614 43.182024 58.353909 42.757812 62.779297 C 42.674618 63.647187 42.650887 64.522086 42.658203 65.396484 C 42.675424 64.857363 42.706465 64.318855 42.757812 63.783203 C 43.182024 59.357816 44.701901 55.09252 46.742188 51.142578 C 49.107807 46.562804 52.331724 42.225775 56.845703 39.736328 C 59.102693 38.491617 61.6549 37.74065 64.232422 37.744141 C 66.809943 37.747641 69.406278 38.528487 71.462891 40.082031 C 73.315793 41.481706 74.688493 43.472456 75.466797 45.660156 C 75.983702 47.1131 76.223974 48.64983 76.263672 50.193359 C 76.330807 48.314928 76.095948 46.424699 75.466797 44.65625 C 74.688493 42.46855 73.315793 40.4778 71.462891 39.078125 C 69.406278 37.524581 66.809943 36.743734 64.232422 36.740234 z M 79.736328 50.109375 C 79.689187 51.344858 79.538015 52.578848 79.267578 53.785156 C 78.096693 59.007919 75.055744 63.634455 71.580078 67.705078 C 66.284866 73.906698 59.815816 79.084281 52.646484 82.96875 C 52.949212 83.136573 53.25739 83.293562 53.568359 83.445312 C 60.367236 79.62247 66.514856 74.641246 71.580078 68.708984 C 75.055744 64.638361 78.096693 60.011825 79.267578 54.789062 C 79.611366 53.255569 79.760312 51.679703 79.736328 50.109375 z M 100.33789 61.087891 C 96.896097 67.570498 92.373899 73.478022 87.011719 78.490234 C 82.510458 82.697664 77.348145 86.316473 71.525391 88.332031 C 65.702654 90.347606 59.169483 90.666481 53.416016 88.460938 C 51.418146 87.695093 49.539728 86.631897 47.837891 85.335938 C 43.946295 87.059522 39.889422 88.414677 35.738281 89.357422 C 35.969942 89.637326 36.215349 89.904919 36.455078 90.177734 C 40.355283 89.244833 44.171721 87.963587 47.837891 86.339844 C 49.539728 87.635803 51.418146 88.699 53.416016 89.464844 C 59.169483 91.670388 65.702654 91.351512 71.525391 89.335938 C 77.348145 87.32038 82.510458 83.70157 87.011719 79.494141 C 92.373899 74.481929 96.896097 68.574404 100.33789 62.091797 C 100.53433 63.559937 100.63454 65.058422 100.65234 66.576172 C 100.65536 66.382351 100.66602 66.190634 100.66602 65.996094 C 100.66602 64.331792 100.55271 62.693403 100.33789 61.087891 z M 38.111328 65.636719 C 38.10185 66.466706 38.11697 67.297607 38.183594 68.128906 C 38.55175 72.72257 40.090377 77.236897 42.728516 81.015625 C 43.119864 81.576151 43.545144 82.11216 43.984375 82.636719 C 44.208028 82.561379 44.43545 82.497872 44.658203 82.419922 C 43.96529 81.65866 43.317376 80.855139 42.728516 80.011719 C 40.090377 76.232991 38.55175 71.718663 38.183594 67.125 C 38.143836 66.62892 38.123743 66.132622 38.111328 65.636719 z M 24.013672 66.498047 C 24.011598 66.665878 24 66.831677 24 67 C 24 89.089339 41.908629 106.99609 64 106.99609 C 86.091357 106.99609 104 89.089339 104 67 C 104 66.831677 103.9884 66.665878 103.98633 66.498047 C 103.71627 88.355016 85.923019 105.99219 64 105.99219 C 42.076968 105.99219 24.283732 88.355016 24.013672 66.498047 z " />
  <path
     style="display:inline;overflow:visible;visibility:visible;opacity:0.3;fill:url(#radialGradient3384);fill-opacity:1;fill-rule:evenodd;stroke:none;stroke-width:0.999999;marker:none"
     id="path8836"
     d="m 120.16365,119.42647 c 0,4.11682 -11.6818,7.45417 -26.092011,7.45417 -14.410221,0 -26.092008,-3.33735 -26.092008,-7.45417 0,-4.11682 11.681787,-7.45416 26.092008,-7.45416 14.410211,0 26.092011,3.33734 26.092011,7.45416 z" />
  <path
     style="color:#000000;display:inline;overflow:visible;visibility:visible;opacity:0.99;fill:url(#linearGradient1473);stroke:#206b00;stroke-width:1;stroke-linecap:butt;stroke-linejoin:miter;stroke-miterlimit:4;stroke-dasharray:none;stroke-dashoffset:0;stroke-opacity:0.5;marker:none;enable-background:accumulate;font-variation-settings:normal;vector-effect:none;fill-opacity:1;-inkscape-stroke:none;stop-color:#000000;stop-opacity:1"
     id="path2555-6-4"
     d="m 94.000004,70.499999 c -14.621786,0 -26.500002,11.878215 -26.500002,26.500005 0,14.621786 11.878216,26.500006 26.500002,26.499996 14.621786,0 26.500016,-11.87821 26.499996,-26.499996 0,-14.62179 -11.87821,-26.500005 -26.499996,-26.500005 z" />
  <path
     style="color:#000000;display:inline;overflow:visible;visibility:visible;fill:none;stroke:url(#linearGradient3306);stroke-width:0.999999;stroke-linecap:round;stroke-linejoin:round;stroke-miterlimit:4;stroke-dasharray:none;stroke-dashoffset:0;stroke-opacity:1;marker:none;enable-background:accumulate;opacity:0.5"
     id="path8655-6-4"
     d="M 119.5,96.999098 C 119.5,111.08281 108.08242,122.5 94.00032,122.5 c -14.0834,0 -25.500317,-11.41732 -25.500317,-25.500902 0,-14.083065 11.416917,-25.499099 25.500317,-25.499099 14.0821,0 25.49968,11.416034 25.49968,25.499099 z" />
  <path
     id="rect1041-7"
     d="m 94.086371,112.99998 c -0.36042,0 -0.68743,-0.14307 -0.9274,-0.37554 0,0 -4.97344,-6.26496 -8.07339,-9.39011 -0.2202,-0.23792 -0.35479,-0.55629 -0.35479,-0.9061 0,-0.73673 0.59696,-1.32825 1.33334,-1.32825 h 5.00751 l 0.0229,-12.66601 C 91.095541,87.59495 91.689211,87 92.427871,87 h 3.33333 c 0.73867,0 1.33467,0.59495 1.33334,1.33397 l -0.0229,12.66601 h 5.007499 c 0.73638,0 1.33334,0.59152 1.33334,1.32825 0,0.34961 -0.13444,0.66781 -0.3544,0.90568 l -8.044659,9.39086 c -0.23994,0.23228 -0.56681,0.37521 -0.92705,0.37521 z"
     style="vector-effect:none;fill:#206b00;fill-opacity:1;stroke:none;stroke-width:1.38095;stroke-linecap:butt;stroke-linejoin:miter;stroke-miterlimit:4;stroke-dasharray:none;stroke-dashoffset:0;stroke-opacity:1;marker:none;paint-order:normal;font-variation-settings:normal;opacity:0.2;-inkscape-stroke:none;stop-color:#000000;stop-opacity:1" />
  <path
     id="rect1041-7-7"
     style="font-variation-settings:normal;opacity:0.07;vector-effect:none;fill:#206b00;fill-opacity:1;stroke:none;stroke-width:1.38095;stroke-linecap:butt;stroke-linejoin:miter;stroke-miterlimit:4;stroke-dasharray:none;stroke-dashoffset:0;stroke-opacity:1;-inkscape-stroke:none;marker:none;paint-order:normal;stop-color:#000000;stop-opacity:1"
     d="m 92.326172,86.005859 c -1.429044,0.01277 -2.444785,1.465943 -2.233259,2.826172 -0.0062,3.722656 -0.01246,7.445313 -0.01869,11.167969 -1.521277,0.046 -3.059317,-0.09287 -4.570313,0.0703 -1.634141,0.32663 -2.353673,2.55462 -1.210937,3.77344 2.931579,3.02188 5.580181,6.35362 8.240234,9.5625 1.064834,1.01284 2.896612,0.64474 3.630592,-0.58651 2.625615,-3.08549 5.293015,-6.13729 7.892845,-9.24357 0.92927,-1.36193 -0.0563,-3.4451 -1.7069,-3.55313 -1.42272,-0.05432 -2.850772,-0.007 -4.275521,-0.023 -0.01346,-4.009303 0.05363,-8.022257 -0.0098,-12.029297 C 97.898697,86.650692 96.530294,85.812328 95.261719,86 c -0.978367,0.0042 -1.957756,-0.0083 -2.935547,0.0059 z" />
  <path
     id="rect1041"
     d="m 94.086371,111.99998 c -0.36042,0 -0.68743,-0.14307 -0.9274,-0.37554 0,0 -4.97344,-6.26496 -8.07339,-9.39011 -0.2202,-0.23792 -0.35479,-0.55629 -0.35479,-0.9061 0,-0.73673 0.59696,-1.328246 1.33334,-1.328246 h 5.00751 l 0.0229,-12.666014 C 91.095541,86.59495 91.689211,86 92.427871,86 h 3.33333 c 0.73867,0 1.33467,0.59495 1.33334,1.33397 l -0.0229,12.666014 h 5.007499 c 0.73638,0 1.33334,0.591516 1.33334,1.328246 0,0.34961 -0.13444,0.66781 -0.3544,0.90568 l -8.044659,9.39086 c -0.23994,0.23228 -0.56681,0.37521 -0.92705,0.37521 z"
     style="vector-effect:none;fill:#ffffff;fill-opacity:1;stroke:none;stroke-width:5.33333;stroke-linecap:round;stroke-linejoin:round;stroke-miterlimit:4;stroke-dasharray:none;stroke-dashoffset:0;stroke-opacity:1;marker:none;paint-order:normal;font-variation-settings:normal;opacity:1;-inkscape-stroke:none;stop-color:#000000;stop-opacity:1" />
</svg>
