<?xml version="1.0" encoding="UTF-8" standalone="no"?>
<svg
   version="1.1"
   width="48"
   height="48"
   id="svg6649"
   xml:space="preserve"
   xmlns:xlink="http://www.w3.org/1999/xlink"
   xmlns="http://www.w3.org/2000/svg"
   xmlns:svg="http://www.w3.org/2000/svg"
   xmlns:rdf="http://www.w3.org/1999/02/22-rdf-syntax-ns#"
   xmlns:cc="http://creativecommons.org/ns#"
   xmlns:dc="http://purl.org/dc/elements/1.1/"><defs
     id="defs6651"><linearGradient
       id="linearGradient1201"><stop
         id="stop1193"
         style="stop-color:#ffffff;stop-opacity:1"
         offset="0" /><stop
         id="stop1195"
         style="stop-color:#ffffff;stop-opacity:0.23529412"
         offset="0.06781636" /><stop
         id="stop1197"
         style="stop-color:#ffffff;stop-opacity:0.15686275"
         offset="0.94694352" /><stop
         id="stop1199"
         style="stop-color:#ffffff;stop-opacity:0.39215687"
         offset="1" /></linearGradient><linearGradient
       id="linearGradient854"><stop
         style="stop-color:#64baff;stop-opacity:1"
         offset="0"
         id="stop850" /><stop
         style="stop-color:#3689e6;stop-opacity:1"
         offset="1"
         id="stop852" /></linearGradient><linearGradient
       id="linearGradient3688-166-749"><stop
         id="stop2883"
         style="stop-color:#181818;stop-opacity:1"
         offset="0" /><stop
         id="stop2885"
         style="stop-color:#181818;stop-opacity:0"
         offset="1" /></linearGradient><linearGradient
       id="linearGradient3702-501-757"><stop
         id="stop2895"
         style="stop-color:#181818;stop-opacity:0"
         offset="0" /><stop
         id="stop2897"
         style="stop-color:#181818;stop-opacity:1"
         offset="0.5" /><stop
         id="stop2899"
         style="stop-color:#181818;stop-opacity:0"
         offset="1" /></linearGradient><radialGradient
       cx="4.9929786"
       cy="43.5"
       r="2.5"
       fx="4.9929786"
       fy="43.5"
       id="radialGradient3013-6"
       xlink:href="#linearGradient3688-166-749"
       gradientUnits="userSpaceOnUse"
       gradientTransform="matrix(2.003784,0,0,0.89999994,29.98813,4.8500025)" /><radialGradient
       cx="4.9929786"
       cy="43.5"
       r="2.5"
       fx="4.9929786"
       fy="43.5"
       id="radialGradient3015-1"
       xlink:href="#linearGradient3688-166-749"
       gradientUnits="userSpaceOnUse"
       gradientTransform="matrix(2.003784,0,0,0.89999994,-18.01187,-83.149997)" /><linearGradient
       xlink:href="#linearGradient854"
       id="linearGradient856-2"
       x1="23.528315"
       y1="6.08318"
       x2="23.528315"
       y2="44.23307"
       gradientUnits="userSpaceOnUse" /><linearGradient
       x1="38.999996"
       y1="5.9999938"
       x2="38.999996"
       y2="41.945408"
       id="linearGradient3058-5"
       xlink:href="#linearGradient1201"
       gradientUnits="userSpaceOnUse"
       gradientTransform="translate(4e-6,1.0000062)" /><linearGradient
       xlink:href="#linearGradient3702-501-757"
       id="linearGradient1191"
       gradientUnits="userSpaceOnUse"
       x1="25.058096"
       y1="47.027729"
       x2="25.058096"
       y2="39.999443"
       gradientTransform="matrix(1.1428571,0,0,0.6428571,-3.428569,16.035716)" /><radialGradient
       cx="62.625"
       cy="4.625"
       r="10.625"
       fx="62.625"
       fy="4.625"
       id="radialGradient3748"
       xlink:href="#linearGradient8838-4"
       gradientUnits="userSpaceOnUse"
       gradientTransform="matrix(1.1294118,0,0,0.2823525,-34.729414,43.694118)" /><linearGradient
       id="linearGradient8838-4"><stop
         id="stop8840-4"
         style="stop-color:#000000;stop-opacity:1"
         offset="0" /><stop
         id="stop8842-8"
         style="stop-color:#000000;stop-opacity:0"
         offset="1" /></linearGradient><linearGradient
       y2="5.1757793"
       x2="-95.837799"
       y1="54.199703"
       x1="-95.837799"
       gradientTransform="matrix(0.80749834,0,0,0.83374395,113.01159,-2.35899)"
       gradientUnits="userSpaceOnUse"
       id="linearGradient4200-6"
       xlink:href="#linearGradient3104-8-8-97-4-6-2-0-1-4-0-5-8-3-9-1" /><linearGradient
       id="linearGradient3104-8-8-97-4-6-2-0-1-4-0-5-8-3-9-1"><stop
         id="stop3106-5-4-3-5-0-1-61-9-2-7-3-3-2-6-9"
         style="stop-color:#000000;stop-opacity:0.32173914"
         offset="0" /><stop
         id="stop3108-4-3-7-8-2-4-01-9-9-0-6-4-3-7-7"
         style="stop-color:#000000;stop-opacity:0.27826086"
         offset="1" /></linearGradient><radialGradient
       r="19.99999"
       fy="8.4497671"
       fx="6.2751122"
       cy="8.4497671"
       cx="6.2751122"
       gradientTransform="matrix(0,1.2189437,-1.289497,-3.3177771e-8,46.896006,18.350992)"
       gradientUnits="userSpaceOnUse"
       id="radialGradient3398"
       xlink:href="#linearGradient4632-92-3-0-8-1-6-6" /><linearGradient
       id="linearGradient4632-92-3-0-8-1-6-6"><stop
         id="stop4634-68-8-0-2-9-1-1"
         style="stop-color:#fafafa;stop-opacity:1"
         offset="0" /><stop
         id="stop4636-8-21-7-1-4-9-4"
         style="stop-color:#e1e1e1;stop-opacity:1"
         offset="1" /></linearGradient><linearGradient
       x1="71.204407"
       y1="7.8309216"
       x2="71.204407"
       y2="42.883553"
       id="linearGradient3741"
       xlink:href="#linearGradient4011-7"
       gradientUnits="userSpaceOnUse"
       gradientTransform="matrix(0.5135135,0,0,0.5135135,-0.836132,22.978716)" /><linearGradient
       id="linearGradient4011-7"><stop
         id="stop4013-4"
         style="stop-color:#ffffff;stop-opacity:1"
         offset="0" /><stop
         id="stop4015-61"
         style="stop-color:#ffffff;stop-opacity:0.23529412"
         offset="0.507761" /><stop
         id="stop4017-2"
         style="stop-color:#ffffff;stop-opacity:0.15686275"
         offset="0.83456558" /><stop
         id="stop4019-2"
         style="stop-color:#ffffff;stop-opacity:0.39215687"
         offset="1" /></linearGradient></defs><metadata
     id="metadata6654"><rdf:RDF><cc:Work
         rdf:about=""><dc:format>image/svg+xml</dc:format><dc:type
           rdf:resource="http://purl.org/dc/dcmitype/StillImage" /></cc:Work></rdf:RDF></metadata><rect
     style="opacity:0.6;fill:url(#radialGradient3015-1);fill-opacity:1;stroke:none;stroke-width:0.862764"
     id="rect3696-6-3"
     transform="scale(-1)"
     y="-46.25"
     x="-8"
     height="4.4999995"
     width="5" /><rect
     style="opacity:0.6;fill:url(#linearGradient1191);fill-opacity:1;stroke:none;stroke-width:0.862764"
     id="rect3700-4-6"
     y="41.75"
     x="8"
     height="4.5"
     width="32" /><rect
     style="color:#000000;display:inline;overflow:visible;visibility:visible;opacity:1;fill:url(#linearGradient856-2);fill-opacity:1;fill-rule:nonzero;stroke:#002e99;stroke-width:1;stroke-opacity:0.5;marker:none;enable-background:accumulate"
     id="rect5505-21-1"
     y="5.4999952"
     x="4.5000153"
     ry="4"
     rx="4"
     height="39"
     width="39" /><rect
     style="opacity:0.35;fill:none;stroke:url(#linearGradient3058-5);stroke-width:1;stroke-linecap:round;stroke-linejoin:round;stroke-miterlimit:4;stroke-dasharray:none;stroke-dashoffset:0;stroke-opacity:1"
     id="rect6741-2"
     y="6.4999952"
     x="5.5000153"
     ry="3"
     rx="3"
     height="37"
     width="37" /><path
     style="color:#000000;display:inline;overflow:visible;visibility:visible;opacity:0.05;fill:#000000;fill-opacity:1;fill-rule:nonzero;stroke:none;stroke-width:1;marker:none;enable-background:accumulate"
     id="path3324"
     d="M 24,9 C 15.168227,9 8,16.16823 8,25 8,33.831788 15.168229,41 24,41 32.831768,41 40,33.831788 40,25 40,16.16823 32.83177,9 24,9 Z m -1.875,3.46875 c -1.887462,0.521715 -3.558328,1.548286 -4.875,2.875 -2.625609,2.645632 -4.24125,6.397126 -3.9375,10.1875 0.142913,1.783356 0.742738,3.497142 1.71875,5 -0.704201,0.195311 -1.403974,0.377829 -2.125,0.5 C 11.91973,29.224002 11.25,27.202458 11.25,25 c 0,-6.401442 4.732045,-11.617864 10.875,-12.53125 z M 26.90625,12.75 c 4.379314,1.031622 7.882988,4.195219 9.21875,8.4375 -1.330893,2.615054 -3.160074,4.988101 -5.375,6.90625 -1.114273,0.96496 -2.299919,1.791846 -3.59375,2.375 -1.284866,0.579114 -2.685109,0.920935 -4.03125,0.84375 -0.363946,-0.02087 -0.678262,-0.205964 -1.03125,-0.28125 2.029816,-1.343209 3.952388,-2.900703 5.53125,-4.75 1.36109,-1.594227 2.601243,-3.459191 3.09375,-5.65625 0.245045,-1.093134 0.302485,-2.257146 0.0625,-3.40625 -0.239425,-1.146433 -0.760276,-2.238371 -1.59375,-3.125 C 28.560823,13.427109 27.727699,13.082402 26.90625,12.75 Z m -2.8125,2.28125 c 0.764114,10e-4 1.522704,0.256097 2.09375,0.6875 0.516803,0.390427 0.924895,0.974634 1.15625,1.625 0.229605,0.645443 0.304352,1.350066 0.21875,2.09375 -0.168905,1.46738 -0.947944,2.918054 -1.9375,4.21875 -1.76364,2.318174 -4.085366,4.188125 -6.71875,5.5 -0.05485,0.02733 -0.129872,0.03492 -0.1875,0.0625 -0.316583,-0.343016 -0.644671,-0.685948 -0.875,-1.09375 -0.698212,-1.236217 -0.954548,-2.768007 -0.8125,-4.25 0.142745,-1.489254 0.680622,-2.938824 1.40625,-4.34375 0.835903,-1.618431 1.941404,-3.084303 3.375,-3.875 0.712666,-0.393067 1.514383,-0.626039 2.28125,-0.625 z m 12.46875,11.625 C 35.743023,32.905664 30.476903,37.75 24,37.75 c -3.393905,0 -6.406338,-1.399993 -8.6875,-3.5625 0.852171,-0.25612 1.70895,-0.499646 2.53125,-0.84375 0.574599,0.388601 1.149179,0.776954 1.8125,1.03125 2.43003,0.931619 5.130891,0.788903 7.5,-0.03125 2.361464,-0.817503 4.396397,-2.261123 6.15625,-3.90625 1.217107,-1.137778 2.273025,-2.431403 3.25,-3.78125 z" /><path
     d="m 24,9.999994 c -8.284272,0 -15.0000004,6.715731 -15.0000004,15 C 8.9999996,33.284282 15.715728,40 24,40 c 8.284269,0 15,-6.715718 15,-15.000006 0,-8.284269 -6.715731,-15 -15,-15 z m 0,1.25 c 6.298371,0 11.607693,4.234925 13.235937,10.0125 -1.402406,2.892615 -3.397931,5.496994 -5.828125,7.601568 -1.167437,1.011 -2.442042,1.912282 -3.85,2.546875 -1.407958,0.634594 -2.956607,0.994656 -4.498437,0.906251 -1.158408,-0.06643 -2.302727,-0.389126 -3.317188,-0.951562 2.688505,-1.456814 5.114295,-3.399179 7.100001,-5.725007 1.303376,-1.526628 2.443731,-3.261591 2.882811,-5.220313 0.21954,-0.979359 0.256744,-2.005031 0.05156,-2.9875 -0.205182,-0.982468 -0.659434,-1.918718 -1.346874,-2.65 -0.671588,-0.714416 -1.553228,-1.220478 -2.498438,-1.481249 -0.945209,-0.260769 -1.951078,-0.280961 -2.915625,-0.10469 -1.929093,0.352544 -3.651422,1.473699 -5.032812,2.865624 -2.4349,2.453469 -3.940182,5.91536 -3.664063,9.360938 0.138059,1.722788 0.71539,3.415662 1.704688,4.832819 0.220825,0.316313 0.463594,0.617625 0.723437,0.903125 -1.441196,0.504375 -2.933436,0.863407 -4.446874,1.065625 -1.299391,-2.099625 -2.050001,-4.574375 -2.050001,-7.225007 0,-7.593915 6.156085,-13.75 13.75,-13.75 z m 0.0875,2.778125 c 0.96657,0.0013 1.939708,0.293928 2.710938,0.876562 0.69484,0.524928 1.209696,1.271722 1.501561,2.092187 0.291866,0.820466 0.366769,1.711445 0.267189,2.576563 -0.199162,1.730241 -1.072019,3.317007 -2.126563,4.703125 -1.867202,2.454298 -4.349091,4.418663 -7.109375,5.793756 -0.282537,0.140751 -0.569552,0.274533 -0.857812,0.403126 -0.600617,-0.525594 -1.115411,-1.149 -1.507813,-1.843757 -0.819937,-1.451738 -1.090329,-3.176256 -0.93125,-4.835937 0.15908,-1.659678 0.72864,-3.259256 1.49375,-4.740625 0.887111,-1.717578 2.096318,-3.344496 3.789062,-4.278126 0.846373,-0.466812 1.803742,-0.748183 2.770313,-0.746874 z m 13.539063,9.131249 C 37.707123,23.761493 37.75,24.375822 37.75,24.999994 37.75,32.593907 31.593916,38.75 24,38.75 c -4.26482,0 -8.076387,-1.941501 -10.598437,-4.989062 1.556681,-0.353563 3.078147,-0.861406 4.537499,-1.507812 0.638187,0.486031 1.342987,0.884655 2.092187,1.171874 2.157552,0.827157 4.607093,0.707469 6.790627,-0.04844 2.183532,-0.755906 4.119834,-2.112688 5.807811,-3.690625 2.010819,-1.879757 3.706204,-4.09536 4.996876,-6.526569 z"
     id="path2993-8"
     style="color:#000000;display:inline;overflow:visible;visibility:visible;opacity:0.15;fill:#000000;fill-opacity:1;fill-rule:nonzero;stroke:none;stroke-width:1;marker:none;enable-background:accumulate" /><path
     d="m 24,8.9999959 c -8.284272,0 -15.0000004,6.7157311 -15.0000004,15.0000001 0,8.284288 6.7157284,15.000006 15.0000004,15.000006 8.284269,0 15,-6.715718 15,-15.000006 C 39,15.715727 32.284269,8.9999959 24,8.9999959 Z m 0,1.2500001 c 6.298371,0 11.607693,4.234925 13.235937,10.0125 -1.402406,2.892615 -3.397931,5.496994 -5.828125,7.601568 -1.167437,1.011 -2.442042,1.912282 -3.85,2.546875 -1.407958,0.634594 -2.956607,0.994656 -4.498437,0.906251 -1.158408,-0.06643 -2.302727,-0.389126 -3.317188,-0.951562 2.688505,-1.456814 5.114295,-3.399179 7.100001,-5.725007 1.303376,-1.526628 2.443731,-3.261591 2.882811,-5.220313 0.21954,-0.979359 0.256744,-2.005031 0.05156,-2.9875 -0.205182,-0.982468 -0.659434,-1.918718 -1.346874,-2.65 -0.671588,-0.714416 -1.553228,-1.220478 -2.498438,-1.481249 -0.945209,-0.260769 -1.951078,-0.280961 -2.915625,-0.10469 -1.929093,0.352544 -3.651422,1.473699 -5.032812,2.865624 -2.4349,2.453469 -3.940182,5.91536 -3.664063,9.360938 0.138059,1.722788 0.71539,3.415662 1.704688,4.832819 0.220825,0.316313 0.463594,0.617625 0.723437,0.903125 -1.441196,0.504375 -2.933436,0.863407 -4.446874,1.065625 -1.299391,-2.099625 -2.050001,-4.574375 -2.050001,-7.225007 0,-7.593915 6.156085,-13.75 13.75,-13.75 z m 0.0875,2.778125 c 0.96657,0.0013 1.939708,0.293928 2.710938,0.876562 0.69484,0.524928 1.209696,1.271722 1.501561,2.092187 0.291866,0.820466 0.366769,1.711445 0.267189,2.576563 -0.199162,1.730241 -1.072019,3.317007 -2.126563,4.703125 -1.867202,2.454298 -4.349091,4.418663 -7.109375,5.793756 -0.282537,0.140751 -0.569552,0.274533 -0.857812,0.403126 -0.600617,-0.525594 -1.115411,-1.149 -1.507813,-1.843757 -0.819937,-1.451738 -1.090329,-3.176256 -0.93125,-4.835937 0.15908,-1.659678 0.72864,-3.259256 1.49375,-4.740625 0.887111,-1.717578 2.096318,-3.344496 3.789062,-4.278126 0.846373,-0.466812 1.803742,-0.748183 2.770313,-0.746874 z m 13.539063,9.131249 c 0.08056,0.602125 0.123437,1.216454 0.123437,1.840626 0,7.593913 -6.156084,13.750006 -13.75,13.750006 -4.26482,0 -8.076387,-1.941501 -10.598437,-4.989062 1.556681,-0.353563 3.078147,-0.861406 4.537499,-1.507812 0.638187,0.486031 1.342987,0.884655 2.092187,1.171874 2.157552,0.827157 4.607093,0.707469 6.790627,-0.04844 2.183532,-0.755906 4.119834,-2.112688 5.807811,-3.690625 2.010819,-1.879757 3.706204,-4.09536 4.996876,-6.526569 z"
     id="path2993"
     style="color:#000000;display:inline;overflow:visible;visibility:visible;fill:#ffffff;fill-opacity:1;fill-rule:nonzero;stroke:none;stroke-width:1;marker:none;enable-background:accumulate" /><path
     id="path2993-3"
     style="color:#000000;display:inline;overflow:visible;visibility:visible;fill:#000000;fill-opacity:1;fill-rule:nonzero;stroke:none;stroke-width:1;marker:none;enable-background:accumulate;font-variation-settings:normal;opacity:0.05;vector-effect:none;stroke-linecap:butt;stroke-linejoin:miter;stroke-miterlimit:4;stroke-dasharray:none;stroke-dashoffset:0;stroke-opacity:1;-inkscape-stroke:none;stop-color:#000000;stop-opacity:1"
     d="M 24 9.25 C 16.406093 9.25 10.25 15.406093 10.25 23 C 10.25 23.138065 10.261581 23.273073 10.265625 23.410156 C 10.575129 16.090375 16.604077 10.25 24 10.25 C 30.068661 10.25 35.216898 14.181728 37.041016 19.636719 C 37.104671 19.511206 37.174933 19.388354 37.236328 19.261719 C 35.608086 13.48415 30.298365 9.25 24 9.25 z M 24.480469 12.085938 C 23.990282 12.070327 23.497898 12.10913 23.015625 12.197266 C 22.623702 12.26889 22.24287 12.378866 21.869141 12.509766 C 21.681452 12.590894 21.495153 12.676804 21.316406 12.775391 C 19.623664 13.70902 18.414454 15.335158 17.527344 17.052734 C 16.762235 18.534102 16.194236 20.133292 16.035156 21.792969 C 15.9906 22.25783 15.984299 22.727697 16.009766 23.195312 C 16.016942 23.061119 16.022357 22.926499 16.035156 22.792969 C 16.194236 21.133292 16.762235 19.534102 17.527344 18.052734 C 18.414454 16.335158 19.623664 14.70902 21.316406 13.775391 C 22.162778 13.308579 23.121321 13.026035 24.087891 13.027344 C 25.05446 13.028644 26.027599 13.321663 26.798828 13.904297 C 27.493667 14.429224 28.008917 15.17563 28.300781 15.996094 C 28.453245 16.424686 28.541921 16.872835 28.582031 17.326172 C 28.641785 16.539616 28.564907 15.73858 28.300781 14.996094 C 28.008917 14.17563 27.493667 13.429224 26.798828 12.904297 C 26.289777 12.519729 25.691437 12.264308 25.066406 12.132812 C 24.872063 12.108765 24.676399 12.092177 24.480469 12.085938 z M 29.888672 17.226562 C 29.863087 17.627799 29.812513 18.027789 29.724609 18.419922 C 29.28553 20.378642 28.145172 22.113999 26.841797 23.640625 C 24.856093 25.966451 22.43069 27.908422 19.742188 29.365234 C 20.053703 29.537944 20.378284 29.685481 20.710938 29.8125 C 23.014193 28.430411 25.09749 26.683706 26.841797 24.640625 C 28.145172 23.113999 29.28553 21.378642 29.724609 19.419922 C 29.885557 18.701942 29.94738 17.959054 29.888672 17.226562 z M 37.626953 21.160156 C 36.336282 23.591363 34.639723 25.805792 32.628906 27.685547 C 30.940931 29.263482 29.005795 30.621048 26.822266 31.376953 C 24.638734 32.132861 22.1888 32.252937 20.03125 31.425781 C 19.282051 31.138563 18.577639 30.739937 17.939453 30.253906 C 16.480103 30.900312 14.959023 31.408156 13.402344 31.761719 C 13.635996 32.044056 13.883549 32.311532 14.138672 32.574219 C 15.438355 32.2359 16.711682 31.797736 17.939453 31.253906 C 18.577639 31.739937 19.282051 32.138563 20.03125 32.425781 C 22.1888 33.252937 24.638734 33.132861 26.822266 32.376953 C 29.005795 31.621048 30.940931 30.263482 32.628906 28.685547 C 34.639723 26.805792 36.336282 24.591363 37.626953 22.160156 C 37.689112 22.624749 37.721424 23.098132 37.736328 23.576172 C 37.744235 23.384732 37.75 23.193382 37.75 23 C 37.75 22.375829 37.707513 21.762281 37.626953 21.160156 z M 14.300781 23.072266 C 14.277798 23.521497 14.28222 23.972858 14.318359 24.423828 C 14.456418 26.146614 15.03414 27.838704 16.023438 29.255859 C 16.049513 29.293211 16.078789 29.328303 16.105469 29.365234 C 16.319325 29.297441 16.534346 29.234261 16.746094 29.160156 C 16.486251 28.874657 16.244262 28.572172 16.023438 28.255859 C 15.03414 26.838704 14.456418 25.146614 14.318359 23.423828 C 14.308974 23.306711 14.306084 23.18938 14.300781 23.072266 z M 9.0117188 23.5 C 9.0062526 23.666445 9 23.832225 9 24 C 9 32.28428 15.715736 39 24 39 C 32.284261 39 39 32.28428 39 24 C 39 23.832225 38.993747 23.666445 38.988281 23.5 C 38.723842 31.552189 32.116486 38 24 38 C 15.883511 38 9.2761578 31.552189 9.0117188 23.5 z " /><rect
     style="opacity:0.6;fill:url(#radialGradient3013-6);fill-opacity:1;stroke:none;stroke-width:0.862764"
     id="rect2801-3-7"
     y="41.75"
     x="40"
     height="4.4999995"
     width="5" /><path
     d="m 48,45 c 0,1.656854 -5.372583,3 -12,3 -6.627417,0 -12,-1.343146 -12,-3 0,-1.656854 5.372583,-3 12,-3 6.627417,0 12,1.343146 12,3 z"
     id="path8836-2"
     style="display:inline;overflow:visible;visibility:visible;opacity:0.3;fill:url(#radialGradient3748);fill-opacity:1;fill-rule:evenodd;stroke:none;stroke-width:1;marker:none" /><path
     d="M 36.000001,25.5 C 30.206463,25.5 25.5,30.206461 25.5,36 c 0,5.793538 4.706463,10.500002 10.500001,10.5 C 41.793537,46.5 46.500005,41.793538 46.5,36 46.5,30.206461 41.793537,25.5 36.000001,25.5 Z"
     id="path2555-6-4"
     style="color:#000000;display:inline;overflow:visible;visibility:visible;opacity:0.8;fill:none;fill-opacity:0;fill-rule:nonzero;stroke:url(#linearGradient4200-6);stroke-width:1;stroke-linecap:butt;stroke-linejoin:miter;stroke-miterlimit:4;stroke-dasharray:none;stroke-dashoffset:0;stroke-opacity:1;marker:none;enable-background:accumulate" /><path
     d="M 36.000001,26 C 30.482346,26 26,30.482344 26,36 26,41.517655 30.482346,46.000002 36.000001,46 41.517654,46 46.000005,41.517655 46,36 46,30.482344 41.517654,26 36.000001,26 Z"
     id="path2555-03"
     style="color:#000000;display:inline;overflow:visible;visibility:visible;fill:url(#radialGradient3398);fill-opacity:1;fill-rule:nonzero;stroke:none;stroke-width:1;marker:none;enable-background:accumulate" /><path
     d="M 45.5,35.999663 C 45.5,41.246537 41.246391,45.5 36.000121,45.5 30.753368,45.5 26.5,41.246489 26.5,35.999663 c 0,-5.24663 4.253368,-9.499662 9.500121,-9.499662 5.24627,0 9.499879,4.253032 9.499879,9.499662 z"
     id="path8655-6-4"
     style="color:#000000;display:inline;overflow:visible;visibility:visible;fill:none;stroke:url(#linearGradient3741);stroke-width:1;stroke-linecap:round;stroke-linejoin:round;stroke-miterlimit:4;stroke-dasharray:none;stroke-dashoffset:0;stroke-opacity:1;marker:none;enable-background:accumulate" /><path
     style="opacity:0.99;vector-effect:none;fill:#fafafa;fill-opacity:1;stroke:none;stroke-width:1;stroke-linecap:butt;stroke-linejoin:miter;stroke-miterlimit:4;stroke-dasharray:none;stroke-dashoffset:0;stroke-opacity:1;marker:none;paint-order:normal"
     d="m 36.000001,41.966668 c 0.204456,0 0.408909,-0.08141 0.562851,-0.240386 L 39.56285,38.219735 C 39.909566,37.785964 39.55385,37.016737 39,37.000225 h -2 v -4.249533 c -0.01537,-0.407917 -0.34255,-0.735051 -0.750468,-0.750467 h -0.499065 c -0.04693,-0.0043 -0.09378,-0.0043 -0.140711,0 C 35.256587,32.077845 35.003469,32.389111 35,32.750692 v 4.249533 h -2 c -0.553846,0.01651 -0.909567,0.785739 -0.562851,1.21951 l 3.000003,3.506547 c 0.153935,0.158976 0.358396,0.240386 0.562849,0.240386 z"
     id="path818-7" /><path
     style="opacity:1;vector-effect:none;fill:#208ae4;fill-opacity:1;stroke:none;stroke-width:1;stroke-linecap:butt;stroke-linejoin:miter;stroke-miterlimit:4;stroke-dasharray:none;stroke-dashoffset:0;stroke-opacity:1;marker:none;paint-order:normal;font-variation-settings:normal;-inkscape-stroke:none;stop-color:#000000;stop-opacity:1"
     d="m 36.000001,40.969668 c 0.204456,0 0.408909,-0.08141 0.562851,-0.240386 L 39.56285,37.222735 C 39.909566,36.788964 39.55385,36.019737 39,36.003225 h -2 v -4.249532 c -0.01537,-0.407918 -0.34255,-0.735052 -0.750468,-0.750468 h -0.499065 c -0.04693,-0.0043 -0.09378,-0.0043 -0.140711,0 C 35.256587,31.080845 35.003469,31.392111 35,31.753693 v 4.249532 h -2 c -0.553846,0.01651 -0.909567,0.785739 -0.562851,1.21951 l 3.000003,3.506547 c 0.153935,0.158976 0.358396,0.240386 0.562849,0.240386 z"
     id="path818-7-6" /><path
     id="path818-7-6-3"
     style="font-variation-settings:normal;vector-effect:none;fill:#002e99;fill-opacity:1;stroke:none;stroke-width:1;stroke-linecap:butt;stroke-linejoin:miter;stroke-miterlimit:4;stroke-dasharray:none;stroke-dashoffset:0;stroke-opacity:1;-inkscape-stroke:none;marker:none;paint-order:normal;stop-color:#000000;opacity:0.15;stop-opacity:1"
     d="M 35.679688 31 C 35.656242 31 35.63284 31.001756 35.609375 31.003906 C 35.256206 31.081526 35.003469 31.392325 35 31.753906 L 35 32.753906 C 35.003469 32.392325 35.256206 32.081526 35.609375 32.003906 C 35.656306 31.999606 35.70307 31.999606 35.75 32.003906 L 36.25 32.003906 C 36.657918 32.019322 36.98463 32.345989 37 32.753906 L 37 31.753906 C 36.98463 31.345989 36.657918 31.019322 36.25 31.003906 L 35.75 31.003906 C 35.726535 31.001756 35.703133 31 35.679688 31 z M 33 36.003906 C 32.446155 36.020416 32.090784 36.788886 32.4375 37.222656 L 32.486328 37.28125 C 32.611703 37.120741 32.792308 37.010097 33 37.003906 L 35 37.003906 L 35 36.003906 L 33 36.003906 z M 37 36.003906 L 37 37.003906 L 39 37.003906 C 39.207694 37.010098 39.388297 37.120741 39.513672 37.28125 L 39.5625 37.222656 C 39.909216 36.788886 39.553849 36.020418 39 36.003906 L 37 36.003906 z " /></svg>
