<?xml version="1.0" encoding="UTF-8" standalone="no"?>
<svg
   version="1.1"
   width="64"
   height="64"
   id="svg6333"
   xmlns:xlink="http://www.w3.org/1999/xlink"
   xmlns="http://www.w3.org/2000/svg"
   xmlns:svg="http://www.w3.org/2000/svg"
   xmlns:rdf="http://www.w3.org/1999/02/22-rdf-syntax-ns#"
   xmlns:cc="http://creativecommons.org/ns#"
   xmlns:dc="http://purl.org/dc/elements/1.1/">
  <defs
     id="defs6335">
    <linearGradient
       id="linearGradient3924-2-2-5-8">
      <stop
         id="stop3926-9-4-9-6"
         style="stop-color:#ffffff;stop-opacity:1"
         offset="0" />
      <stop
         id="stop3928-9-8-6-5"
         style="stop-color:#ffffff;stop-opacity:0.23529412"
         offset="0.06316455" />
      <stop
         id="stop3930-3-5-1-7"
         style="stop-color:#ffffff;stop-opacity:0.15686275"
         offset="0.95056331" />
      <stop
         id="stop3932-8-0-4-8"
         style="stop-color:#ffffff;stop-opacity:0.39215687"
         offset="1" />
    </linearGradient>
    <linearGradient
       id="linearGradient3688-166-749-4-0-3-8">
      <stop
         id="stop2883-4-0-1-8"
         style="stop-color:#181818;stop-opacity:1"
         offset="0" />
      <stop
         id="stop2885-9-2-9-6"
         style="stop-color:#181818;stop-opacity:0"
         offset="1" />
    </linearGradient>
    <linearGradient
       id="linearGradient3702-501-757-8-4-1-1">
      <stop
         id="stop2895-8-9-9-1"
         style="stop-color:#181818;stop-opacity:0"
         offset="0" />
      <stop
         id="stop2897-7-8-7-7"
         style="stop-color:#181818;stop-opacity:1"
         offset="0.5" />
      <stop
         id="stop2899-4-5-1-5"
         style="stop-color:#181818;stop-opacity:0"
         offset="1" />
    </linearGradient>
    <radialGradient
       cx="4.9929786"
       cy="43.5"
       r="2.5"
       fx="4.9929786"
       fy="43.5"
       id="radialGradient3337-2-2-1"
       xlink:href="#linearGradient3688-166-749-4-0-3-8"
       gradientUnits="userSpaceOnUse"
       gradientTransform="matrix(2.4045407,0,0,0.99999998,41.985755,15.5)" />
    <radialGradient
       cx="4.9929786"
       cy="43.5"
       r="2.5"
       fx="4.9929786"
       fy="43.5"
       id="radialGradient3339-1-4-3"
       xlink:href="#linearGradient3688-166-749-4-0-3-8"
       gradientUnits="userSpaceOnUse"
       gradientTransform="matrix(2.4045407,0,0,0.99999998,-22.014244,-102.5)" />
    <linearGradient
       xlink:href="#linearGradient3702-501-757-8-4-1-1"
       id="linearGradient2489"
       gradientUnits="userSpaceOnUse"
       gradientTransform="matrix(1.5714286,0,0,0.7142857,-5.7142853,27.92857)"
       x1="25.058096"
       y1="47.027729"
       x2="25.058096"
       y2="39.999443" />
    <linearGradient
       xlink:href="#linearGradient854"
       id="linearGradient2491"
       gradientUnits="userSpaceOnUse"
       gradientTransform="matrix(1.4102564,0,0,1.4102564,-1.8461748,-3.256405)"
       x1="23.528315"
       y1="6.08318"
       x2="23.528315"
       y2="44.23307" />
    <linearGradient
       xlink:href="#linearGradient3924-2-2-5-8"
       id="linearGradient2495"
       gradientUnits="userSpaceOnUse"
       gradientTransform="matrix(1.4324324,0,0,1.4362832,-2.378381,-2.470778)"
       x1="23.99999"
       y1="4.999989"
       x2="23.99999"
       y2="43" />
    <linearGradient
       id="linearGradient854">
      <stop
         style="stop-color:#64baff;stop-opacity:1"
         offset="0"
         id="stop850" />
      <stop
         style="stop-color:#3689e6;stop-opacity:1"
         offset="1"
         id="stop852" />
    </linearGradient>
    <radialGradient
       gradientTransform="matrix(1.3176471,0,0,0.37647,-34.517651,58.258824)"
       gradientUnits="userSpaceOnUse"
       xlink:href="#linearGradient8838"
       id="radialGradient3384"
       fy="4.625"
       fx="62.625"
       r="10.625"
       cy="4.625"
       cx="62.625" />
    <linearGradient
       id="linearGradient8838">
      <stop
         offset="0"
         style="stop-color:#000000;stop-opacity:1"
         id="stop8840" />
      <stop
         offset="1"
         style="stop-color:#000000;stop-opacity:0"
         id="stop8842" />
    </linearGradient>
    <linearGradient
       gradientTransform="matrix(1.1151168,0,0,1.1513607,154.34934,-4.9719397)"
       gradientUnits="userSpaceOnUse"
       xlink:href="#linearGradient3104-8-8-97-4-6-2-0-1-4-0-5-8-3-9-1"
       id="linearGradient3315"
       y2="5.1757793"
       x2="-95.837799"
       y1="54.199703"
       x1="-95.837799" />
    <linearGradient
       id="linearGradient3104-8-8-97-4-6-2-0-1-4-0-5-8-3-9-1">
      <stop
         offset="0"
         style="stop-color:#000000;stop-opacity:0.32173914"
         id="stop3106-5-4-3-5-0-1-61-9-2-7-3-3-2-6-9" />
      <stop
         offset="1"
         style="stop-color:#000000;stop-opacity:0.27826086"
         id="stop3108-4-3-7-8-2-4-01-9-9-0-6-4-3-7-7" />
    </linearGradient>
    <radialGradient
       gradientTransform="matrix(0,1.7065212,-1.8052958,-4.6448879e-8,63.254408,23.291389)"
       gradientUnits="userSpaceOnUse"
       xlink:href="#linearGradient4632-92-3-0-8-1-6-6"
       id="radialGradient3399"
       fy="8.4497671"
       fx="6.2751122"
       r="19.99999"
       cy="8.4497671"
       cx="6.2751122" />
    <linearGradient
       id="linearGradient4632-92-3-0-8-1-6-6">
      <stop
         offset="0"
         style="stop-color:#fafafa;stop-opacity:1"
         id="stop4634-68-8-0-2-9-1-1" />
      <stop
         offset="1"
         style="stop-color:#e1e1e1;stop-opacity:1"
         id="stop4636-8-21-7-1-4-9-4" />
    </linearGradient>
    <linearGradient
       gradientTransform="matrix(0.72972969,0,0,0.72972969,-4.3460816,29.49607)"
       gradientUnits="userSpaceOnUse"
       xlink:href="#linearGradient4011-7-0"
       id="linearGradient3306"
       y2="42.883553"
       x2="71.204407"
       y1="7.8309216"
       x1="71.204407" />
    <linearGradient
       id="linearGradient4011-7-0">
      <stop
         offset="0"
         style="stop-color:#ffffff;stop-opacity:1"
         id="stop4013-4" />
      <stop
         offset="0.507761"
         style="stop-color:#ffffff;stop-opacity:0.23529412"
         id="stop4015-61" />
      <stop
         offset="0.83456558"
         style="stop-color:#ffffff;stop-opacity:0.15686275"
         id="stop4017-2" />
      <stop
         offset="1"
         style="stop-color:#ffffff;stop-opacity:0.39215687"
         id="stop4019-2" />
    </linearGradient>
  </defs>
  <metadata
     id="metadata6338">
    <rdf:RDF>
      <cc:Work
         rdf:about="">
        <dc:format>image/svg+xml</dc:format>
        <dc:type
           rdf:resource="http://purl.org/dc/dcmitype/StillImage" />
      </cc:Work>
    </rdf:RDF>
  </metadata>
  <rect
     style="opacity:0.6;fill:url(#radialGradient3339-1-4-3);fill-opacity:1;stroke:none;stroke-width:1.06199"
     id="rect3696-3-0-3-7-2"
     transform="scale(-1)"
     y="-61.5"
     x="-10"
     height="5"
     width="6" />
  <rect
     style="opacity:0.6;fill:url(#linearGradient2489);fill-opacity:1;stroke:none;stroke-width:1.06199"
     id="rect3700-5-6-8-4-0"
     y="56.5"
     x="10"
     height="5.0000005"
     width="44" />
  <rect
     style="color:#000000;display:inline;overflow:visible;visibility:visible;fill:url(#linearGradient2491);fill-opacity:1;fill-rule:nonzero;stroke:#002e99;stroke-width:1;stroke-opacity:0.5;marker:none;enable-background:accumulate"
     id="rect5505-21-1-5-6"
     y="4.5"
     x="4.4999986"
     ry="6"
     rx="6"
     height="55"
     width="55" />
  <rect
     style="opacity:0.5;fill:none;stroke:url(#linearGradient2495);stroke-width:1;stroke-linecap:round;stroke-linejoin:round;stroke-miterlimit:4;stroke-dasharray:none;stroke-dashoffset:0;stroke-opacity:1"
     id="rect6741-5-0-2-3-1"
     y="5.428772"
     x="5.4999986"
     ry="5"
     height="53.142479"
     width="53"
     rx="5" />
  <path
     style="color:#000000;display:inline;overflow:visible;visibility:visible;opacity:0.05;fill:#000000;fill-opacity:1;fill-rule:nonzero;stroke:none;stroke-width:1;marker:none;enable-background:accumulate"
     id="path3442"
     d="M 32,10.4375 C 19.558529,10.4375 9.4375,20.558533 9.4375,33 9.4375,45.441493 19.55853,55.5625 32,55.5625 44.441466,55.5625 54.5625,45.441493 54.5625,33 54.5625,20.558533 44.441467,10.4375 32,10.4375 Z m 0,3.75 c 8.502543,0 15.625721,5.618439 17.96875,13.34375 -1.951264,3.914348 -4.633031,7.450795 -7.9375,10.3125 -1.631762,1.413106 -3.398046,2.63712 -5.3125,3.5 -1.911985,0.861769 -3.969337,1.335184 -6,1.21875 -0.961694,-0.05515 -1.901387,-0.273976 -2.8125,-0.59375 3.325011,-2.024974 6.376477,-4.474415 8.90625,-7.4375 1.927363,-2.257496 3.691426,-4.856848 4.375,-7.90625 0.342931,-1.529796 0.388529,-3.126376 0.0625,-4.6875 -0.327712,-1.569176 -1.056025,-3.108864 -2.1875,-4.3125 -1.099932,-1.170075 -2.513951,-1.987648 -4.03125,-2.40625 -1.513217,-0.417474 -3.106097,-0.433829 -4.625,-0.15625 -3.031113,0.55394 -5.661764,2.270838 -7.75,4.375 -3.682233,3.710314 -5.986258,8.930848 -5.5625,14.21875 0.212014,2.645653 1.128078,5.279664 2.65625,7.46875 0.03739,0.05355 0.08682,0.102674 0.125,0.15625 -1.377169,0.413088 -2.767397,0.778995 -4.1875,1 -1.56134,-2.743282 -2.5,-5.890971 -2.5,-9.28125 0,-10.40839 8.404109,-18.8125 18.8125,-18.8125 z m 0.125,4 c 1.202962,0.0016 2.394059,0.368655 3.3125,1.0625 0.834536,0.630464 1.481568,1.513115 1.84375,2.53125 0.361564,1.016393 0.441434,2.161117 0.3125,3.28125 -0.257712,2.238901 -1.386509,4.397066 -2.84375,6.3125 -2.58753,3.401116 -6.053193,6.11177 -9.90625,8.03125 -0.188231,0.09377 -0.353176,0.192716 -0.53125,0.28125 C 23.709217,39.091239 23.126146,38.471305 22.71875,37.75 21.654908,35.866417 21.287111,33.564841 21.5,31.34375 c 0.213525,-2.227698 0.969212,-4.412483 2.03125,-6.46875 1.228097,-2.377778 2.872177,-4.541931 5.0625,-5.75 1.08554,-0.598724 2.322181,-0.939138 3.53125,-0.9375 z M 50.78125,33.40625 C 50.561741,43.622785 42.270045,51.8125 32,51.8125 26.687601,51.8125 21.984449,49.535534 18.5625,46 c 1.571636,-0.431847 3.123386,-0.891287 4.625,-1.53125 0.859084,0.600687 1.759517,1.182781 2.75,1.5625 3.360297,1.288263 7.113084,1.088371 10.4375,-0.0625 3.313345,-1.147031 6.192834,-3.199212 8.6875,-5.53125 2.218471,-2.073874 4.07718,-4.476929 5.71875,-7.03125 z" />
  <path
     style="color:#000000;display:inline;overflow:visible;visibility:visible;opacity:0.15;fill:#000000;fill-opacity:1;fill-rule:nonzero;stroke:none;stroke-width:1;marker:none;enable-background:accumulate"
     id="path2993-8"
     d="m 32.000005,11.41426 c -11.921269,0 -21.585366,9.664101 -21.585366,21.585366 0,11.921292 9.664097,21.585374 21.585366,21.585374 11.921265,0 21.585365,-9.664082 21.585365,-21.585374 0,-11.921265 -9.6641,-21.585366 -21.585365,-21.585366 z m 0,1.79878 c 9.063509,0 16.703753,6.094161 19.046836,14.408232 -2.018096,4.162544 -4.889705,7.910309 -8.386814,10.938842 -1.67997,1.454854 -3.514158,2.75182 -5.540244,3.665015 -2.026086,0.913196 -4.254629,1.431334 -6.47336,1.304117 -1.666978,-0.09559 -3.313681,-0.559961 -4.773515,-1.369321 3.868825,-2.09639 7.359595,-4.891501 10.217075,-8.238424 1.87559,-2.196855 3.516588,-4.693509 4.148435,-7.512158 0.315924,-1.409321 0.369461,-2.885288 0.0742,-4.299085 -0.295262,-1.413796 -0.948941,-2.761082 -1.938184,-3.813415 -0.966432,-1.028062 -2.235133,-1.756298 -3.595313,-2.131553 -1.360179,-0.375253 -2.807649,-0.40431 -4.195656,-0.150652 -2.776012,0.50732 -5.254485,2.120689 -7.242339,4.123703 -3.503881,3.530602 -5.670018,8.512347 -5.272676,13.470618 0.19867,2.479134 1.029463,4.915221 2.453087,6.954544 0.317773,0.455183 0.667123,0.888778 1.041044,1.299619 -2.073916,0.725808 -4.221286,1.242464 -6.39916,1.533461 -1.869856,-3.021412 -2.950002,-6.582637 -2.950002,-10.396962 0,-10.927828 8.858757,-19.786585 19.786586,-19.786585 z m 0.125915,3.99779 c 1.390917,0.0019 2.791287,0.42297 3.901106,1.261394 0.999891,0.755384 1.740782,1.830039 2.160782,3.010708 0.420003,1.180671 0.52779,2.462811 0.384492,3.707737 -0.286599,2.489859 -1.542662,4.773254 -3.060176,6.767912 -2.686949,3.531795 -6.258448,6.358564 -10.230564,8.337356 -0.406578,0.202544 -0.819599,0.39506 -1.234413,0.580108 -0.864302,-0.756342 -1.605103,-1.653439 -2.169779,-2.653211 -1.17991,-2.089087 -1.56901,-4.57071 -1.340092,-6.959031 0.22892,-2.388318 1.048531,-4.690149 2.149543,-6.821875 1.276574,-2.471637 3.016653,-4.812812 5.452553,-6.156328 1.217951,-0.671754 2.595628,-1.076654 3.986548,-1.07477 z m 19.483041,13.14009 c 0.115928,0.866473 0.177629,1.750507 0.177629,2.648706 0,10.927826 -8.858755,19.786594 -19.786585,19.786594 -6.13718,0 -11.622118,-2.793868 -15.251409,-7.179382 2.240102,-0.508786 4.429528,-1.239584 6.529571,-2.169778 0.918367,0.69941 1.932591,1.27304 3.010709,1.686355 3.104769,1.190299 6.629719,1.018065 9.771877,-0.06971 3.142156,-1.087768 5.928542,-3.04021 8.357582,-5.3109 2.893618,-2.705016 5.333318,-5.893323 7.190626,-9.391892 z" />
  <path
     style="color:#000000;display:inline;overflow:visible;visibility:visible;fill:#ffffff;fill-opacity:1;fill-rule:nonzero;stroke:none;stroke-width:1;marker:none;enable-background:accumulate"
     id="path2993"
     d="m 32.000001,10.414628 c -11.921269,0 -21.585366,9.6641 -21.585366,21.585365 0,11.921293 9.664097,21.585375 21.585366,21.585375 11.921265,0 21.585365,-9.664082 21.585365,-21.585375 0,-11.921265 -9.6641,-21.585365 -21.585365,-21.585365 z m 0,1.79878 c 9.063509,0 16.703753,6.09416 19.046836,14.408232 -2.018096,4.162543 -4.889705,7.910308 -8.386814,10.938841 -1.67997,1.454854 -3.514158,2.751821 -5.540244,3.665016 -2.026086,0.913196 -4.254629,1.431334 -6.47336,1.304117 -1.666978,-0.09559 -3.313681,-0.559962 -4.773515,-1.369321 3.868825,-2.096391 7.359595,-4.891502 10.217075,-8.238425 1.87559,-2.196855 3.516588,-4.693509 4.148435,-7.512157 0.315924,-1.409322 0.369461,-2.885289 0.0742,-4.299086 -0.295262,-1.413795 -0.948941,-2.761082 -1.938184,-3.813414 -0.966432,-1.028063 -2.235133,-1.756298 -3.595313,-2.131554 -1.360179,-0.375253 -2.807649,-0.40431 -4.195656,-0.150651 -2.776012,0.507319 -5.254485,2.120688 -7.242339,4.123702 -3.503881,3.530602 -5.670018,8.512348 -5.272676,13.470619 0.19867,2.479133 1.029463,4.91522 2.453087,6.954544 0.317773,0.455182 0.667123,0.888777 1.041044,1.299619 -2.073916,0.725808 -4.221286,1.242464 -6.39916,1.53346 -1.869856,-3.021411 -2.950002,-6.582637 -2.950002,-10.396961 0,-10.927829 8.858757,-19.786585 19.786586,-19.786585 z m 0.125915,3.99779 c 1.390917,0.0019 2.791287,0.422969 3.901106,1.261394 0.999891,0.755384 1.740782,1.830039 2.160782,3.010708 0.420003,1.18067 0.52779,2.462811 0.384492,3.707737 -0.286599,2.489859 -1.542662,4.773254 -3.060176,6.767911 -2.686949,3.531795 -6.258448,6.358564 -10.230564,8.337357 -0.406578,0.202544 -0.819599,0.395059 -1.234413,0.580108 -0.864302,-0.756343 -1.605103,-1.653439 -2.169779,-2.653212 -1.17991,-2.089086 -1.56901,-4.570709 -1.340092,-6.959031 0.22892,-2.388317 1.048531,-4.690149 2.149543,-6.821875 1.276574,-2.471637 3.016653,-4.812811 5.452553,-6.156328 1.217951,-0.671753 2.595628,-1.076653 3.986548,-1.074769 z m 19.483041,13.14009 c 0.115928,0.866472 0.177629,1.750507 0.177629,2.648705 0,10.927826 -8.858755,19.786594 -19.786585,19.786594 -6.13718,0 -11.622118,-2.793867 -15.251409,-7.179382 2.240102,-0.508785 4.429528,-1.239584 6.529571,-2.169778 0.918367,0.699411 1.932591,1.27304 3.010709,1.686355 3.104769,1.190299 6.629719,1.018066 9.771877,-0.06971 3.142156,-1.087767 5.928542,-3.04021 8.357582,-5.310899 2.893618,-2.705017 5.333318,-5.893323 7.190626,-9.391892 z" />
  <path
     id="path2993-3"
     style="color:#000000;display:inline;overflow:visible;visibility:visible;fill:#000000;fill-opacity:1;fill-rule:nonzero;stroke:none;stroke-width:1;marker:none;enable-background:accumulate;font-variation-settings:normal;opacity:0.05;vector-effect:none;stroke-linecap:butt;stroke-linejoin:miter;stroke-miterlimit:4;stroke-dasharray:none;stroke-dashoffset:0;stroke-opacity:1;-inkscape-stroke:none;stop-color:#000000;stop-opacity:1"
     d="M 32 11.212891 C 21.072182 11.212891 12.212891 20.072182 12.212891 31 C 12.212891 31.137926 12.225705 31.272906 12.228516 31.410156 C 12.541465 20.756086 21.270138 12.212891 32 12.212891 C 40.831918 12.212891 48.310942 18.001611 50.855469 25.990234 C 50.917457 25.866277 50.986413 25.745804 51.046875 25.621094 C 48.703794 17.30703 41.0635 11.212891 32 11.212891 z M 32.125 15.210938 C 30.734081 15.209054 29.356622 15.615357 28.138672 16.287109 C 25.702774 17.630625 23.964073 19.971725 22.6875 22.443359 C 21.586489 24.575083 20.766029 26.875357 20.537109 29.263672 C 20.479319 29.866609 20.462564 30.476971 20.486328 31.083984 C 20.496113 30.81031 20.511041 30.535643 20.537109 30.263672 C 20.766029 27.875357 21.586489 25.57313 22.6875 23.441406 C 23.964073 20.969772 25.702774 18.628672 28.138672 17.285156 C 29.356622 16.613404 30.734081 16.209054 32.125 16.210938 C 33.515916 16.212837 34.917526 16.634232 36.027344 17.472656 C 37.027234 18.228039 37.7675 19.301754 38.1875 20.482422 C 38.435483 21.179526 38.562586 21.913038 38.605469 22.652344 C 38.665433 21.579296 38.547256 20.495684 38.1875 19.484375 C 37.7675 18.303707 37.027234 17.228039 36.027344 16.472656 C 34.917526 15.634232 33.515916 15.212837 32.125 15.210938 z M 40.482422 22.560547 C 40.450629 23.18217 40.374392 23.802973 40.238281 24.410156 C 39.606435 27.228801 37.965432 29.725022 36.089844 31.921875 C 33.232367 35.268795 29.741868 38.063767 25.873047 40.160156 C 26.179302 40.32995 26.495241 40.481886 26.816406 40.621094 C 30.307858 38.592664 33.467709 35.993142 36.089844 32.921875 C 37.965432 30.725022 39.606435 28.228801 40.238281 25.410156 C 40.447424 24.477181 40.52833 23.514564 40.482422 22.560547 z M 51.609375 28.351562 C 49.752069 31.850128 47.311584 35.039126 44.417969 37.744141 C 41.988931 40.014827 39.2027 41.966922 36.060547 43.054688 C 32.918392 44.142462 29.393828 44.315298 26.289062 43.125 C 25.210946 42.711685 24.19571 42.13691 23.277344 41.4375 C 21.177303 42.367693 18.988147 43.098637 16.748047 43.607422 C 16.979288 43.886846 17.218847 44.159591 17.464844 44.425781 C 19.454475 43.92929 21.402637 43.267884 23.277344 42.4375 C 24.19571 43.13691 25.210946 43.709732 26.289062 44.123047 C 29.393828 45.313345 32.918392 45.142462 36.060547 44.054688 C 39.2027 42.966922 41.988931 41.014827 44.417969 38.744141 C 47.311584 36.039126 49.752069 32.850128 51.609375 29.351562 C 51.70683 30.079963 51.757067 30.823015 51.773438 31.574219 C 51.778889 31.383207 51.787109 31.192331 51.787109 31 C 51.787109 30.101803 51.725303 29.218034 51.609375 28.351562 z M 18.035156 30.914062 C 18.015582 31.47812 18.023031 32.043739 18.068359 32.609375 C 18.267029 35.088506 19.097862 37.525131 20.521484 39.564453 C 20.643406 39.739096 20.773474 39.907951 20.904297 40.076172 C 21.123516 40.004627 21.34485 39.939452 21.5625 39.863281 C 21.188579 39.45244 20.839257 39.019635 20.521484 38.564453 C 19.097862 36.525131 18.267029 34.088506 18.068359 31.609375 C 18.049787 31.377614 18.042652 31.145776 18.035156 30.914062 z M 10.427734 31.5 C 10.423934 31.666701 10.414062 31.832386 10.414062 32 C 10.414062 43.921281 20.078743 53.585938 32 53.585938 C 43.921253 53.585938 53.585938 43.921281 53.585938 32 C 53.585938 31.832386 53.576066 31.666701 53.572266 31.5 C 53.305774 43.189642 43.753639 52.585938 32 52.585938 C 20.246357 52.585937 10.694226 43.189642 10.427734 31.5 z " />
  <rect
     style="opacity:0.6;fill:url(#radialGradient3337-2-2-1);fill-opacity:1;stroke:none;stroke-width:1.06199"
     id="rect2801-5-5-7-9-3"
     y="56.5"
     x="54"
     height="5"
     width="6" />
  <path
     style="display:inline;overflow:visible;visibility:visible;opacity:0.3;fill:url(#radialGradient3384);fill-opacity:1;fill-rule:evenodd;stroke:none;stroke-width:1;marker:none"
     id="path8836"
     d="m 62,60 c 0,2.209139 -6.268019,4 -14,4 -7.73199,0 -14,-1.790861 -14,-4 0,-2.209139 6.26801,-4 14,-4 7.731981,0 14,1.790861 14,4 z" />
  <path
     style="color:#000000;display:inline;overflow:visible;visibility:visible;opacity:0.8;fill:none;stroke:url(#linearGradient3315);stroke-width:1;stroke-linecap:butt;stroke-linejoin:miter;stroke-miterlimit:4;stroke-dasharray:none;stroke-dashoffset:0;stroke-opacity:1;marker:none;enable-background:accumulate"
     id="path2555-6-4"
     d="m 48.000002,33.499999 c -8.0006,0 -14.500002,6.499399 -14.500002,14.5 0,8.0006 6.499402,14.500003 14.500002,14.5 8.000597,0 14.500005,-6.4994 14.499998,-14.5 0,-8.000601 -6.499401,-14.5 -14.499998,-14.5 z" />
  <path
     style="color:#000000;display:inline;overflow:visible;visibility:visible;fill:url(#radialGradient3399);fill-opacity:1;fill-rule:nonzero;stroke:none;stroke-width:1;marker:none;enable-background:accumulate"
     id="path2555-03"
     d="M 48.000001,34 C 40.275284,34 34,40.275282 34,48 34,55.724717 40.275284,62.000003 48.000001,62 55.724716,62 62.000007,55.724717 62,48 62,40.275282 55.724716,34 48.000001,34 Z" />
  <path
     style="color:#000000;display:inline;overflow:visible;visibility:visible;fill:none;stroke:url(#linearGradient3306);stroke-width:1;stroke-linecap:round;stroke-linejoin:round;stroke-miterlimit:4;stroke-dasharray:none;stroke-dashoffset:0;stroke-opacity:1;marker:none;enable-background:accumulate"
     id="path8655-6-4"
     d="m 61.5,47.999521 c 0,7.456084 -6.044603,13.500478 -13.499829,13.500478 C 40.544259,61.499999 34.5,55.455536 34.5,47.999521 c 0,-7.455738 6.044259,-13.49952 13.500171,-13.49952 7.455226,0 13.499829,6.043782 13.499829,13.49952 z" />
  <path
     style="font-variation-settings:normal;opacity:1;vector-effect:none;fill:#ffffff;fill-opacity:1;stroke:none;stroke-width:1;stroke-linecap:butt;stroke-linejoin:miter;stroke-miterlimit:4;stroke-dasharray:none;stroke-dashoffset:0;stroke-opacity:1;-inkscape-stroke:none;marker:none;paint-order:normal;stop-color:#000000;stop-opacity:1"
     d="m 48.000002,56.993566 c 0.288694,0 0.577384,-0.114321 0.794752,-0.337565 l 4.23603,-4.943492 C 53.520351,51.103381 53.018074,50.023188 52.236034,50 H 50 V 44.053851 C 49.97829,43.481029 49.575986,43.021648 49,43 h -2 c -0.498983,0 -0.995103,0.546097 -1,1.053851 V 50 h -2.236034 c -0.782036,0.02318 -1.284319,1.103381 -0.794752,1.712509 l 4.236038,4.943492 c 0.217357,0.223244 0.506059,0.337565 0.79475,0.337565 z"
     id="path818-7-62" />
  <path
     style="opacity:0.99;vector-effect:none;fill:#3689e6;fill-opacity:1;stroke:none;stroke-width:1;stroke-linecap:butt;stroke-linejoin:miter;stroke-miterlimit:4;stroke-dasharray:none;stroke-dashoffset:0;stroke-opacity:1;marker:none;paint-order:normal"
     d="m 48.000002,55.993566 c 0.288694,0 0.577384,-0.114321 0.794752,-0.337565 l 4.23603,-4.943492 C 53.520351,50.103381 53.018074,49.023188 52.236034,49 H 50 V 43.053851 C 49.97829,42.481029 49.575986,42.021648 49,42 h -2 c -0.498983,0 -0.995103,0.546097 -1,1.053851 V 49 h -2.236034 c -0.782036,0.02318 -1.284319,1.103381 -0.794752,1.712509 l 4.236038,4.943492 c 0.217357,0.223244 0.506059,0.337565 0.79475,0.337565 z"
     id="path818-7" />
  <path
     id="path818-7-3"
     style="opacity:0.15;vector-effect:none;fill:#002e99;fill-opacity:1;stroke:none;stroke-width:1;stroke-linecap:butt;stroke-linejoin:miter;stroke-miterlimit:4;stroke-dasharray:none;stroke-dashoffset:0;stroke-opacity:1;marker:none;paint-order:normal;font-variation-settings:normal;-inkscape-stroke:none;stop-color:#000000;stop-opacity:1"
     d="M 47 42 C 46.501017 42 46.004897 42.546934 46 43.054688 L 46 44.054688 C 46.004897 43.546934 46.501017 43 47 43 L 49 43 C 49.575985 43.021648 49.97829 43.481866 50 44.054688 L 50 43.054688 C 49.97829 42.481866 49.575985 42.021648 49 42 L 47 42 z M 43.763672 49 C 43.022398 49.021972 42.534466 49.993291 42.902344 50.613281 C 43.067822 50.275542 43.381592 50.011325 43.763672 50 L 46 50 L 46 49 L 43.763672 49 z M 50 49 L 50 50 L 52.236328 50 C 52.61841 50.011329 52.932179 50.275543 53.097656 50.613281 C 53.465535 49.993292 52.977606 49.021979 52.236328 49 L 50 49 z " />
</svg>
