<?xml version="1.0" encoding="UTF-8" standalone="no"?>
<svg
   xmlns:dc="http://purl.org/dc/elements/1.1/"
   xmlns:cc="http://creativecommons.org/ns#"
   xmlns:rdf="http://www.w3.org/1999/02/22-rdf-syntax-ns#"
   xmlns:svg="http://www.w3.org/2000/svg"
   xmlns="http://www.w3.org/2000/svg"
   id="svg8"
   version="1.1"
   width="24"
   height="24">
  <metadata
     id="metadata14">
    <rdf:RDF>
      <cc:Work
         rdf:about="">
        <dc:format>image/svg+xml</dc:format>
        <dc:type
           rdf:resource="http://purl.org/dc/dcmitype/StillImage" />
        <dc:title></dc:title>
      </cc:Work>
    </rdf:RDF>
  </metadata>
  <defs
     id="defs12" />
  <path
     id="path3961"
     d="M 12 2 C 5.372583 2 0 7.372583 0 14 C 0.01052933 16.14263 0.59455332 18.243363 1.6914062 20.083984 C 1.7524842 20.192928 1.8867188 20.408203 1.8867188 20.408203 C 2.1603721 20.766049 2.5869349 21 3.0742188 21 L 20.917969 21 C 21.40539 21 21.831826 20.766216 22.105469 20.408203 L 22.109375 20.408203 C 22.196448 20.299176 22.306641 20.0625 22.306641 20.0625 C 23.40049 18.228346 23.985055 16.13551 24 14 C 24 7.372583 18.627417 2 12 2 z M 12 4 C 17.522847 4 22 8.4771525 22 14 C 21.9907 15.556519 21.618196 17.08938 20.912109 18.476562 C 20.912109 18.476562 20.842226 18.614937 20.816406 18.666016 C 20.681629 18.863427 20.465152 19 20.207031 19 L 3.8027344 19 C 3.544614 19 3.328184 18.863423 3.1933594 18.666016 L 3.1074219 18.523438 C 2.3874367 17.12379 2.0080079 15.573953 2 14 C 2 8.4771525 6.4771525 4 12 4 z M 6.1386719 9.3710938 L 10.763672 14.912109 C 11.053993 15.293724 11.506831 15.517122 11.986328 15.517578 C 12.835066 15.517578 13.523438 14.829207 13.523438 13.980469 C 13.522465 13.397 13.19096 12.864155 12.667969 12.605469 C 10.520422 11.526035 6.1386719 9.3710937 6.1386719 9.3710938 z "
     style="opacity:1;vector-effect:none;fill:#555761;fill-opacity:1;stroke:none;stroke-width:0.6611914;stroke-linecap:butt;stroke-linejoin:miter;stroke-miterlimit:4;stroke-dasharray:none;stroke-dashoffset:0;stroke-opacity:1;marker:none;paint-order:normal" />
</svg>
